<svg width="390" height="121" viewBox="0 0 390 121" fill="none" xmlns="http://www.w3.org/2000/svg">
<g clip-path="url(#clip0_634_468)">
<path d="M387.232 2.56348H2.77673V110.27H387.232V2.56348Z" fill="#882424"/>
<path d="M387.232 2.56348H2.77673V110.27H387.232V2.56348Z" fill="#FFF4F4"/>
<path d="M378.563 8H11.4369V104H378.563V8Z" fill="#24883C"/>
<path d="M346.104 47.1541V13.4165H209.98V27.6894H95.1267V51.0435H11.0887V74.3975H112.139V104.087H167.441V62.7176H248.262V86.0717H307.822V70.5023H378.902V47.1541H346.104Z" fill="#3D9953"/>
<path d="M371.842 61.5381H312.926V78.4039H371.842V61.5381Z" fill="#4FB768"/>
<path d="M268.095 26.5864H209.178V43.4523H268.095V26.5864Z" fill="#4FB768"/>
<path d="M113.955 50.5918H55.0381V67.4576H113.955V50.5918Z" fill="#4FB768"/>
<path d="M387.232 2.56348H2.77673V110.27H387.232V2.56348Z" stroke="#C2C2C2" stroke-width="8.73" stroke-miterlimit="10"/>
<path d="M390 110.27H0V121.006H390V110.27Z" fill="#454545"/>
<path d="M81.0469 73V49H105.047V58.6094H102.656V63.3906H105.047V73H81.0469ZM85.8516 63.3906V68.1953H100.242V63.3906H85.8516ZM85.8516 53.8047V58.6094H100.242V53.8047H85.8516ZM131.438 73H107.438V49H112.242V68.1953H126.633V49H131.438V73ZM143.438 73V63.3906H133.828V49H138.633V58.6094H153.023V49H157.828V63.3906H148.219V73H143.438ZM191.391 63.3906V68.1953H196.195V63.3906H191.391ZM181.805 53.8047V58.6094H186.609V53.8047H181.805ZM186.609 63.3906H177V49H186.609V46.6094H191.391V49H201V53.8047H191.391V58.6094H201V73H191.391V75.3906H186.609V73H177V68.1953H186.609V63.3906ZM208.195 73H203.391V49H227.391V53.8047H208.195V58.6094H225V63.3906H208.195V73ZM253.781 73H229.781V49H234.586V68.1953H253.781V73ZM256.172 73V49H280.172V73H275.367V63.3906H260.977V73H256.172ZM260.977 53.8047V58.6094H275.367V53.8047H260.977ZM287.367 63.3906V73H282.562V49L306.562 49.0234V63.3906H287.367ZM287.367 53.8047V58.6094H301.758V53.8047H287.367Z" fill="white"/>
</g>
<defs>
<clipPath id="clip0_634_468">
<rect width="390" height="121" fill="white"/>
</clipPath>
</defs>
</svg>
