<svg width="196" height="62" viewBox="0 0 196 62" fill="none" xmlns="http://www.w3.org/2000/svg">
<g clip-path="url(#clip0_521_212)">
<path d="M194.609 1.31352H1.39551V56.5021H194.609V1.31352Z" fill="#882424"/>
<path d="M194.609 1.31352H1.39551V56.5021H194.609V1.31352Z" fill="#FFF4F4"/>
<path d="M190.252 4.09917H5.74805V53.2893H190.252V4.09917Z" fill="#24883C"/>
<path d="M173.94 24.1616V6.87457H105.529V14.188H47.8077V26.1545H5.57324V38.1211H56.3574V53.334H84.1504V32.1363H124.768V44.1028H154.701V36.1251H190.423V24.1616H173.94Z" fill="#3D9953"/>
<path d="M186.874 31.5319H157.265V40.1739H186.874V31.5319Z" fill="#4FB768"/>
<path d="M134.734 13.6228H105.125V22.2648H134.734V13.6228Z" fill="#4FB768"/>
<path d="M57.2695 25.9231H27.6602V34.5651H57.2695V25.9231Z" fill="#4FB768"/>
<path d="M194.609 1.31352H1.39551V56.5021H194.609V1.31352Z" stroke="white" stroke-width="8.73" stroke-miterlimit="10"/>
<path d="M196 56.5021H0V62.0029H196V56.5021Z" fill="#454545"/>
<path d="M45.3203 38V22H61.3203V25.2031H48.5234V34.7969H61.3203V38H45.3203ZM66.1172 25.2031V34.7969H75.7109V25.2031H66.1172ZM62.9141 38V22H78.9141V38H62.9141ZM96.5078 22V38H93.3047V25.2031H83.7109V38H80.5078V22H96.5078ZM101.305 38H98.1016V22H114.102V25.2031H101.305V28.4062H112.508V31.5938H101.305V38ZM115.695 38V22H118.898V38H115.695ZM120.492 38V22L134.898 22.0156V25.2031H136.492V28.4062H134.898V31.5938H136.492V38H133.289V31.5938H123.695V38H120.492ZM123.695 25.2031V28.4062H133.289V25.2031H123.695ZM154.086 22V38H150.883V25.2031H147.68V38H144.492V25.2031H141.289V38H138.086V22H154.086Z" fill="white"/>
</g>
<defs>
<clipPath id="clip0_521_212">
<rect width="196" height="62" fill="white"/>
</clipPath>
</defs>
</svg>
