<svg width="2400" height="223" viewBox="0 0 2400 223" fill="none" xmlns="http://www.w3.org/2000/svg">
<path d="M3021.49 60.6082H2206V135.917H3021.49V60.6082Z" fill="#5E884E"/>
<path d="M2997.94 80.2488V91.8354H2981.95V103.422H2945.16V113.08H2909.97V96.6645H2893.97V91.8354H2861.99V86.0421H2833.19V100.525H2818.8V121.77H2802.8V100.525H2777.21V81.217H2759.61V108.251H2702.03V82.1812H2649.25V101.494H2620.46V111.148H2583.67V98.597H2570.87V104.39H2534.08V73.4913H2500.49V88.9387H2450.91V99.5611H2378.93V126.595H2346.94V88.9387H2305.35V102.458H2250.96V121.77H2206V135.917H3021.49V80.2488H2997.94Z" fill="#416633"/>
<path d="M3021.49 135.917H2206V222.812H3021.49V135.917Z" fill="#262626"/>
<path d="M3004.34 171.977V144.943H2959.55V160.391H2909.97V135.917H2892.38V156.53H2869.98V164.252H2841.19V156.53H2798V168.117H2756.42V135.917H2748.42V154.598H2698.83V174.874H2638.05V159.427H2598.06V150.737H2585.27V180.667H2540.48V161.355H2518.09V175.838H2478.1V159.427H2441.31V145.908H2426.92V156.53H2414.12V171.977H2386.93V156.53H2351.74V175.838H2324.55V150.737H2273.36V161.355H2230.17V178.735H2206V196.115H2236.57V222.812H2257.37V187.425H2287.75V204.805H2310.15V193.218H2359.74V208.67H2383.73V194.187H2430.11V211.566H2465.3V199.012H2495.7V202.876H2540.48V193.218H2618.86V187.425H2716.43V208.67H2730.82V197.083H2809.2V222.812H2839.59V180.667H2871.58V200.944H2895.57V186.461H2951.56V215.427H2989.95V202.876H2994.75V180.667H3021.49V171.977H3004.34Z" fill="#353535"/>
<path d="M2404.92 185.64H2383.73V198.191H2404.92V185.64Z" fill="#262626"/>
<path d="M2331.34 186.547H2310.15V199.098H2331.34V186.547Z" fill="#262626"/>
<path d="M2294.02 160.534H2272.83V173.085H2294.02V160.534Z" fill="#262626"/>
<path d="M2238.57 178.399H2217.38V190.949H2238.57V178.399Z" fill="#262626"/>
<path d="M2321.35 129.64H2295.75V142.19H2321.35V129.64Z" fill="#262626"/>
<path d="M2418.92 130.604H2393.32V143.155H2418.92V130.604Z" fill="#416633"/>
<path d="M2365.33 133.262H2339.74V145.817H2365.33V133.262Z" fill="#416633"/>
<path d="M2265.36 129.64H2239.77V142.19H2265.36V129.64Z" fill="#416633"/>
<path d="M2275.58 67.8293V65.905H2273.28V63.9807H2270.99V60.1281H2268.69V46.6542H2266.39V48.5784H2264.09V50.5027H2250.32V48.5784H2248.02V46.6542H2245.73V44.7299H2243.43V46.6542H2241.13V50.5027H2238.83V52.4311H2236.54V54.3553H2234.24V56.2796H2229.65V58.2039H2211.28V56.2796H2206.69V54.3553H2206V71.6819H2275.58V69.7576H2277.87V67.8293H2275.58Z" fill="#416633"/>
<path d="M2282.47 50.5027V46.6542H2280.17V44.7299H2277.87V42.8015H2275.58V40.8773H2268.69V35.1004H2266.39V29.3235H2264.09V27.3992H2261.8V25.475H2259.5V23.5507H2257.21V21.6223H2238.83V23.5507H2236.54V19.6981H2234.24V17.7738H2229.65V15.8495H2227.36V13.9212H2213.58V15.8495H2208.98V17.7738H2206.69V19.6981H2206V54.3553H2206.69V56.2796H2211.28V58.2039H2229.65V56.2796H2234.24V54.3553H2236.54V52.4311H2238.83V50.5027H2241.13V46.6542H2243.43V44.7299H2245.73V46.6542H2248.02V48.5784H2250.32V50.5027H2264.09V48.5784H2266.39V46.6542H2268.69V60.1281H2270.99V63.9807H2273.28V65.905H2275.58V67.8293H2277.87V69.7576H2280.17V65.905H2282.47V63.9807H2284.76V50.5027H2282.47Z" fill="#5E884E"/>
<path d="M2364.8 67.8293V65.905H2362.51V63.9807H2360.21V62.0565V60.1281H2357.92V58.2038V56.2796V54.3553V52.4311V50.5027V48.5784V46.6542H2355.62V48.5784H2353.32V50.5027H2351.03H2348.73H2346.44H2344.14H2341.85H2339.55V48.5784H2337.25V46.6542H2334.95V44.7299H2332.66V46.6542H2330.36V48.5784V50.5027H2328.07V52.4311H2325.77V54.3553H2323.47V56.2796H2321.18H2318.88V58.2038H2316.59H2314.29H2311.99H2309.69H2307.4H2305.1H2302.81H2300.51V56.2796H2298.21H2295.92V54.3553H2293.62V52.4311H2291.33V50.5027H2289.03H2286.73V52.4311H2284.43V54.3553H2282.14H2279.84H2277.55H2275.25H2272.95H2270.66V52.4311H2268.36V50.5027H2266.06V48.5784V46.6542H2263.77V44.7299V42.8015V40.8773V38.953H2261.47V40.8773V42.8015V44.7299H2259.17V46.6542V48.5784V50.5027V52.4311V54.3553V56.2796H2261.47V58.2038V60.1281V62.0565H2263.77V63.9807V65.905H2266.06V67.8293H2268.36V69.7576H2270.66H2272.95V71.6819H2275.25H2277.55H2279.84H2282.14H2284.43H2286.73H2289.03H2291.33H2293.62H2295.92H2298.21H2300.51H2302.81H2305.1H2307.4H2309.69H2311.99H2314.29H2316.59H2318.88H2321.18H2323.47H2325.77H2328.07H2330.36H2332.66H2334.95H2337.25H2339.55H2341.85H2344.14H2346.44H2348.73H2351.03H2353.32H2355.62H2357.92H2360.21H2362.51H2364.8V69.7576H2367.1V67.8293H2364.8Z" fill="#416633"/>
<path d="M2371.7 50.5027V48.5784V46.6542H2369.4V44.7299H2367.1V42.8015H2364.8V40.8773H2362.51H2360.21H2357.92V38.953V37.0287V35.1004H2355.62V33.1761V31.2519V29.3235H2353.33V27.3992H2351.03V25.475H2348.73V23.5507H2346.44V21.6223H2344.14H2341.85H2339.55H2337.25H2334.95H2332.66H2330.36H2328.07V23.5507H2325.77V21.6223V19.6981H2323.47V17.7738H2321.18H2318.88V15.8495H2316.59V13.9212H2314.29H2311.99H2309.69H2307.4H2305.1H2302.81V15.8495H2300.51H2298.21V17.7738H2295.92V19.6981H2293.62V21.6223H2291.33V23.5507H2289.03V25.475V27.3992V29.3235H2286.73H2284.43H2282.14H2279.84H2277.55H2275.25H2272.95V31.2519H2270.66H2268.36V33.1761H2266.06V35.1004H2263.77V37.0287V38.953V40.8773V42.8015V44.7299V46.6542H2266.06V48.5784V50.5027H2268.36V52.4311H2270.66V54.3553H2272.95H2275.25H2277.55H2279.84H2282.14H2284.43V52.4311H2286.73V50.5027H2289.03H2291.33V52.4311H2293.62V54.3553H2295.92V56.2796H2298.21H2300.51V58.2039H2302.81H2305.1H2307.4H2309.69H2311.99H2314.29H2316.59H2318.88V56.2796H2321.18H2323.47V54.3553H2325.77V52.4311H2328.07V50.5027H2330.36V48.5784V46.6542H2332.66V44.7299H2334.95V46.6542H2337.25V48.5784H2339.55V50.5027H2341.85H2344.14H2346.44H2348.73H2351.03H2353.33V48.5784H2355.62V46.6542H2357.92V48.5784V50.5027V52.4311V54.3553V56.2796V58.2039V60.1281H2360.21V62.0565V63.9807H2362.51V65.905H2364.8V67.8293H2367.1V69.7576H2369.4V67.8293V65.905H2371.7V63.9807H2373.99V62.0565V60.1281V58.2039V56.2796V54.3553V52.4311V50.5027H2371.7Z" fill="#5E884E"/>
<path d="M2454.04 67.8293V65.905H2451.74V63.9807H2449.44V62.0565V60.1281H2447.15V58.2038V56.2796V54.3553V52.4311V50.5027V48.5784V46.6542H2444.85V48.5784H2442.56V50.5027H2440.26H2437.96H2435.66H2433.37H2431.07H2428.78V48.5784H2426.48V46.6542H2424.18V44.7299H2421.89V46.6542H2419.59V48.5784V50.5027H2417.3V52.4311H2415V54.3553H2412.7V56.2796H2410.4H2408.11V58.2038H2405.81H2403.52H2401.22H2398.92H2396.63H2394.33H2392.04H2389.74V56.2796H2387.44H2385.14V54.3553H2382.85V52.4311H2380.55V50.5027H2378.26H2375.96V52.4311H2373.66V54.3553H2371.37H2369.07H2366.78H2364.48H2362.18H2359.88V52.4311H2357.59V50.5027H2355.29V48.5784V46.6542H2353V44.7299V42.8015V40.8773V38.953H2350.7V40.8773V42.8015V44.7299H2348.4V46.6542V48.5784V50.5027V52.4311V54.3553V56.2796H2350.7V58.2038V60.1281V62.0565H2353V63.9807V65.905H2355.29V67.8293H2357.59V69.7576H2359.88H2362.18V71.6819H2364.48H2366.78H2369.07H2371.37H2373.66H2375.96H2378.26H2380.55H2382.85H2385.14H2387.44H2389.74H2392.04H2394.33H2396.63H2398.92H2401.22H2403.52H2405.81H2408.11H2410.4H2412.7H2415H2417.3H2419.59H2421.89H2424.18H2426.48H2428.78H2431.07H2433.37H2435.66H2437.96H2440.26H2442.56H2444.85H2447.15H2449.44H2451.74H2454.04V69.7576H2456.33V67.8293H2454.04Z" fill="#416633"/>
<path d="M2460.92 50.5027V48.5784V46.6542H2458.63V44.7299H2456.33V42.8015H2454.04V40.8773H2451.74H2449.44H2447.15V38.953V37.0287V35.1004H2444.85V33.1761V31.2519V29.3235H2442.56V27.3992H2440.26V25.475H2437.96V23.5507H2435.66V21.6223H2433.37H2431.07H2428.78H2426.48H2424.18H2421.89H2419.59H2417.3V23.5507H2415V21.6223V19.6981H2412.7V17.7738H2410.4H2408.11V15.8495H2405.81V13.9212H2403.52H2401.22H2398.92H2396.63H2394.33H2392.04V15.8495H2389.74H2387.44V17.7738H2385.14V19.6981H2382.85V21.6223H2380.55V23.5507H2378.26V25.475V27.3992V29.3235H2375.96H2373.66H2371.37H2369.07H2366.78H2364.48H2362.18V31.2519H2359.88H2357.59V33.1761H2355.29V35.1004H2353V37.0287V38.953V40.8773V42.8015V44.7299V46.6542H2355.29V48.5784V50.5027H2357.59V52.4311H2359.88V54.3553H2362.18H2364.48H2366.78H2369.07H2371.37H2373.66V52.4311H2375.96V50.5027H2378.26H2380.55V52.4311H2382.85V54.3553H2385.14V56.2796H2387.44H2389.74V58.2039H2392.04H2394.33H2396.63H2398.92H2401.22H2403.52H2405.81H2408.11V56.2796H2410.4H2412.7V54.3553H2415V52.4311H2417.3V50.5027H2419.59V48.5784V46.6542H2421.89V44.7299H2424.18V46.6542H2426.48V48.5784H2428.78V50.5027H2431.07H2433.37H2435.66H2437.96H2440.26H2442.56V48.5784H2444.85V46.6542H2447.15V48.5784V50.5027V52.4311V54.3553V56.2796V58.2039V60.1281H2449.44V62.0565V63.9807H2451.74V65.905H2454.04V67.8293H2456.33V69.7576H2458.63V67.8293V65.905H2460.92V63.9807H2463.22V62.0565V60.1281V58.2039V56.2796V54.3553V52.4311V50.5027H2460.92Z" fill="#5E884E"/>
<path d="M2333.88 40.0977V38.1693V36.2451H2331.58V34.3208H2329.29V32.3966H2326.99V30.4682H2324.7H2322.4H2320.1V28.5439V26.6197V24.6954H2317.81V22.767V20.8428V18.9185H2315.51V16.9942H2313.21V15.0659H2310.92V13.1416H2308.62V11.2173H2306.32H2304.03H2301.73H2299.44H2297.14H2294.84H2292.55H2290.25V13.1416H2287.95V11.2173V9.29308H2285.66V7.36472H2283.36H2281.06V5.44045H2278.77V3.51619H2276.47H2274.18H2271.88H2269.58H2267.29H2264.99V5.44045H2262.69H2260.4V7.36472H2258.1V9.29308H2255.8V11.2173H2253.51V13.1416H2251.21V15.0659V16.9942V18.9185H2248.92H2246.62H2244.32H2242.03H2239.73H2237.43H2235.14V20.8428H2232.84H2230.54V22.767H2228.25V24.6954H2225.95V26.6197V28.5439V30.4682V32.3966V34.3208V36.2451H2228.25V38.1693V40.0977H2230.54V42.022H2232.84V43.9462H2235.14H2237.43H2239.73H2242.03H2244.32H2246.62V42.022H2248.92V40.0977H2251.21H2253.51V42.022H2255.8V43.9462H2258.1V45.8705H2260.4H2262.69V47.7948H2264.99H2267.29H2269.58H2271.88H2274.18H2276.47H2278.77H2281.06V45.8705H2283.36H2285.66V43.9462H2287.95V42.022H2290.25V40.0977H2292.55V38.1693V36.2451H2294.84V34.3208H2297.14V36.2451H2299.44V38.1693H2301.73V40.0977H2304.03H2306.32H2308.62H2310.92H2313.21H2315.51V38.1693H2317.81V36.2451H2320.1V38.1693V40.0977V42.022V43.9462V45.8705V47.7948V49.7231H2322.4V51.6474V53.5717H2324.7V55.5H2326.99V57.4243H2329.29V59.3486H2331.58V57.4243V55.5H2333.88V53.5717H2336.18V51.6474V49.7231V47.7948V45.8705V43.9462V42.022V40.0977H2333.88Z" fill="#5E884E"/>
<path d="M2219 60.6082H1898.39V135.917H2219V60.6082Z" fill="#5E884E"/>
<path d="M2219 73.4913H2200.32V88.9387H2150.73V99.5611H2078.75V126.595H2046.76V88.9387H2005.17V102.458H1950.79V121.77H1898.39V135.917H2219V73.4913Z" fill="#416633"/>
<path d="M2219 135.917H1898.39V222.812H2219V135.917Z" fill="#262626"/>
<path d="M2219 202.876V161.355H2217.91V175.838H2177.92V159.427H2141.13V145.908H2126.74V156.53H2113.94V171.977H2086.75V156.53H2051.56V175.838H2024.36V150.737H1973.18V161.355H1930V178.735H1898.39V196.115H1936.39V222.812H1957.18V187.425H1987.58V204.805H2009.97V193.218H2059.56V208.67H2083.55V194.187H2129.93V211.566H2165.12V199.012H2195.51V202.876H2219Z" fill="#353535"/>
<path d="M2147.13 173.089H2125.93V185.64H2147.13V173.089Z" fill="#262626"/>
<path d="M2194.72 182.904H2173.52V195.454H2194.72V182.904Z" fill="#262626"/>
<path d="M2104.74 185.64H2083.55V198.191H2104.74V185.64Z" fill="#262626"/>
<path d="M2031.17 186.547H2009.97V199.098H2031.17V186.547Z" fill="#262626"/>
<path d="M1993.84 160.534H1972.65V173.085H1993.84V160.534Z" fill="#262626"/>
<path d="M1938.39 178.399H1917.2V190.949H1938.39V178.399Z" fill="#262626"/>
<path d="M2144.33 124.33H2118.74V136.885H2144.33V124.33Z" fill="#262626"/>
<path d="M2021.17 129.64H1995.57V142.19H2021.17V129.64Z" fill="#262626"/>
<path d="M2118.74 130.604H2093.15V143.155H2118.74V130.604Z" fill="#416633"/>
<path d="M2194.72 129.976H2169.12V142.527H2194.72V129.976Z" fill="#416633"/>
<path d="M2065.15 133.262H2039.56V145.817H2065.15V133.262Z" fill="#416633"/>
<path d="M1965.18 129.64H1939.59V142.19H1965.18V129.64Z" fill="#416633"/>
<path d="M1918.49 60.6082H1103V135.917H1918.49V60.6082Z" fill="#5E884E"/>
<path d="M1894.94 80.2488V91.8354H1878.95V103.422H1842.16V113.08H1806.97V96.6645H1790.97V91.8354H1758.99V86.0421H1730.19V100.525H1715.8V121.77H1699.8V100.525H1674.21V81.217H1656.61V108.251H1599.03V82.1812H1546.25V101.494H1517.46V111.148H1480.67V98.597H1467.87V104.39H1431.08V73.4913H1397.49V88.9387H1347.91V99.5611H1275.93V126.595H1243.94V88.9387H1202.35V102.458H1147.96V121.77H1103V135.917H1918.49V80.2488H1894.94Z" fill="#416633"/>
<path d="M1918.49 135.917H1103V222.812H1918.49V135.917Z" fill="#262626"/>
<path d="M1901.34 171.977V144.943H1856.55V160.391H1806.97V135.917H1789.38V156.53H1766.98V164.252H1738.19V156.53H1695V168.117H1653.42V135.917H1645.42V154.598H1595.83V174.874H1535.05V159.427H1495.06V150.737H1482.27V180.667H1437.48V161.355H1415.09V175.838H1375.1V159.427H1338.31V145.908H1323.92V156.53H1311.12V171.977H1283.93V156.53H1248.74V175.838H1221.55V150.737H1170.36V161.355H1127.17V178.735H1103V196.115H1133.57V222.812H1154.37V187.425H1184.75V204.805H1207.15V193.218H1256.74V208.67H1280.73V194.187H1327.11V211.566H1362.3V199.012H1392.7V202.876H1437.48V193.218H1515.86V187.425H1613.43V208.67H1627.82V197.083H1706.2V222.812H1736.59V180.667H1768.58V200.944H1792.57V186.461H1848.56V215.427H1886.95V202.876H1891.75V180.667H1918.49V171.977H1901.34Z" fill="#353535"/>
<path d="M1888.19 152.329H1896.09V152.107C1893.46 152.156 1890.82 152.23 1888.19 152.329Z" fill="white"/>
<path d="M1840.56 124.33H1814.97V136.885H1840.56V124.33Z" fill="#262626"/>
<path d="M1586.24 124.33H1560.64V136.885H1586.24V124.33Z" fill="#262626"/>
<path d="M1451.88 124.33H1426.28V136.885H1451.88V124.33Z" fill="#262626"/>
<path d="M1344.31 173.089H1323.11V185.64H1344.31V173.089Z" fill="#262626"/>
<path d="M1391.89 182.904H1370.7V195.454H1391.89V182.904Z" fill="#262626"/>
<path d="M1521.19 165.524H1499.99V178.074H1521.19V165.524Z" fill="#262626"/>
<path d="M1500.26 184.032H1479.07V196.583H1500.26V184.032Z" fill="#262626"/>
<path d="M1579.44 169.549H1558.24V182.099H1579.44V169.549Z" fill="#262626"/>
<path d="M1643.42 173.089H1622.22V185.64H1643.42V173.089Z" fill="#262626"/>
<path d="M1679.41 179.363H1658.21V191.914H1679.41V179.363Z" fill="#262626"/>
<path d="M1729.39 163.271H1708.2V175.822H1729.39V163.271Z" fill="#262626"/>
<path d="M1784.38 167.616H1763.18V180.167H1784.38V167.616Z" fill="#262626"/>
<path d="M1869.69 163.271H1848.49V175.822H1869.69V163.271Z" fill="#262626"/>
<path d="M1885.95 185.64H1864.75V198.191H1885.95V185.64Z" fill="#262626"/>
<path d="M1836.16 179.363H1814.97V191.914H1836.16V179.363Z" fill="#262626"/>
<path d="M1744.42 199.799H1723.23V212.35H1744.42V199.799Z" fill="#262626"/>
<path d="M1301.92 185.64H1280.73V198.191H1301.92V185.64Z" fill="#262626"/>
<path d="M1228.34 186.547H1207.15V199.098H1228.34V186.547Z" fill="#262626"/>
<path d="M1191.02 160.534H1169.83V173.085H1191.02V160.534Z" fill="#262626"/>
<path d="M1135.57 178.399H1114.38V190.949H1135.57V178.399Z" fill="#262626"/>
<path d="M1341.51 124.33H1315.92V136.885H1341.51V124.33Z" fill="#262626"/>
<path d="M1663.01 129.976H1637.42V142.527H1663.01V129.976Z" fill="#262626"/>
<path d="M1746.62 129.64H1721.03V142.19H1746.62V129.64Z" fill="#262626"/>
<path d="M1218.35 129.64H1192.75V142.19H1218.35V129.64Z" fill="#262626"/>
<path d="M1315.92 130.604H1290.32V143.155H1315.92V130.604Z" fill="#416633"/>
<path d="M1391.89 129.976H1366.3V142.527H1391.89V129.976Z" fill="#416633"/>
<path d="M1491.86 133.262H1466.27V145.817H1491.86V133.262Z" fill="#416633"/>
<path d="M1543.85 129.976H1518.25V142.527H1543.85V129.976Z" fill="#416633"/>
<path d="M1637.42 133.262H1611.83V145.817H1637.42V133.262Z" fill="#416633"/>
<path d="M1708.2 133.262H1682.61V145.817H1708.2V133.262Z" fill="#416633"/>
<path d="M1786.58 133.262H1760.98V145.817H1786.58V133.262Z" fill="#416633"/>
<path d="M1880.95 125.779H1855.36V138.33H1880.95V125.779Z" fill="#416633"/>
<path d="M1262.33 133.262H1236.74V145.817H1262.33V133.262Z" fill="#416633"/>
<path d="M1162.36 129.64H1136.77V142.19H1162.36V129.64Z" fill="#416633"/>
<path d="M1172.58 67.8293V65.905H1170.28V63.9807H1167.99V60.1281H1165.69V46.6542H1163.39V48.5784H1161.09V50.5027H1147.32V48.5784H1145.02V46.6542H1142.73V44.7299H1140.43V46.6542H1138.13V50.5027H1135.83V52.4311H1133.54V54.3553H1131.24V56.2796H1126.65V58.2039H1108.28V56.2796H1103.69V54.3553H1103V71.6819H1172.58V69.7576H1174.87V67.8293H1172.58Z" fill="#416633"/>
<path d="M1179.47 50.5027V46.6542H1177.17V44.7299H1174.87V42.8015H1172.58V40.8773H1165.69V35.1004H1163.39V29.3235H1161.09V27.3992H1158.8V25.475H1156.5V23.5507H1154.21V21.6223H1135.83V23.5507H1133.54V19.6981H1131.24V17.7738H1126.65V15.8495H1124.36V13.9212H1110.58V15.8495H1105.98V17.7738H1103.69V19.6981H1103V54.3553H1103.69V56.2796H1108.28V58.2039H1126.65V56.2796H1131.24V54.3553H1133.54V52.4311H1135.83V50.5027H1138.13V46.6542H1140.43V44.7299H1142.73V46.6542H1145.02V48.5784H1147.32V50.5027H1161.09V48.5784H1163.39V46.6542H1165.69V60.1281H1167.99V63.9807H1170.28V65.905H1172.58V67.8293H1174.87V69.7576H1177.17V65.905H1179.47V63.9807H1181.76V50.5027H1179.47Z" fill="#5E884E"/>
<path d="M1261.8 67.8293V65.905H1259.51V63.9807H1257.21V62.0565V60.1281H1254.92V58.2038V56.2796V54.3553V52.4311V50.5027V48.5784V46.6542H1252.62V48.5784H1250.32V50.5027H1248.03H1245.73H1243.44H1241.14H1238.85H1236.55V48.5784H1234.25V46.6542H1231.95V44.7299H1229.66V46.6542H1227.36V48.5784V50.5027H1225.07V52.4311H1222.77V54.3553H1220.47V56.2796H1218.18H1215.88V58.2038H1213.59H1211.29H1208.99H1206.69H1204.4H1202.1H1199.81H1197.51V56.2796H1195.21H1192.92V54.3553H1190.62V52.4311H1188.33V50.5027H1186.03H1183.73V52.4311H1181.43V54.3553H1179.14H1176.84H1174.55H1172.25H1169.95H1167.66V52.4311H1165.36V50.5027H1163.06V48.5784V46.6542H1160.77V44.7299V42.8015V40.8773V38.953H1158.47V40.8773V42.8015V44.7299H1156.17V46.6542V48.5784V50.5027V52.4311V54.3553V56.2796H1158.47V58.2038V60.1281V62.0565H1160.77V63.9807V65.905H1163.06V67.8293H1165.36V69.7576H1167.66H1169.95V71.6819H1172.25H1174.55H1176.84H1179.14H1181.43H1183.73H1186.03H1188.33H1190.62H1192.92H1195.21H1197.51H1199.81H1202.1H1204.4H1206.69H1208.99H1211.29H1213.59H1215.88H1218.18H1220.47H1222.77H1225.07H1227.36H1229.66H1231.95H1234.25H1236.55H1238.85H1241.14H1243.44H1245.73H1248.03H1250.32H1252.62H1254.92H1257.21H1259.51H1261.8V69.7576H1264.1V67.8293H1261.8Z" fill="#416633"/>
<path d="M1268.7 50.5027V48.5784V46.6542H1266.4V44.7299H1264.1V42.8015H1261.8V40.8773H1259.51H1257.21H1254.92V38.953V37.0287V35.1004H1252.62V33.1761V31.2519V29.3235H1250.33V27.3992H1248.03V25.475H1245.73V23.5507H1243.44V21.6223H1241.14H1238.85H1236.55H1234.25H1231.95H1229.66H1227.36H1225.07V23.5507H1222.77V21.6223V19.6981H1220.47V17.7738H1218.18H1215.88V15.8495H1213.59V13.9212H1211.29H1208.99H1206.69H1204.4H1202.1H1199.81V15.8495H1197.51H1195.21V17.7738H1192.92V19.6981H1190.62V21.6223H1188.33V23.5507H1186.03V25.475V27.3992V29.3235H1183.73H1181.43H1179.14H1176.84H1174.55H1172.25H1169.95V31.2519H1167.66H1165.36V33.1761H1163.06V35.1004H1160.77V37.0287V38.953V40.8773V42.8015V44.7299V46.6542H1163.06V48.5784V50.5027H1165.36V52.4311H1167.66V54.3553H1169.95H1172.25H1174.55H1176.84H1179.14H1181.43V52.4311H1183.73V50.5027H1186.03H1188.33V52.4311H1190.62V54.3553H1192.92V56.2796H1195.21H1197.51V58.2039H1199.81H1202.1H1204.4H1206.69H1208.99H1211.29H1213.59H1215.88V56.2796H1218.18H1220.47V54.3553H1222.77V52.4311H1225.07V50.5027H1227.36V48.5784V46.6542H1229.66V44.7299H1231.95V46.6542H1234.25V48.5784H1236.55V50.5027H1238.85H1241.14H1243.44H1245.73H1248.03H1250.33V48.5784H1252.62V46.6542H1254.92V48.5784V50.5027V52.4311V54.3553V56.2796V58.2039V60.1281H1257.21V62.0565V63.9807H1259.51V65.905H1261.8V67.8293H1264.1V69.7576H1266.4V67.8293V65.905H1268.7V63.9807H1270.99V62.0565V60.1281V58.2039V56.2796V54.3553V52.4311V50.5027H1268.7Z" fill="#5E884E"/>
<path d="M1351.04 67.8293V65.905H1348.74V63.9807H1346.44V62.0565V60.1281H1344.15V58.2038V56.2796V54.3553V52.4311V50.5027V48.5784V46.6542H1341.85V48.5784H1339.56V50.5027H1337.26H1334.96H1332.66H1330.37H1328.07H1325.78V48.5784H1323.48V46.6542H1321.18V44.7299H1318.89V46.6542H1316.59V48.5784V50.5027H1314.3V52.4311H1312V54.3553H1309.7V56.2796H1307.4H1305.11V58.2038H1302.81H1300.52H1298.22H1295.92H1293.63H1291.33H1289.04H1286.74V56.2796H1284.44H1282.14V54.3553H1279.85V52.4311H1277.55V50.5027H1275.26H1272.96V52.4311H1270.66V54.3553H1268.37H1266.07H1263.78H1261.48H1259.18H1256.88V52.4311H1254.59V50.5027H1252.29V48.5784V46.6542H1250V44.7299V42.8015V40.8773V38.953H1247.7V40.8773V42.8015V44.7299H1245.4V46.6542V48.5784V50.5027V52.4311V54.3553V56.2796H1247.7V58.2038V60.1281V62.0565H1250V63.9807V65.905H1252.29V67.8293H1254.59V69.7576H1256.88H1259.18V71.6819H1261.48H1263.78H1266.07H1268.37H1270.66H1272.96H1275.26H1277.55H1279.85H1282.14H1284.44H1286.74H1289.04H1291.33H1293.63H1295.92H1298.22H1300.52H1302.81H1305.11H1307.4H1309.7H1312H1314.3H1316.59H1318.89H1321.18H1323.48H1325.78H1328.07H1330.37H1332.66H1334.96H1337.26H1339.56H1341.85H1344.15H1346.44H1348.74H1351.04V69.7576H1353.33V67.8293H1351.04Z" fill="#416633"/>
<path d="M1357.92 50.5027V48.5784V46.6542H1355.63V44.7299H1353.33V42.8015H1351.04V40.8773H1348.74H1346.44H1344.15V38.953V37.0287V35.1004H1341.85V33.1761V31.2519V29.3235H1339.56V27.3992H1337.26V25.475H1334.96V23.5507H1332.66V21.6223H1330.37H1328.07H1325.78H1323.48H1321.18H1318.89H1316.59H1314.3V23.5507H1312V21.6223V19.6981H1309.7V17.7738H1307.4H1305.11V15.8495H1302.81V13.9212H1300.52H1298.22H1295.92H1293.63H1291.33H1289.04V15.8495H1286.74H1284.44V17.7738H1282.14V19.6981H1279.85V21.6223H1277.55V23.5507H1275.26V25.475V27.3992V29.3235H1272.96H1270.66H1268.37H1266.07H1263.78H1261.48H1259.18V31.2519H1256.88H1254.59V33.1761H1252.29V35.1004H1250V37.0287V38.953V40.8773V42.8015V44.7299V46.6542H1252.29V48.5784V50.5027H1254.59V52.4311H1256.88V54.3553H1259.18H1261.48H1263.78H1266.07H1268.37H1270.66V52.4311H1272.96V50.5027H1275.26H1277.55V52.4311H1279.85V54.3553H1282.14V56.2796H1284.44H1286.74V58.2039H1289.04H1291.33H1293.63H1295.92H1298.22H1300.52H1302.81H1305.11V56.2796H1307.4H1309.7V54.3553H1312V52.4311H1314.3V50.5027H1316.59V48.5784V46.6542H1318.89V44.7299H1321.18V46.6542H1323.48V48.5784H1325.78V50.5027H1328.07H1330.37H1332.66H1334.96H1337.26H1339.56V48.5784H1341.85V46.6542H1344.15V48.5784V50.5027V52.4311V54.3553V56.2796V58.2039V60.1281H1346.44V62.0565V63.9807H1348.74V65.905H1351.04V67.8293H1353.33V69.7576H1355.63V67.8293V65.905H1357.92V63.9807H1360.22V62.0565V60.1281V58.2039V56.2796V54.3553V52.4311V50.5027H1357.92Z" fill="#5E884E"/>
<path d="M1440.27 67.8293V65.905H1437.97V63.9807H1435.67V62.0565V60.1281H1433.37V58.2038V56.2796V54.3553V52.4311V50.5027V48.5784V46.6542H1431.08V48.5784H1428.78V50.5027H1426.49H1424.19H1421.89H1419.6H1417.3H1415.01V48.5784H1412.71V46.6542H1410.41V44.7299H1408.11V46.6542H1405.82V48.5784V50.5027H1403.52V52.4311H1401.23V54.3553H1398.93V56.2796H1396.63H1394.34V58.2038H1392.04H1389.75H1387.45H1385.15H1382.85H1380.56H1378.26H1375.97V56.2796H1373.67H1371.37V54.3553H1369.08V52.4311H1366.78V50.5027H1364.49H1362.19V52.4311H1359.89V54.3553H1357.6H1355.3H1353H1350.71H1348.41H1346.11V52.4311H1343.82V50.5027H1341.52V48.5784V46.6542H1339.23V44.7299V42.8015V40.8773V38.953H1336.93V40.8773V42.8015V44.7299H1334.63V46.6542V48.5784V50.5027V52.4311V54.3553V56.2796H1336.93V58.2038V60.1281V62.0565H1339.23V63.9807V65.905H1341.52V67.8293H1343.82V69.7576H1346.11H1348.41V71.6819H1350.71H1353H1355.3H1357.6H1359.89H1362.19H1364.49H1366.78H1369.08H1371.37H1373.67H1375.97H1378.26H1380.56H1382.85H1385.15H1387.45H1389.75H1392.04H1394.34H1396.63H1398.93H1401.23H1403.52H1405.82H1408.11H1410.41H1412.71H1415.01H1417.3H1419.6H1421.89H1424.19H1426.49H1428.78H1431.08H1433.37H1435.67H1437.97H1440.27V69.7576H1442.56V67.8293H1440.27Z" fill="#416633"/>
<path d="M1447.15 50.5027V48.5784V46.6542H1444.86V44.7299H1442.56V42.8015H1440.27V40.8773H1437.97H1435.67H1433.37V38.953V37.0287V35.1004H1431.08V33.1761V31.2519V29.3235H1428.78V27.3992H1426.49V25.475H1424.19V23.5507H1421.89V21.6223H1419.6H1417.3H1415.01H1412.71H1410.41H1408.11H1405.82H1403.52V23.5507H1401.23V21.6223V19.6981H1398.93V17.7738H1396.63H1394.34V15.8495H1392.04V13.9212H1389.75H1387.45H1385.15H1382.85H1380.56H1378.26V15.8495H1375.97H1373.67V17.7738H1371.37V19.6981H1369.08V21.6223H1366.78V23.5507H1364.49V25.475V27.3992V29.3235H1362.19H1359.89H1357.6H1355.3H1353H1350.71H1348.41V31.2519H1346.11H1343.82V33.1761H1341.52V35.1004H1339.23V37.0287V38.953V40.8773V42.8015V44.7299V46.6542H1341.52V48.5784V50.5027H1343.82V52.4311H1346.11V54.3553H1348.41H1350.71H1353H1355.3H1357.6H1359.89V52.4311H1362.19V50.5027H1364.49H1366.78V52.4311H1369.08V54.3553H1371.37V56.2796H1373.67H1375.97V58.2039H1378.26H1380.56H1382.85H1385.15H1387.45H1389.75H1392.04H1394.34V56.2796H1396.63H1398.93V54.3553H1401.23V52.4311H1403.52V50.5027H1405.82V48.5784V46.6542H1408.11V44.7299H1410.41V46.6542H1412.71V48.5784H1415.01V50.5027H1417.3H1419.6H1421.89H1424.19H1426.49H1428.78V48.5784H1431.08V46.6542H1433.37V48.5784V50.5027V52.4311V54.3553V56.2796V58.2039V60.1281H1435.67V62.0565V63.9807H1437.97V65.905H1440.27V67.8293H1442.56V69.7576H1444.86V67.8293V65.905H1447.15V63.9807H1449.45V62.0565V60.1281V58.2039V56.2796V54.3553V52.4311V50.5027H1447.15Z" fill="#5E884E"/>
<path d="M1529.49 67.8293V65.905H1527.2V63.9807H1524.9V62.0565V60.1281H1522.6V58.2038V56.2796V54.3553V52.4311V50.5027V48.5784V46.6542H1520.31V48.5784H1518.01V50.5027H1515.72H1513.42H1511.12H1508.83H1506.53H1504.23V48.5784H1501.94V46.6542H1499.64V44.7299H1497.34V46.6542H1495.05V48.5784V50.5027H1492.75V52.4311H1490.46V54.3553H1488.16V56.2796H1485.86H1483.57V58.2038H1481.27H1478.97H1476.68H1474.38H1472.08H1469.79H1467.49H1465.2V56.2796H1462.9H1460.6V54.3553H1458.31V52.4311H1456.01V50.5027H1453.71H1451.42V52.4311H1449.12V54.3553H1446.82H1444.53H1442.23H1439.94H1437.64H1435.34V52.4311H1433.05V50.5027H1430.75V48.5784V46.6542H1428.46V44.7299V42.8015V40.8773V38.953H1426.16V40.8773V42.8015V44.7299H1423.86V46.6542V48.5784V50.5027V52.4311V54.3553V56.2796H1426.16V58.2038V60.1281V62.0565H1428.46V63.9807V65.905H1430.75V67.8293H1433.05V69.7576H1435.34H1437.64V71.6819H1439.94H1442.23H1444.53H1446.82H1449.12H1451.42H1453.71H1456.01H1458.31H1460.6H1462.9H1465.2H1467.49H1469.79H1472.08H1474.38H1476.68H1478.97H1481.27H1483.57H1485.86H1488.16H1490.46H1492.75H1495.05H1497.34H1499.64H1501.94H1504.23H1506.53H1508.83H1511.12H1513.42H1515.72H1518.01H1520.31H1522.6H1524.9H1527.2H1529.49V69.7576H1531.79V67.8293H1529.49Z" fill="#416633"/>
<path d="M1536.38 50.5027V48.5784V46.6542H1534.08V44.7299H1531.79V42.8015H1529.49V40.8773H1527.2H1524.9H1522.6V38.953V37.0287V35.1004H1520.31V33.1761V31.2519V29.3235H1518.01V27.3992H1515.72V25.475H1513.42V23.5507H1511.12V21.6223H1508.83H1506.53H1504.23H1501.94H1499.64H1497.34H1495.05H1492.75V23.5507H1490.46V21.6223V19.6981H1488.16V17.7738H1485.86H1483.57V15.8495H1481.27V13.9212H1478.97H1476.68H1474.38H1472.08H1469.79H1467.49V15.8495H1465.2H1462.9V17.7738H1460.6V19.6981H1458.31V21.6223H1456.01V23.5507H1453.71V25.475V27.3992V29.3235H1451.42H1449.12H1446.82H1444.53H1442.23H1439.94H1437.64V31.2519H1435.34H1433.05V33.1761H1430.75V35.1004H1428.46V37.0287V38.953V40.8773V42.8015V44.7299V46.6542H1430.75V48.5784V50.5027H1433.05V52.4311H1435.34V54.3553H1437.64H1439.94H1442.23H1444.53H1446.82H1449.12V52.4311H1451.42V50.5027H1453.71H1456.01V52.4311H1458.31V54.3553H1460.6V56.2796H1462.9H1465.2V58.2039H1467.49H1469.79H1472.08H1474.38H1476.68H1478.97H1481.27H1483.57V56.2796H1485.86H1488.16V54.3553H1490.46V52.4311H1492.75V50.5027H1495.05V48.5784V46.6542H1497.34V44.7299H1499.64V46.6542H1501.94V48.5784H1504.23V50.5027H1506.53H1508.83H1511.12H1513.42H1515.72H1518.01V48.5784H1520.31V46.6542H1522.6V48.5784V50.5027V52.4311V54.3553V56.2796V58.2039V60.1281H1524.9V62.0565V63.9807H1527.2V65.905H1529.49V67.8293H1531.79V69.7576H1534.08V67.8293V65.905H1536.38V63.9807H1538.68V62.0565V60.1281V58.2039V56.2796V54.3553V52.4311V50.5027H1536.38Z" fill="#5E884E"/>
<path d="M1618.72 67.8293V65.905H1616.43V63.9807H1614.13V62.0565V60.1281H1611.83V58.2038V56.2796V54.3553V52.4311V50.5027V48.5784V46.6542H1609.54V48.5784H1607.24V50.5027H1604.95H1602.65H1600.35H1598.05H1595.76H1593.46V48.5784H1591.17V46.6542H1588.87V44.7299H1586.57V46.6542H1584.28V48.5784V50.5027H1581.98V52.4311H1579.69V54.3553H1577.39V56.2796H1575.09H1572.79V58.2038H1570.5H1568.2H1565.91H1563.61H1561.31H1559.02H1556.72H1554.43V56.2796H1552.13H1549.83V54.3553H1547.53V52.4311H1545.24V50.5027H1542.94H1540.65V52.4311H1538.35V54.3553H1536.05H1533.76H1531.46H1529.17H1526.87H1524.57V52.4311H1522.27V50.5027H1519.98V48.5784V46.6542H1517.68V44.7299V42.8015V40.8773V38.953H1515.39V40.8773V42.8015V44.7299H1513.09V46.6542V48.5784V50.5027V52.4311V54.3553V56.2796H1515.39V58.2038V60.1281V62.0565H1517.68V63.9807V65.905H1519.98V67.8293H1522.27V69.7576H1524.57H1526.87V71.6819H1529.17H1531.46H1533.76H1536.05H1538.35H1540.65H1542.94H1545.24H1547.53H1549.83H1552.13H1554.43H1556.72H1559.02H1561.31H1563.61H1565.91H1568.2H1570.5H1572.79H1575.09H1577.39H1579.69H1581.98H1584.28H1586.57H1588.87H1591.17H1593.46H1595.76H1598.05H1600.35H1602.65H1604.95H1607.24H1609.54H1611.83H1614.13H1616.43H1618.72V69.7576H1621.02V67.8293H1618.72Z" fill="#416633"/>
<path d="M1625.61 50.5027V48.5784V46.6542H1623.31V44.7299H1621.02V42.8015H1618.72V40.8773H1616.43H1614.13H1611.83V38.953V37.0287V35.1004H1609.54V33.1761V31.2519V29.3235H1607.24V27.3992H1604.95V25.475H1602.65V23.5507H1600.35V21.6223H1598.05H1595.76H1593.46H1591.17H1588.87H1586.57H1584.28H1581.98V23.5507H1579.69V21.6223V19.6981H1577.39V17.7738H1575.09H1572.79V15.8495H1570.5V13.9212H1568.2H1565.91H1563.61H1561.31H1559.02H1556.72V15.8495H1554.43H1552.13V17.7738H1549.83V19.6981H1547.53V21.6223H1545.24V23.5507H1542.94V25.475V27.3992V29.3235H1540.65H1538.35H1536.05H1533.76H1531.46H1529.17H1526.87V31.2519H1524.57H1522.27V33.1761H1519.98V35.1004H1517.68V37.0287V38.953V40.8773V42.8015V44.7299V46.6542H1519.98V48.5784V50.5027H1522.27V52.4311H1524.57V54.3553H1526.87H1529.17H1531.46H1533.76H1536.05H1538.35V52.4311H1540.65V50.5027H1542.94H1545.24V52.4311H1547.53V54.3553H1549.83V56.2796H1552.13H1554.43V58.2039H1556.72H1559.02H1561.31H1563.61H1565.91H1568.2H1570.5H1572.79V56.2796H1575.09H1577.39V54.3553H1579.69V52.4311H1581.98V50.5027H1584.28V48.5784V46.6542H1586.57V44.7299H1588.87V46.6542H1591.17V48.5784H1593.46V50.5027H1595.76H1598.05H1600.35H1602.65H1604.95H1607.24V48.5784H1609.54V46.6542H1611.83V48.5784V50.5027V52.4311V54.3553V56.2796V58.2039V60.1281H1614.13V62.0565V63.9807H1616.43V65.905H1618.72V67.8293H1621.02V69.7576H1623.31V67.8293V65.905H1625.61V63.9807H1627.91V62.0565V60.1281V58.2039V56.2796V54.3553V52.4311V50.5027H1625.61Z" fill="#5E884E"/>
<path d="M1707.95 67.8293V65.905H1705.66V63.9807H1703.36V62.0565V60.1281H1701.06V58.2038V56.2796V54.3553V52.4311V50.5027V48.5784V46.6542H1698.76V48.5784H1696.47V50.5027H1694.17H1691.88H1689.58H1687.28H1684.99H1682.69V48.5784H1680.4V46.6542H1678.1V44.7299H1675.8V46.6542H1673.5V48.5784V50.5027H1671.21V52.4311H1668.91V54.3553H1666.62V56.2796H1664.32H1662.02V58.2038H1659.73H1657.43H1655.14H1652.84H1650.54H1648.24H1645.95H1643.65V56.2796H1641.36H1639.06V54.3553H1636.76V52.4311H1634.47V50.5027H1632.17H1629.88V52.4311H1627.58V54.3553H1625.28H1622.98H1620.69H1618.39H1616.1H1613.8V52.4311H1611.5V50.5027H1609.21V48.5784V46.6542H1606.91V44.7299V42.8015V40.8773V38.953H1604.62V40.8773V42.8015V44.7299H1602.32V46.6542V48.5784V50.5027V52.4311V54.3553V56.2796H1604.62V58.2038V60.1281V62.0565H1606.91V63.9807V65.905H1609.21V67.8293H1611.5V69.7576H1613.8H1616.1V71.6819H1618.39H1620.69H1622.98H1625.28H1627.58H1629.88H1632.17H1634.47H1636.76H1639.06H1641.36H1643.65H1645.95H1648.24H1650.54H1652.84H1655.14H1657.43H1659.73H1662.02H1664.32H1666.62H1668.91H1671.21H1673.5H1675.8H1678.1H1680.4H1682.69H1684.99H1687.28H1689.58H1691.88H1694.17H1696.47H1698.76H1701.06H1703.36H1705.66H1707.95V69.7576H1710.25V67.8293H1707.95Z" fill="#416633"/>
<path d="M1714.84 50.5027V48.5784V46.6542H1712.54V44.7299H1710.25V42.8015H1707.95V40.8773H1705.66H1703.36H1701.06V38.953V37.0287V35.1004H1698.76V33.1761V31.2519V29.3235H1696.47V27.3992H1694.17V25.475H1691.88V23.5507H1689.58V21.6223H1687.28H1684.99H1682.69H1680.4H1678.1H1675.8H1673.5H1671.21V23.5507H1668.91V21.6223V19.6981H1666.62V17.7738H1664.32H1662.02V15.8495H1659.73V13.9212H1657.43H1655.14H1652.84H1650.54H1648.24H1645.95V15.8495H1643.65H1641.36V17.7738H1639.06V19.6981H1636.76V21.6223H1634.47V23.5507H1632.17V25.475V27.3992V29.3235H1629.88H1627.58H1625.28H1622.98H1620.69H1618.39H1616.1V31.2519H1613.8H1611.5V33.1761H1609.21V35.1004H1606.91V37.0287V38.953V40.8773V42.8015V44.7299V46.6542H1609.21V48.5784V50.5027H1611.5V52.4311H1613.8V54.3553H1616.1H1618.39H1620.69H1622.98H1625.28H1627.58V52.4311H1629.88V50.5027H1632.17H1634.47V52.4311H1636.76V54.3553H1639.06V56.2796H1641.36H1643.65V58.2039H1645.95H1648.24H1650.54H1652.84H1655.14H1657.43H1659.73H1662.02V56.2796H1664.32H1666.62V54.3553H1668.91V52.4311H1671.21V50.5027H1673.5V48.5784V46.6542H1675.8V44.7299H1678.1V46.6542H1680.4V48.5784H1682.69V50.5027H1684.99H1687.28H1689.58H1691.88H1694.17H1696.47V48.5784H1698.76V46.6542H1701.06V48.5784V50.5027V52.4311V54.3553V56.2796V58.2039V60.1281H1703.36V62.0565V63.9807H1705.66V65.905H1707.95V67.8293H1710.25V69.7576H1712.54V67.8293V65.905H1714.84V63.9807H1717.14V62.0565V60.1281V58.2039V56.2796V54.3553V52.4311V50.5027H1714.84Z" fill="#5E884E"/>
<path d="M1797.18 67.8293V65.905H1794.88V63.9807H1792.59V62.0565V60.1281H1790.29V58.2038V56.2796V54.3553V52.4311V50.5027V48.5784V46.6542H1787.99V48.5784H1785.7V50.5027H1783.4H1781.11H1778.81H1776.51H1774.21H1771.92V48.5784H1769.62V46.6542H1767.33V44.7299H1765.03V46.6542H1762.73V48.5784V50.5027H1760.44V52.4311H1758.14V54.3553H1755.85V56.2796H1753.55H1751.25V58.2038H1748.95H1746.66H1744.36H1742.07H1739.77H1737.47H1735.18H1732.88V56.2796H1730.59H1728.29V54.3553H1725.99V52.4311H1723.69V50.5027H1721.4H1719.1V52.4311H1716.81V54.3553H1714.51H1712.21H1709.92H1707.62H1705.33H1703.03V52.4311H1700.74V50.5027H1698.44V48.5784V46.6542H1696.14V44.7299V42.8015V40.8773V38.953H1693.84V40.8773V42.8015V44.7299H1691.55V46.6542V48.5784V50.5027V52.4311V54.3553V56.2796H1693.84V58.2038V60.1281V62.0565H1696.14V63.9807V65.905H1698.44V67.8293H1700.74V69.7576H1703.03H1705.33V71.6819H1707.62H1709.92H1712.21H1714.51H1716.81H1719.1H1721.4H1723.69H1725.99H1728.29H1730.59H1732.88H1735.18H1737.47H1739.77H1742.07H1744.36H1746.66H1748.95H1751.25H1753.55H1755.85H1758.14H1760.44H1762.73H1765.03H1767.33H1769.62H1771.92H1774.21H1776.51H1778.81H1781.11H1783.4H1785.7H1787.99H1790.29H1792.59H1794.88H1797.18V69.7576H1799.48V67.8293H1797.18Z" fill="#416633"/>
<path d="M1804.07 50.5027V48.5784V46.6542H1801.77V44.7299H1799.48V42.8015H1797.18V40.8773H1794.88H1792.59H1790.29V38.953V37.0287V35.1004H1787.99V33.1761V31.2519V29.3235H1785.7V27.3992H1783.4V25.475H1781.11V23.5507H1778.81V21.6223H1776.51H1774.21H1771.92H1769.62H1767.33H1765.03H1762.73H1760.44V23.5507H1758.14V21.6223V19.6981H1755.85V17.7738H1753.55H1751.25V15.8495H1748.95V13.9212H1746.66H1744.36H1742.07H1739.77H1737.47H1735.18V15.8495H1732.88H1730.59V17.7738H1728.29V19.6981H1726V21.6223H1723.69V23.5507H1721.4V25.475V27.3992V29.3235H1719.1H1716.81H1714.51H1712.22H1709.92H1707.62H1705.33V31.2519H1703.03H1700.74V33.1761H1698.44V35.1004H1696.14V37.0287V38.953V40.8773V42.8015V44.7299V46.6542H1698.44V48.5784V50.5027H1700.74V52.4311H1703.03V54.3553H1705.33H1707.62H1709.92H1712.22H1714.51H1716.81V52.4311H1719.1V50.5027H1721.4H1723.69V52.4311H1726V54.3553H1728.29V56.2796H1730.59H1732.88V58.2039H1735.18H1737.47H1739.77H1742.07H1744.36H1746.66H1748.95H1751.25V56.2796H1753.55H1755.85V54.3553H1758.14V52.4311H1760.44V50.5027H1762.73V48.5784V46.6542H1765.03V44.7299H1767.33V46.6542H1769.62V48.5784H1771.92V50.5027H1774.21H1776.51H1778.81H1781.11H1783.4H1785.7V48.5784H1787.99V46.6542H1790.29V48.5784V50.5027V52.4311V54.3553V56.2796V58.2039V60.1281H1792.59V62.0565V63.9807H1794.88V65.905H1797.18V67.8293H1799.48V69.7576H1801.77V67.8293V65.905H1804.07V63.9807H1806.37V62.0565V60.1281V58.2039V56.2796V54.3553V52.4311V50.5027H1804.07Z" fill="#5E884E"/>
<path d="M1886.41 67.8293V65.905H1884.11V63.9807H1881.82V62.0565V60.1281H1879.52V58.2038V56.2796V54.3553V52.4311V50.5027V48.5784V46.6542H1877.22V48.5784H1874.92V50.5027H1872.63H1870.33H1868.04H1865.74H1863.44H1861.15V48.5784H1858.85V46.6542H1856.56V44.7299H1854.26V46.6542H1851.96V48.5784V50.5027H1849.67V52.4311H1847.37V54.3553H1845.07V56.2796H1842.78H1840.48V58.2038H1838.18H1835.89H1833.59H1831.3H1829H1826.71H1824.41H1822.11V56.2796H1819.81H1817.52V54.3553H1815.22V52.4311H1812.93V50.5027H1810.63H1808.33V52.4311H1806.04V54.3553H1803.74H1801.45H1799.15H1796.85H1794.55H1792.26V52.4311H1789.96V50.5027H1787.67V48.5784V46.6542H1785.37V44.7299V42.8015V40.8773V38.953H1783.07V40.8773V42.8015V44.7299H1780.78V46.6542V48.5784V50.5027V52.4311V54.3553V56.2796H1783.07V58.2038V60.1281V62.0565H1785.37V63.9807V65.905H1787.67V67.8293H1789.96V69.7576H1792.26H1794.55V71.6819H1796.85H1799.15H1801.45H1803.74H1806.04H1808.33H1810.63H1812.93H1815.22H1817.52H1819.81H1822.11H1824.41H1826.71H1829H1831.3H1833.59H1835.89H1838.18H1840.48H1842.78H1845.07H1847.37H1849.67H1851.96H1854.26H1856.56H1858.85H1861.15H1863.44H1865.74H1868.04H1870.33H1872.63H1874.92H1877.22H1879.52H1881.82H1884.11H1886.41V69.7576H1888.7V67.8293H1886.41Z" fill="#416633"/>
<path d="M1893.3 50.5027V48.5784V46.6542H1891V44.7299H1888.7V42.8015H1886.41V40.8773H1884.11H1881.82H1879.52V38.953V37.0287V35.1004H1877.22V33.1761V31.2519V29.3235H1874.92V27.3992H1872.63V25.475H1870.33V23.5507H1868.04V21.6223H1865.74H1863.44H1861.15H1858.85H1856.56H1854.26H1851.96H1849.67V23.5507H1847.37V21.6223V19.6981H1845.07V17.7738H1842.78H1840.48V15.8495H1838.19V13.9212H1835.89H1833.59H1831.3H1829H1826.71H1824.41V15.8495H1822.11H1819.81V17.7738H1817.52V19.6981H1815.22V21.6223H1812.93V23.5507H1810.63V25.475V27.3992V29.3235H1808.33H1806.04H1803.74H1801.45H1799.15H1796.85H1794.55V31.2519H1792.26H1789.96V33.1761H1787.67V35.1004H1785.37V37.0287V38.953V40.8773V42.8015V44.7299V46.6542H1787.67V48.5784V50.5027H1789.96V52.4311H1792.26V54.3553H1794.55H1796.85H1799.15H1801.45H1803.74H1806.04V52.4311H1808.33V50.5027H1810.63H1812.93V52.4311H1815.22V54.3553H1817.52V56.2796H1819.81H1822.11V58.2039H1824.41H1826.71H1829H1831.3H1833.59H1835.89H1838.19H1840.48V56.2796H1842.78H1845.07V54.3553H1847.37V52.4311H1849.67V50.5027H1851.96V48.5784V46.6542H1854.26V44.7299H1856.56V46.6542H1858.85V48.5784H1861.15V50.5027H1863.44H1865.74H1868.04H1870.33H1872.63H1874.92V48.5784H1877.22V46.6542H1879.52V48.5784V50.5027V52.4311V54.3553V56.2796V58.2039V60.1281H1881.82V62.0565V63.9807H1884.11V65.905H1886.41V67.8293H1888.7V69.7576H1891V67.8293V65.905H1893.3V63.9807H1895.59V62.0565V60.1281V58.2039V56.2796V54.3553V52.4311V50.5027H1893.3Z" fill="#5E884E"/>
<path d="M1975.64 67.8293V65.905H1973.34V63.9807H1971.04V62.0565V60.1281H1968.75V58.2038V56.2796V54.3553V52.4311V50.5027V48.5784V46.6542H1966.45V48.5784H1964.16V50.5027H1961.86H1959.56H1957.27H1954.97H1952.68H1950.38V48.5784H1948.08V46.6542H1945.79V44.7299H1943.49V46.6542H1941.19V48.5784V50.5027H1938.9V52.4311H1936.6V54.3553H1934.3V56.2796H1932.01H1929.71V58.2038H1927.42H1925.12H1922.82H1920.53H1918.23H1915.93H1913.64H1911.34V56.2796H1909.04H1906.75V54.3553H1904.45V52.4311H1902.16V50.5027H1899.86H1897.56V52.4311H1895.27V54.3553H1892.97H1890.67H1888.38H1886.08H1883.78H1881.49V52.4311H1879.19V50.5027H1876.9V48.5784V46.6542H1874.6V44.7299V42.8015V40.8773V38.953H1872.3V40.8773V42.8015V44.7299H1870.01V46.6542V48.5784V50.5027V52.4311V54.3553V56.2796H1872.3V58.2038V60.1281V62.0565H1874.6V63.9807V65.905H1876.9V67.8293H1879.19V69.7576H1881.49H1883.78V71.6819H1886.08H1888.38H1890.67H1892.97H1895.27H1897.56H1899.86H1902.16H1904.45H1906.75H1909.04H1911.34H1913.64H1915.93H1918.23H1920.53H1922.82H1925.12H1927.42H1929.71H1932.01H1934.3H1936.6H1938.9H1941.19H1943.49H1945.79H1948.08H1950.38H1952.68H1954.97H1957.27H1959.56H1961.86H1964.16H1966.45H1968.75H1971.04H1973.34H1975.64V69.7576H1977.94V67.8293H1975.64Z" fill="#416633"/>
<path d="M1982.53 50.5027V48.5784V46.6542H1980.23V44.7299H1977.93V42.8015H1975.64V40.8773H1973.34H1971.04H1968.75V38.953V37.0287V35.1004H1966.45V33.1761V31.2519V29.3235H1964.15V27.3992H1961.86V25.475H1959.56V23.5507H1957.27V21.6223H1954.97H1952.68H1950.38H1948.08H1945.79H1943.49H1941.19H1938.9V23.5507H1936.6V21.6223V19.6981H1934.3V17.7738H1932.01H1929.71V15.8495H1927.42V13.9212H1925.12H1922.82H1920.53H1918.23H1915.93H1913.64V15.8495H1911.34H1909.04V17.7738H1906.75V19.6981H1904.45V21.6223H1902.16V23.5507H1899.86V25.475V27.3992V29.3235H1897.56H1895.27H1892.97H1890.67H1888.38H1886.08H1883.78V31.2519H1881.49H1879.19V33.1761H1876.9V35.1004H1874.6V37.0287V38.953V40.8773V42.8015V44.7299V46.6542H1876.9V48.5784V50.5027H1879.19V52.4311H1881.49V54.3553H1883.78H1886.08H1888.38H1890.67H1892.97H1895.27V52.4311H1897.56V50.5027H1899.86H1902.16V52.4311H1904.45V54.3553H1906.75V56.2796H1909.04H1911.34V58.2039H1913.64H1915.93H1918.23H1920.53H1922.82H1925.12H1927.42H1929.71V56.2796H1932.01H1934.3V54.3553H1936.6V52.4311H1938.9V50.5027H1941.19V48.5784V46.6542H1943.49V44.7299H1945.79V46.6542H1948.08V48.5784H1950.38V50.5027H1952.68H1954.97H1957.27H1959.56H1961.86H1964.15V48.5784H1966.45V46.6542H1968.75V48.5784V50.5027V52.4311V54.3553V56.2796V58.2039V60.1281H1971.04V62.0565V63.9807H1973.34V65.905H1975.64V67.8293H1977.93V69.7576H1980.23V67.8293V65.905H1982.53V63.9807H1984.82V62.0565V60.1281V58.2039V56.2796V54.3553V52.4311V50.5027H1982.53Z" fill="#5E884E"/>
<path d="M2064.87 67.8293V65.905H2062.57V63.9807H2060.27V62.0565V60.1281H2057.98V58.2038V56.2796V54.3553V52.4311V50.5027V48.5784V46.6542H2055.68V48.5784H2053.39V50.5027H2051.09H2048.79H2046.5H2044.2H2041.9H2039.61V48.5784H2037.31V46.6542H2035.01V44.7299H2032.72V46.6542H2030.42V48.5784V50.5027H2028.13V52.4311H2025.83V54.3553H2023.53V56.2796H2021.24H2018.94V58.2038H2016.65H2014.35H2012.05H2009.75H2007.46H2005.16H2002.87H2000.57V56.2796H1998.27H1995.98V54.3553H1993.68V52.4311H1991.38V50.5027H1989.09H1986.79V52.4311H1984.49V54.3553H1982.2H1979.9H1977.61H1975.31H1973.01H1970.72V52.4311H1968.42V50.5027H1966.12V48.5784V46.6542H1963.83V44.7299V42.8015V40.8773V38.953H1961.53V40.8773V42.8015V44.7299H1959.23V46.6542V48.5784V50.5027V52.4311V54.3553V56.2796H1961.53V58.2038V60.1281V62.0565H1963.83V63.9807V65.905H1966.12V67.8293H1968.42V69.7576H1970.72H1973.01V71.6819H1975.31H1977.61H1979.9H1982.2H1984.49H1986.79H1989.09H1991.38H1993.68H1995.98H1998.27H2000.57H2002.87H2005.16H2007.46H2009.75H2012.05H2014.35H2016.65H2018.94H2021.24H2023.53H2025.83H2028.13H2030.42H2032.72H2035.01H2037.31H2039.61H2041.9H2044.2H2046.5H2048.79H2051.09H2053.39H2055.68H2057.98H2060.27H2062.57H2064.87V69.7576H2067.16V67.8293H2064.87Z" fill="#416633"/>
<path d="M2071.76 50.5027V48.5784V46.6542H2069.46V44.7299H2067.16V42.8015H2064.87V40.8773H2062.57H2060.27H2057.98V38.953V37.0287V35.1004H2055.68V33.1761V31.2519V29.3235H2053.39V27.3992H2051.09V25.475H2048.79V23.5507H2046.5V21.6223H2044.2H2041.9H2039.61H2037.31H2035.01H2032.72H2030.42H2028.13V23.5507H2025.83V21.6223V19.6981H2023.53V17.7738H2021.24H2018.94V15.8495H2016.65V13.9212H2014.35H2012.05H2009.75H2007.46H2005.16H2002.87V15.8495H2000.57H1998.27V17.7738H1995.98V19.6981H1993.68V21.6223H1991.38V23.5507H1989.09V25.475V27.3992V29.3235H1986.79H1984.49H1982.2H1979.9H1977.61H1975.31H1973.01V31.2519H1970.72H1968.42V33.1761H1966.12V35.1004H1963.83V37.0287V38.953V40.8773V42.8015V44.7299V46.6542H1966.12V48.5784V50.5027H1968.42V52.4311H1970.72V54.3553H1973.01H1975.31H1977.61H1979.9H1982.2H1984.49V52.4311H1986.79V50.5027H1989.09H1991.38V52.4311H1993.68V54.3553H1995.98V56.2796H1998.27H2000.57V58.2039H2002.87H2005.16H2007.46H2009.75H2012.05H2014.35H2016.65H2018.94V56.2796H2021.24H2023.53V54.3553H2025.83V52.4311H2028.13V50.5027H2030.42V48.5784V46.6542H2032.72V44.7299H2035.01V46.6542H2037.31V48.5784H2039.61V50.5027H2041.9H2044.2H2046.5H2048.79H2051.09H2053.39V48.5784H2055.68V46.6542H2057.98V48.5784V50.5027V52.4311V54.3553V56.2796V58.2039V60.1281H2060.27V62.0565V63.9807H2062.57V65.905H2064.87V67.8293H2067.16V69.7576H2069.46V67.8293V65.905H2071.76V63.9807H2074.05V62.0565V60.1281V58.2039V56.2796V54.3553V52.4311V50.5027H2071.76Z" fill="#5E884E"/>
<path d="M2154.1 67.8293V65.905H2151.8V63.9807H2149.5V62.0565V60.1281H2147.21V58.2038V56.2796V54.3553V52.4311V50.5027V48.5784V46.6542H2144.91V48.5784H2142.62V50.5027H2140.32H2138.02H2135.72H2133.43H2131.13H2128.84V48.5784H2126.54V46.6542H2124.24V44.7299H2121.95V46.6542H2119.65V48.5784V50.5027H2117.35V52.4311H2115.06V54.3553H2112.76V56.2796H2110.46H2108.17V58.2038H2105.87H2103.58H2101.28H2098.98H2096.69H2094.39H2092.1H2089.8V56.2796H2087.5H2085.2V54.3553H2082.91V52.4311H2080.61V50.5027H2078.32H2076.02V52.4311H2073.72V54.3553H2071.43H2069.13H2066.84H2064.54H2062.24H2059.94V52.4311H2057.65V50.5027H2055.35V48.5784V46.6542H2053.06V44.7299V42.8015V40.8773V38.953H2050.76V40.8773V42.8015V44.7299H2048.46V46.6542V48.5784V50.5027V52.4311V54.3553V56.2796H2050.76V58.2038V60.1281V62.0565H2053.06V63.9807V65.905H2055.35V67.8293H2057.65V69.7576H2059.94H2062.24V71.6819H2064.54H2066.84H2069.13H2071.43H2073.72H2076.02H2078.32H2080.61H2082.91H2085.2H2087.5H2089.8H2092.1H2094.39H2096.69H2098.98H2101.28H2103.58H2105.87H2108.17H2110.46H2112.76H2115.06H2117.35H2119.65H2121.95H2124.24H2126.54H2128.84H2131.13H2133.43H2135.72H2138.02H2140.32H2142.62H2144.91H2147.21H2149.5H2151.8H2154.1V69.7576H2156.39V67.8293H2154.1Z" fill="#416633"/>
<path d="M2160.98 50.5027V48.5784V46.6542H2158.69V44.7299H2156.39V42.8015H2154.1V40.8773H2151.8H2149.5H2147.21V38.953V37.0287V35.1004H2144.91V33.1761V31.2519V29.3235H2142.62V27.3992H2140.32V25.475H2138.02V23.5507H2135.72V21.6223H2133.43H2131.13H2128.84H2126.54H2124.24H2121.95H2119.65H2117.35V23.5507H2115.06V21.6223V19.6981H2112.76V17.7738H2110.46H2108.17V15.8495H2105.87V13.9212H2103.58H2101.28H2098.98H2096.69H2094.39H2092.1V15.8495H2089.8H2087.5V17.7738H2085.2V19.6981H2082.91V21.6223H2080.61V23.5507H2078.32V25.475V27.3992V29.3235H2076.02H2073.72H2071.43H2069.13H2066.84H2064.54H2062.24V31.2519H2059.94H2057.65V33.1761H2055.35V35.1004H2053.06V37.0287V38.953V40.8773V42.8015V44.7299V46.6542H2055.35V48.5784V50.5027H2057.65V52.4311H2059.94V54.3553H2062.24H2064.54H2066.84H2069.13H2071.43H2073.72V52.4311H2076.02V50.5027H2078.32H2080.61V52.4311H2082.91V54.3553H2085.2V56.2796H2087.5H2089.8V58.2039H2092.1H2094.39H2096.69H2098.98H2101.28H2103.58H2105.87H2108.17V56.2796H2110.46H2112.76V54.3553H2115.06V52.4311H2117.35V50.5027H2119.65V48.5784V46.6542H2121.95V44.7299H2124.24V46.6542H2126.54V48.5784H2128.84V50.5027H2131.13H2133.43H2135.72H2138.02H2140.32H2142.62V48.5784H2144.91V46.6542H2147.21V48.5784V50.5027V52.4311V54.3553V56.2796V58.2039V60.1281H2149.5V62.0565V63.9807H2151.8V65.905H2154.1V67.8293H2156.39V69.7576H2158.69V67.8293V65.905H2160.98V63.9807H2163.28V62.0565V60.1281V58.2039V56.2796V54.3553V52.4311V50.5027H2160.98Z" fill="#5E884E"/>
<path d="M2219 71.6819V50.5027H2218.07V48.5784H2215.77V46.6542H2213.47V44.7299H2211.17V46.6542H2208.88V50.5027H2206.58V52.4311H2204.29V54.3553H2201.99V56.2796H2197.4V58.2038H2179.03V56.2796H2174.43V54.3553H2172.14V52.4311H2169.84V50.5027H2165.25V52.4311H2162.95V54.3553H2149.17V52.4311H2146.88V50.5027H2144.58V46.6542H2142.29V38.953H2139.99V44.7299H2137.69V56.2796H2139.99V62.0565H2142.29V65.905H2144.58V67.8293H2146.88V69.7576H2151.47V71.6819H2219Z" fill="#416633"/>
<path d="M2219 50.5027V21.6223H2206.58V23.5507H2204.29V19.6981H2201.99V17.7738H2197.4V15.8495H2195.1V13.9212H2181.32V15.8495H2176.73V17.7738H2174.43V19.6981H2172.14V21.6223H2169.84V23.5507H2167.55V29.3235H2151.47V31.2519H2146.88V33.1761H2144.58V35.1004H2142.29V46.6542H2144.58V50.5027H2146.88V52.4311H2149.17V54.3553H2162.95V52.4311H2165.25V50.5027H2169.84V52.4311H2172.14V54.3553H2174.43V56.2796H2179.03V58.2038H2197.4V56.2796H2201.99V54.3553H2204.29V52.4311H2206.58V50.5027H2208.88V46.6542H2211.17V44.7299H2213.47V46.6542H2215.77V48.5784H2218.07V50.5027H2219Z" fill="#5E884E"/>
<path d="M2203.52 50.5027V48.5784V46.6542H2201.22V44.7299H2198.93V42.8015H2196.63V40.8773H2194.34H2192.04H2189.74V38.953V37.0287V35.1004H2187.44V33.1761V31.2519V29.3235H2185.15V27.3992H2182.85V25.475H2180.56V23.5507H2178.26V21.6223H2175.96H2173.67H2171.37H2169.08H2166.78H2164.48H2162.18H2159.89V23.5507H2157.59V21.6223V19.6981H2155.3V17.7738H2153H2150.71V15.8495H2148.41V13.9212H2146.11H2143.82H2141.52H2139.22H2136.93H2134.63V15.8495H2132.33H2130.04V17.7738H2127.74V19.6981H2125.45V21.6223H2123.15V23.5507H2120.85V25.475V27.3992V29.3235H2118.56H2116.26H2113.96H2111.67H2109.37H2107.07H2104.78V31.2519H2102.48H2100.19V33.1761H2097.89V35.1004H2095.59V37.0287V38.953V40.8773V42.8015V44.7299V46.6542H2097.89V48.5784V50.5027H2100.19V52.4311H2102.48V54.3553H2104.78H2107.07H2109.37H2111.67H2113.96H2116.26V52.4311H2118.56V50.5027H2120.85H2123.15V52.4311H2125.45V54.3553H2127.74V56.2796H2130.04H2132.33V58.2039H2134.63H2136.93H2139.22H2141.52H2143.82H2146.11H2148.41H2150.71V56.2796H2153H2155.3V54.3553H2157.59V52.4311H2159.89V50.5027H2162.18V48.5784V46.6542H2164.48V44.7299H2166.78V46.6542H2169.08V48.5784H2171.37V50.5027H2173.67H2175.96H2178.26H2180.56H2182.85H2185.15V48.5784H2187.44V46.6542H2189.74V48.5784V50.5027V52.4311V54.3553V56.2796V58.2039V60.1281H2192.04V62.0565V63.9807H2194.34V65.905H2196.63V67.8293H2198.93V69.7576H2201.22V67.8293V65.905H2203.52V63.9807H2205.82V62.0565V60.1281V58.2039V56.2796V54.3553V52.4311V50.5027H2203.52Z" fill="#5E884E"/>
<path d="M2021.63 45.1607V43.2365V41.3122H2019.34V39.3838H2017.04V37.4596H2014.74V35.5353H2012.45H2010.15H2007.86V33.611V31.6827V29.7584H2005.56V27.8341V25.9099V23.9815H2003.26V22.0572H2000.96V20.133H1998.67V18.2087H1996.37V16.2804H1994.08H1991.78H1989.48H1987.19H1984.89H1982.6H1980.3H1978V18.2087H1975.7V16.2804V14.3561H1973.41V12.4318H1971.11H1968.82V10.5076H1966.52V8.57919H1964.23H1961.93H1959.63H1957.34H1955.04H1952.74V10.5076H1950.45H1948.15V12.4318H1945.85V14.3561H1943.56V16.2804H1941.26V18.2087H1938.97V20.133V22.0572V23.9815H1936.67H1934.37H1932.08H1929.78H1927.48H1925.19H1922.89V25.9099H1920.59H1918.3V27.8341H1916V29.7584H1913.71V31.6827V33.611V35.5353V37.4596V39.3838V41.3122H1916V43.2365V45.1607H1918.3V47.085H1920.59V49.0133H1922.89H1925.19H1927.48H1929.78H1932.08H1934.37V47.085H1936.67V45.1607H1938.97H1941.26V47.085H1943.56V49.0133H1945.85V50.9376H1948.15H1950.45V52.8619H1952.74H1955.04H1957.34H1959.63H1961.93H1964.23H1966.52H1968.82V50.9376H1971.11H1973.41V49.0133H1975.7V47.085H1978V45.1607H1980.3V43.2365V41.3122H1982.6V39.3838H1984.89V41.3122H1987.19V43.2365H1989.48V45.1607H1991.78H1994.08H1996.37H1998.67H2000.96H2003.26V43.2365H2005.56V41.3122H2007.86V43.2365V45.1607V47.085V49.0133V50.9376V52.8619V54.7861H2010.15V56.7104V58.6388H2012.45V60.563H2014.74V62.4873H2017.04V64.4116H2019.34V62.4873V60.563H2021.63V58.6388H2023.93V56.7104V54.7861V52.8619V50.9376V49.0133V47.085V45.1607H2021.63Z" fill="#5E884E"/>
<path d="M1667.64 43.6098V41.6855V39.7613H1665.35V37.837H1663.05V35.9086H1660.75V33.9844H1658.46H1656.16H1653.87V32.0601V30.1359V28.2075H1651.57V26.2832V24.359V22.4347H1649.27V20.5063H1646.98V18.5821H1644.68V16.6578H1642.38V14.7335H1640.09H1637.79H1635.49H1633.2H1630.9H1628.61H1626.31H1624.01V16.6578H1621.72V14.7335V12.8052H1619.42V10.8809H1617.13H1614.83V8.95664H1612.53V7.03238H1610.23H1607.94H1605.64H1603.35H1601.05H1598.75V8.95664H1596.46H1594.16V10.8809H1591.87V12.8052H1589.57V14.7335H1587.27V16.6578H1584.97V18.5821V20.5063V22.4347H1582.68H1580.38H1578.09H1575.79H1573.49H1571.2H1568.9V24.359H1566.6H1564.31V26.2832H1562.01V28.2075H1559.71V30.1359V32.0601V33.9844V35.9086V37.837V39.7613H1562.01V41.6855V43.6098H1564.31V45.5382H1566.6V47.4624H1568.9H1571.2H1573.49H1575.79H1578.09H1580.38V45.5382H1582.68V43.6098H1584.97H1587.27V45.5382H1589.57V47.4624H1591.87V49.3867H1594.16H1596.46V51.311H1598.75H1601.05H1603.35H1605.64H1607.94H1610.23H1612.53H1614.83V49.3867H1617.13H1619.42V47.4624H1621.72V45.5382H1624.01V43.6098H1626.31V41.6855V39.7613H1628.61V37.837H1630.9V39.7613H1633.2V41.6855H1635.49V43.6098H1637.79H1640.09H1642.38H1644.68H1646.98H1649.27V41.6855H1651.57V39.7613H1653.87V41.6855V43.6098V45.5382V47.4624V49.3867V51.311V53.2393H1656.16V55.1636V57.0878H1658.46V59.0121H1660.75V60.9405H1663.05V62.8647H1665.35V60.9405V59.0121H1667.64V57.0878H1669.94V55.1636V53.2393V51.311V49.3867V47.4624V45.5382V43.6098H1667.64Z" fill="#5E884E"/>
<path d="M1483.95 36.5815V34.6573V32.7289H1481.65V30.8046H1479.36V28.8804H1477.06V26.952H1474.77H1472.47H1470.17V25.0277V23.1035V21.1792H1467.87V19.2508V17.3266V15.4023H1465.58V13.4781H1463.28V11.5497H1460.99V9.62542H1458.69V7.70116H1456.39H1454.1H1451.8H1449.5H1447.21H1444.91H1442.61H1440.32V9.62542H1438.02V7.70116V5.77689H1435.73V3.84853H1433.43H1431.14V1.92426H1428.84V0H1426.54H1424.25H1421.95H1419.65H1417.36H1415.06V1.92426H1412.76H1410.47V3.84853H1408.17V5.77689H1405.88V7.70116H1403.58V9.62542H1401.28V11.5497V13.4781V15.4023H1398.99H1396.69H1394.39H1392.1H1389.8H1387.5H1385.21V17.3266H1382.91H1380.62V19.2508H1378.32V21.1792H1376.02V23.1035V25.0277V26.952V28.8804V30.8046V32.7289H1378.32V34.6573V36.5815H1380.62V38.5058H1382.91V40.43H1385.21H1387.5H1389.8H1392.1H1394.39H1396.69V38.5058H1398.99V36.5815H1401.28H1403.58V38.5058H1405.88V40.43H1408.17V42.3584H1410.47H1412.76V44.2827H1415.06H1417.36H1419.65H1421.95H1424.25H1426.54H1428.84H1431.14V42.3584H1433.43H1435.73V40.43H1438.02V38.5058H1440.32V36.5815H1442.61V34.6573V32.7289H1444.91V30.8046H1447.21V32.7289H1449.5V34.6573H1451.8V36.5815H1454.1H1456.39H1458.69H1460.99H1463.28H1465.58V34.6573H1467.87V32.7289H1470.17V34.6573V36.5815V38.5058V40.43V42.3584V44.2827V46.2069H1472.47V48.1312V50.0555H1474.77V51.9838H1477.06V53.9081H1479.36V55.8324H1481.65V53.9081V51.9838H1483.95V50.0555H1486.25V48.1312V46.2069V44.2827V42.3584V40.43V38.5058V36.5815H1483.95Z" fill="#5E884E"/>
<path d="M1230.88 40.0977V38.1693V36.2451H1228.58V34.3208H1226.29V32.3966H1223.99V30.4682H1221.7H1219.4H1217.1V28.5439V26.6197V24.6954H1214.81V22.767V20.8428V18.9185H1212.51V16.9942H1210.21V15.0659H1207.92V13.1416H1205.62V11.2173H1203.32H1201.03H1198.73H1196.44H1194.14H1191.84H1189.55H1187.25V13.1416H1184.95V11.2173V9.29308H1182.66V7.36472H1180.36H1178.06V5.44045H1175.77V3.51619H1173.47H1171.18H1168.88H1166.58H1164.29H1161.99V5.44045H1159.69H1157.4V7.36472H1155.1V9.29308H1152.8V11.2173H1150.51V13.1416H1148.21V15.0659V16.9942V18.9185H1145.92H1143.62H1141.32H1139.03H1136.73H1134.43H1132.14V20.8428H1129.84H1127.54V22.767H1125.25V24.6954H1122.95V26.6197V28.5439V30.4682V32.3966V34.3208V36.2451H1125.25V38.1693V40.0977H1127.54V42.022H1129.84V43.9462H1132.14H1134.43H1136.73H1139.03H1141.32H1143.62V42.022H1145.92V40.0977H1148.21H1150.51V42.022H1152.8V43.9462H1155.1V45.8705H1157.4H1159.69V47.7948H1161.99H1164.29H1166.58H1168.88H1171.18H1173.47H1175.77H1178.06V45.8705H1180.36H1182.66V43.9462H1184.95V42.022H1187.25V40.0977H1189.55V38.1693V36.2451H1191.84V34.3208H1194.14V36.2451H1196.44V38.1693H1198.73V40.0977H1201.03H1203.32H1205.62H1207.92H1210.21H1212.51V38.1693H1214.81V36.2451H1217.1V38.1693V40.0977V42.022V43.9462V45.8705V47.7948V49.7231H1219.4V51.6474V53.5717H1221.7V55.5H1223.99V57.4243H1226.29V59.3486H1228.58V57.4243V55.5H1230.88V53.5717H1233.18V51.6474V49.7231V47.7948V45.8705V43.9462V42.022V40.0977H1230.88Z" fill="#5E884E"/>
<path d="M1116 60.6082H795.395V135.917H1116V60.6082Z" fill="#5E884E"/>
<path d="M1116 73.4913H1097.32V88.9387H1047.73V99.5611H975.748V126.595H943.761V88.9387H902.17V102.458H847.787V121.77H795.395V135.917H1116V73.4913Z" fill="#416633"/>
<path d="M1116 135.917H795.395V222.812H1116V135.917Z" fill="#262626"/>
<path d="M1116 202.876V161.355H1114.91V175.838H1074.92V159.427H1038.13V145.908H1023.74V156.53H1010.94V171.977H983.747V156.53H948.559V175.838H921.365V150.737H870.183V161.355H826.995V178.735H795.395V196.115H833.394V222.812H854.185V187.425H884.576V204.805H906.972V193.218H956.557V208.67H980.55V194.187H1026.93V211.566H1062.12V199.012H1092.51V202.876H1116Z" fill="#353535"/>
<path d="M1044.13 173.089H1022.93V185.64H1044.13V173.089Z" fill="#262626"/>
<path d="M1091.72 182.904H1070.52V195.454H1091.72V182.904Z" fill="#262626"/>
<path d="M1001.74 185.64H980.55V198.191H1001.74V185.64Z" fill="#262626"/>
<path d="M928.166 186.547H906.972V199.098H928.166V186.547Z" fill="#262626"/>
<path d="M890.842 160.534H869.648V173.085H890.842V160.534Z" fill="#262626"/>
<path d="M835.393 178.399H814.199V190.949H835.393V178.399Z" fill="#262626"/>
<path d="M1041.33 124.33H1015.74V136.885H1041.33V124.33Z" fill="#262626"/>
<path d="M918.168 129.64H892.574V142.19H918.168V129.64Z" fill="#262626"/>
<path d="M1015.74 130.604H990.145V143.155H1015.74V130.604Z" fill="#416633"/>
<path d="M1091.72 129.976H1066.12V142.527H1091.72V129.976Z" fill="#416633"/>
<path d="M962.153 133.262H936.56V145.817H962.153V133.262Z" fill="#416633"/>
<path d="M862.184 129.64H836.591V142.19H862.184V129.64Z" fill="#416633"/>
<path d="M815.487 60.6082H0V135.917H815.487V60.6082Z" fill="#5E884E"/>
<path d="M791.943 80.2488V91.8354H775.949V103.422H739.16V113.08H703.971V96.6645H687.974V91.8354H655.986V86.0421H627.192V100.525H612.799V121.77H596.801V100.525H571.208V81.217H553.614V108.251H496.033V82.1812H443.247V101.494H414.456V111.148H377.667V98.597H364.871V104.39H328.082V73.4913H294.494V88.9387H244.908V99.5611H172.926V126.595H140.939V88.9387H99.3523V102.458H44.9649V121.77H0V135.917H815.487V80.2488H791.943Z" fill="#416633"/>
<path d="M815.487 135.917H0V222.812H815.487V135.917Z" fill="#262626"/>
<path d="M798.341 171.977V144.943H753.553V160.391H703.971V135.917H686.377V156.53H663.981V164.252H635.191V156.53H592.003V168.117H550.417V135.917H542.418V154.598H492.832V174.874H432.051V159.427H392.064V150.737H379.268V180.667H334.48V161.355H312.088V175.838H272.098V159.427H235.309V145.908H220.916V156.53H208.119V171.977H180.925V156.53H145.737V175.838H118.547V150.737H67.3609V161.355H24.1736V178.735H0V196.115H30.5718V222.812H51.3673V187.425H81.754V204.805H104.15V193.218H153.736V208.67H177.728V194.187H224.113V211.566H259.301V199.012H289.696V202.876H334.48V193.218H412.856V187.425H510.426V208.67H524.824V197.083H603.199V222.812H633.59V180.667H665.582V200.944H689.574V186.461H745.558V215.427H783.948V202.876H788.745V180.667H815.487V171.977H798.341Z" fill="#353535"/>
<path d="M785.186 152.329H793.095V152.107C790.457 152.156 787.824 152.23 785.186 152.329Z" fill="white"/>
<path d="M737.559 124.33H711.966V136.885H737.559V124.33Z" fill="#262626"/>
<path d="M483.237 124.33H457.644V136.885H483.237V124.33Z" fill="#262626"/>
<path d="M348.877 124.33H323.284V136.885H348.877V124.33Z" fill="#262626"/>
<path d="M241.308 173.089H220.113V185.64H241.308V173.089Z" fill="#262626"/>
<path d="M288.894 182.904H267.699V195.454H288.894V182.904Z" fill="#262626"/>
<path d="M418.188 165.524H396.994V178.074H418.188V165.524Z" fill="#262626"/>
<path d="M397.261 184.032H376.066V196.583H397.261V184.032Z" fill="#262626"/>
<path d="M476.439 169.549H455.245V182.099H476.439V169.549Z" fill="#262626"/>
<path d="M540.418 173.089H519.224V185.64H540.418V173.089Z" fill="#262626"/>
<path d="M576.409 179.363H555.214V191.914H576.409V179.363Z" fill="#262626"/>
<path d="M626.394 163.271H605.199V175.822H626.394V163.271Z" fill="#262626"/>
<path d="M681.378 167.616H660.183V180.167H681.378V167.616Z" fill="#262626"/>
<path d="M766.687 163.271H745.492V175.822H766.687V163.271Z" fill="#262626"/>
<path d="M782.948 185.64H761.753V198.191H782.948V185.64Z" fill="#262626"/>
<path d="M733.161 179.363H711.966V191.914H733.161V179.363Z" fill="#262626"/>
<path d="M641.425 199.799H620.23V212.35H641.425V199.799Z" fill="#262626"/>
<path d="M198.923 185.64H177.728V198.191H198.923V185.64Z" fill="#262626"/>
<path d="M125.344 186.547H104.15V199.098H125.344V186.547Z" fill="#262626"/>
<path d="M88.0207 160.534H66.8262V173.085H88.0207V160.534Z" fill="#262626"/>
<path d="M32.5715 178.399H11.377V190.949H32.5715V178.399Z" fill="#262626"/>
<path d="M238.51 124.33H212.917V136.885H238.51V124.33Z" fill="#262626"/>
<path d="M560.012 129.976H534.419V142.527H560.012V129.976Z" fill="#262626"/>
<path d="M643.622 129.64H618.029V142.19H643.622V129.64Z" fill="#262626"/>
<path d="M115.346 129.64H89.7529V142.19H115.346V129.64Z" fill="#262626"/>
<path d="M212.917 130.604H187.324V143.155H212.917V130.604Z" fill="#416633"/>
<path d="M288.894 129.976H263.301V142.527H288.894V129.976Z" fill="#416633"/>
<path d="M388.863 133.262H363.27V145.817H388.863V133.262Z" fill="#416633"/>
<path d="M440.848 129.976H415.255V142.527H440.848V129.976Z" fill="#416633"/>
<path d="M534.423 133.262H508.83V145.817H534.423V133.262Z" fill="#416633"/>
<path d="M605.199 133.262H579.606V145.817H605.199V133.262Z" fill="#416633"/>
<path d="M683.575 133.262H657.982V145.817H683.575V133.262Z" fill="#416633"/>
<path d="M777.949 125.779H752.355V138.33H777.949V125.779Z" fill="#416633"/>
<path d="M159.331 133.262H133.738V145.817H159.331V133.262Z" fill="#416633"/>
<path d="M59.3622 129.64H33.769V142.19H59.3622V129.64Z" fill="#416633"/>
<path d="M69.5787 67.8293V65.905H67.2828V63.9807H64.9868V60.1281H62.6867V46.6542H60.3907V48.5784H58.0947V50.5027H44.3189V48.5784H42.0229V46.6542H39.7269V44.7299H37.4269V46.6542H35.1309V50.5027H32.8349V52.4311H30.5389V54.3553H28.243V56.2796H23.651V58.2039H5.2791V56.2796H0.687146V54.3553H0V71.6819H69.5787V69.7576H71.8747V67.8293H69.5787Z" fill="#416633"/>
<path d="M76.4667 50.5027V46.6542H74.1707V44.7299H71.8747V42.8015H69.5787V40.8773H62.6867V35.1004H60.3907V29.3235H58.0947V27.3992H55.7988V25.475H53.5028V23.5507H51.2068V21.6223H32.8349V23.5507H30.5389V19.6981H28.243V17.7738H23.651V15.8495H21.355V13.9212H7.57507V15.8495H2.98312V17.7738H0.687146V19.6981H0V54.3553H0.687146V56.2796H5.2791V58.2039H23.651V56.2796H28.243V54.3553H30.5389V52.4311H32.8349V50.5027H35.1309V46.6542H37.4269V44.7299H39.7269V46.6542H42.0229V48.5784H44.3189V50.5027H58.0947V48.5784H60.3907V46.6542H62.6867V60.1281H64.9868V63.9807H67.2828V65.905H69.5787V67.8293H71.8747V69.7576H74.1707V65.905H76.4667V63.9807H78.7626V50.5027H76.4667Z" fill="#5E884E"/>
<path d="M158.805 67.8293V65.905H156.509V63.9807H154.213V62.0565V60.1281H151.917V58.2038V56.2796V54.3553V52.4311V50.5027V48.5784V46.6542H149.621V48.5784H147.325V50.5027H145.029H142.733H140.437H138.141H135.845H133.545V48.5784H131.249V46.6542H128.953V44.7299H126.657V46.6542H124.361V48.5784V50.5027H122.065V52.4311H119.769V54.3553H117.473V56.2796H115.177H112.882V58.2038H110.586H108.285H105.989H103.694H101.398H99.1016H96.8056H94.5096V56.2796H92.2136H89.9177V54.3553H87.6217V52.4311H85.3257V50.5027H83.0297H80.7296V52.4311H78.4337V54.3553H76.1377H73.8417H71.5457H69.2498H66.9538H64.6578V52.4311H62.3618V50.5027H60.0618V48.5784V46.6542H57.7658V44.7299V42.8015V40.8773V38.953H55.4698V40.8773V42.8015V44.7299H53.1738V46.6542V48.5784V50.5027V52.4311V54.3553V56.2796H55.4698V58.2038V60.1281V62.0565H57.7658V63.9807V65.905H60.0618V67.8293H62.3618V69.7576H64.6578H66.9538V71.6819H69.2498H71.5457H73.8417H76.1377H78.4337H80.7296H83.0297H85.3257H87.6217H89.9177H92.2136H94.5096H96.8056H99.1016H101.398H103.694H105.989H108.285H110.586H112.882H115.177H117.473H119.769H122.065H124.361H126.657H128.953H131.249H133.545H135.845H138.141H140.437H142.733H145.029H147.325H149.621H151.917H154.213H156.509H158.805V69.7576H161.101V67.8293H158.805Z" fill="#416633"/>
<path d="M165.697 50.5027V48.5784V46.6542H163.401V44.7299H161.101V42.8015H158.805V40.8773H156.509H154.213H151.917V38.953V37.0287V35.1004H149.621V33.1761V31.2519V29.3235H147.325V27.3992H145.029V25.475H142.733V23.5507H140.437V21.6223H138.141H135.845H133.545H131.249H128.953H126.657H124.361H122.065V23.5507H119.769V21.6223V19.6981H117.473V17.7738H115.177H112.881V15.8495H110.585V13.9212H108.285H105.989H103.693H101.397H99.1014H96.8054V15.8495H94.5094H92.2135V17.7738H89.9175V19.6981H87.6215V21.6223H85.3255V23.5507H83.0296V25.475V27.3992V29.3235H80.7295H78.4335H76.1375H73.8416H71.5456H69.2496H66.9536V31.2519H64.6577H62.3617V33.1761H60.0616V35.1004H57.7656V37.0287V38.953V40.8773V42.8015V44.7299V46.6542H60.0616V48.5784V50.5027H62.3617V52.4311H64.6577V54.3553H66.9536H69.2496H71.5456H73.8416H76.1375H78.4335V52.4311H80.7295V50.5027H83.0296H85.3255V52.4311H87.6215V54.3553H89.9175V56.2796H92.2135H94.5094V58.2039H96.8054H99.1014H101.397H103.693H105.989H108.285H110.585H112.881V56.2796H115.177H117.473V54.3553H119.769V52.4311H122.065V50.5027H124.361V48.5784V46.6542H126.657V44.7299H128.953V46.6542H131.249V48.5784H133.545V50.5027H135.845H138.141H140.437H142.733H145.029H147.325V48.5784H149.621V46.6542H151.917V48.5784V50.5027V52.4311V54.3553V56.2796V58.2039V60.1281H154.213V62.0565V63.9807H156.509V65.905H158.805V67.8293H161.101V69.7576H163.401V67.8293V65.905H165.697V63.9807H167.993V62.0565V60.1281V58.2039V56.2796V54.3553V52.4311V50.5027H165.697Z" fill="#5E884E"/>
<path d="M248.035 67.8293V65.905H245.739V63.9807H243.443V62.0565V60.1281H241.147V58.2038V56.2796V54.3553V52.4311V50.5027V48.5784V46.6542H238.851V48.5784H236.555V50.5027H234.259H231.963H229.663H227.367H225.071H222.775V48.5784H220.479V46.6542H218.183V44.7299H215.887V46.6542H213.591V48.5784V50.5027H211.295V52.4311H208.999V54.3553H206.703V56.2796H204.403H202.107V58.2038H199.811H197.515H195.219H192.923H190.628H188.332H186.036H183.735V56.2796H181.439H179.144V54.3553H176.848V52.4311H174.552V50.5027H172.256H169.96V52.4311H167.664V54.3553H165.368H163.072H160.776H158.48H156.18H153.884V52.4311H151.588V50.5027H149.292V48.5784V46.6542H146.996V44.7299V42.8015V40.8773V38.953H144.7V40.8773V42.8015V44.7299H142.404V46.6542V48.5784V50.5027V52.4311V54.3553V56.2796H144.7V58.2038V60.1281V62.0565H146.996V63.9807V65.905H149.292V67.8293H151.588V69.7576H153.884H156.18V71.6819H158.48H160.776H163.072H165.368H167.664H169.96H172.256H174.552H176.848H179.144H181.439H183.735H186.036H188.332H190.628H192.923H195.219H197.515H199.811H202.107H204.403H206.703H208.999H211.295H213.591H215.887H218.183H220.479H222.775H225.071H227.367H229.663H231.963H234.259H236.555H238.851H241.147H243.443H245.739H248.035V69.7576H250.331V67.8293H248.035Z" fill="#416633"/>
<path d="M254.923 50.5027V48.5784V46.6542H252.627V44.7299H250.331V42.8015H248.035V40.8773H245.739H243.443H241.147V38.953V37.0287V35.1004H238.851V33.1761V31.2519V29.3235H236.555V27.3992H234.259V25.475H231.963V23.5507H229.663V21.6223H227.367H225.071H222.775H220.479H218.183H215.887H213.591H211.295V23.5507H208.999V21.6223V19.6981H206.703V17.7738H204.403H202.107V15.8495H199.811V13.9212H197.515H195.219H192.923H190.627H188.331H186.035V15.8495H183.735H181.439V17.7738H179.143V19.6981H176.847V21.6223H174.551V23.5507H172.255V25.475V27.3992V29.3235H169.959H167.663H165.368H163.072H160.776H158.48H156.18V31.2519H153.884H151.588V33.1761H149.292V35.1004H146.996V37.0287V38.953V40.8773V42.8015V44.7299V46.6542H149.292V48.5784V50.5027H151.588V52.4311H153.884V54.3553H156.18H158.48H160.776H163.072H165.368H167.663V52.4311H169.959V50.5027H172.255H174.551V52.4311H176.847V54.3553H179.143V56.2796H181.439H183.735V58.2039H186.035H188.331H190.627H192.923H195.219H197.515H199.811H202.107V56.2796H204.403H206.703V54.3553H208.999V52.4311H211.295V50.5027H213.591V48.5784V46.6542H215.887V44.7299H218.183V46.6542H220.479V48.5784H222.775V50.5027H225.071H227.367H229.663H231.963H234.259H236.555V48.5784H238.851V46.6542H241.147V48.5784V50.5027V52.4311V54.3553V56.2796V58.2039V60.1281H243.443V62.0565V63.9807H245.739V65.905H248.035V67.8293H250.331V69.7576H252.627V67.8293V65.905H254.923V63.9807H257.219V62.0565V60.1281V58.2039V56.2796V54.3553V52.4311V50.5027H254.923Z" fill="#5E884E"/>
<path d="M337.266 67.8293V65.905H334.97V63.9807H332.674V62.0565V60.1281H330.374V58.2038V56.2796V54.3553V52.4311V50.5027V48.5784V46.6542H328.078V48.5784H325.782V50.5027H323.486H321.19H318.894H316.598H314.302H312.006V48.5784H309.71V46.6542H307.414V44.7299H305.114V46.6542H302.818V48.5784V50.5027H300.522V52.4311H298.226V54.3553H295.93V56.2796H293.634H291.338V58.2038H289.042H286.746H284.45H282.154H279.854H277.558H275.262H272.966V56.2796H270.67H268.374V54.3553H266.078V52.4311H263.782V50.5027H261.486H259.19V52.4311H256.894V54.3553H254.598H252.298H250.002H247.706H245.41H243.114V52.4311H240.818V50.5027H238.522V48.5784V46.6542H236.226V44.7299V42.8015V40.8773V38.953H233.93V40.8773V42.8015V44.7299H231.634V46.6542V48.5784V50.5027V52.4311V54.3553V56.2796H233.93V58.2038V60.1281V62.0565H236.226V63.9807V65.905H238.522V67.8293H240.818V69.7576H243.114H245.41V71.6819H247.706H250.002H252.298H254.598H256.894H259.19H261.486H263.782H266.078H268.374H270.67H272.966H275.262H277.558H279.854H282.154H284.45H286.746H289.042H291.338H293.634H295.93H298.226H300.522H302.818H305.114H307.414H309.71H312.006H314.302H316.598H318.894H321.19H323.486H325.782H328.078H330.374H332.674H334.97H337.266V69.7576H339.562V67.8293H337.266Z" fill="#416633"/>
<path d="M344.153 50.5027V48.5784V46.6542H341.857V44.7299H339.561V42.8015H337.265V40.8773H334.969H332.673H330.373V38.953V37.0287V35.1004H328.077V33.1761V31.2519V29.3235H325.781V27.3992H323.485V25.475H321.189V23.5507H318.894V21.6223H316.598H314.302H312.006H309.71H307.414H305.114H302.818H300.522V23.5507H298.226V21.6223V19.6981H295.93V17.7738H293.634H291.338V15.8495H289.042V13.9212H286.746H284.45H282.154H279.854H277.558H275.262V15.8495H272.966H270.67V17.7738H268.374V19.6981H266.078V21.6223H263.782V23.5507H261.486V25.475V27.3992V29.3235H259.19H256.894H254.598H252.298H250.002H247.706H245.41V31.2519H243.114H240.818V33.1761H238.522V35.1004H236.226V37.0287V38.953V40.8773V42.8015V44.7299V46.6542H238.522V48.5784V50.5027H240.818V52.4311H243.114V54.3553H245.41H247.706H250.002H252.298H254.598H256.894V52.4311H259.19V50.5027H261.486H263.782V52.4311H266.078V54.3553H268.374V56.2796H270.67H272.966V58.2039H275.262H277.558H279.854H282.154H284.45H286.746H289.042H291.338V56.2796H293.634H295.93V54.3553H298.226V52.4311H300.522V50.5027H302.818V48.5784V46.6542H305.114V44.7299H307.414V46.6542H309.71V48.5784H312.006V50.5027H314.302H316.598H318.894H321.189H323.485H325.781V48.5784H328.077V46.6542H330.373V48.5784V50.5027V52.4311V54.3553V56.2796V58.2039V60.1281H332.673V62.0565V63.9807H334.969V65.905H337.265V67.8293H339.561V69.7576H341.857V67.8293V65.905H344.153V63.9807H346.449V62.0565V60.1281V58.2039V56.2796V54.3553V52.4311V50.5027H344.153Z" fill="#5E884E"/>
<path d="M426.492 67.8293V65.905H424.196V63.9807H421.9V62.0565V60.1281H419.604V58.2038V56.2796V54.3553V52.4311V50.5027V48.5784V46.6542H417.308V48.5784H415.012V50.5027H412.716H410.42H408.124H405.828H403.528H401.232V48.5784H398.936V46.6542H396.64V44.7299H394.344V46.6542H392.048V48.5784V50.5027H389.752V52.4311H387.456V54.3553H385.16V56.2796H382.864H380.568V58.2038H378.268H375.972H373.676H371.38H369.084H366.788H364.492H362.196V56.2796H359.9H357.604V54.3553H355.308V52.4311H353.012V50.5027H350.712H348.416V52.4311H346.12V54.3553H343.824H341.528H339.232H336.936H334.64H332.344V52.4311H330.048V50.5027H327.752V48.5784V46.6542H325.456V44.7299V42.8015V40.8773V38.953H323.156V40.8773V42.8015V44.7299H320.86V46.6542V48.5784V50.5027V52.4311V54.3553V56.2796H323.156V58.2038V60.1281V62.0565H325.456V63.9807V65.905H327.752V67.8293H330.048V69.7576H332.344H334.64V71.6819H336.936H339.232H341.528H343.824H346.12H348.416H350.712H353.012H355.308H357.604H359.9H362.196H364.492H366.788H369.084H371.38H373.676H375.972H378.268H380.568H382.864H385.16H387.456H389.752H392.048H394.344H396.64H398.936H401.232H403.528H405.828H408.124H410.42H412.716H415.012H417.308H419.604H421.9H424.196H426.492V69.7576H428.788V67.8293H426.492Z" fill="#416633"/>
<path d="M433.384 50.5027V48.5784V46.6542H431.084V44.7299H428.788V42.8015H426.492V40.8773H424.196H421.9H419.604V38.953V37.0287V35.1004H417.308V33.1761V31.2519V29.3235H415.012V27.3992H412.716V25.475H410.42V23.5507H408.124V21.6223H405.828H403.528H401.232H398.936H396.64H394.344H392.048H389.752V23.5507H387.456V21.6223V19.6981H385.16V17.7738H382.864H380.568V15.8495H378.268V13.9212H375.972H373.676H371.38H369.084H366.788H364.492V15.8495H362.196H359.9V17.7738H357.604V19.6981H355.308V21.6223H353.012V23.5507H350.712V25.475V27.3992V29.3235H348.416H346.12H343.824H341.528H339.232H336.936H334.64V31.2519H332.344H330.048V33.1761H327.752V35.1004H325.456V37.0287V38.953V40.8773V42.8015V44.7299V46.6542H327.752V48.5784V50.5027H330.048V52.4311H332.344V54.3553H334.64H336.936H339.232H341.528H343.824H346.12V52.4311H348.416V50.5027H350.712H353.012V52.4311H355.308V54.3553H357.604V56.2796H359.9H362.196V58.2039H364.492H366.788H369.084H371.38H373.676H375.972H378.268H380.568V56.2796H382.864H385.16V54.3553H387.456V52.4311H389.752V50.5027H392.048V48.5784V46.6542H394.344V44.7299H396.64V46.6542H398.936V48.5784H401.232V50.5027H403.528H405.828H408.124H410.42H412.716H415.012V48.5784H417.308V46.6542H419.604V48.5784V50.5027V52.4311V54.3553V56.2796V58.2039V60.1281H421.9V62.0565V63.9807H424.196V65.905H426.492V67.8293H428.788V69.7576H431.084V67.8293V65.905H433.384V63.9807H435.68V62.0565V60.1281V58.2039V56.2796V54.3553V52.4311V50.5027H433.384Z" fill="#5E884E"/>
<path d="M515.722 67.8293V65.905H513.426V63.9807H511.13V62.0565V60.1281H508.834V58.2038V56.2796V54.3553V52.4311V50.5027V48.5784V46.6542H506.538V48.5784H504.242V50.5027H501.946H499.646H497.35H495.054H492.758H490.462V48.5784H488.166V46.6542H485.87V44.7299H483.574V46.6542H481.278V48.5784V50.5027H478.982V52.4311H476.686V54.3553H474.386V56.2796H472.09H469.794V58.2038H467.498H465.202H462.906H460.61H458.315H456.019H453.723H451.427V56.2796H449.131H446.831V54.3553H444.535V52.4311H442.239V50.5027H439.943H437.647V52.4311H435.351V54.3553H433.055H430.759H428.463H426.167H423.871H421.571V52.4311H419.275V50.5027H416.979V48.5784V46.6542H414.683V44.7299V42.8015V40.8773V38.953H412.387V40.8773V42.8015V44.7299H410.091V46.6542V48.5784V50.5027V52.4311V54.3553V56.2796H412.387V58.2038V60.1281V62.0565H414.683V63.9807V65.905H416.979V67.8293H419.275V69.7576H421.571H423.871V71.6819H426.167H428.463H430.759H433.055H435.351H437.647H439.943H442.239H444.535H446.831H449.131H451.427H453.723H456.019H458.315H460.61H462.906H465.202H467.498H469.794H472.09H474.386H476.686H478.982H481.278H483.574H485.87H488.166H490.462H492.758H495.054H497.35H499.646H501.946H504.242H506.538H508.834H511.13H513.426H515.722V69.7576H518.018V67.8293H515.722Z" fill="#416633"/>
<path d="M522.61 50.5027V48.5784V46.6542H520.314V44.7299H518.018V42.8015H515.722V40.8773H513.426H511.13H508.834V38.953V37.0287V35.1004H506.538V33.1761V31.2519V29.3235H504.242V27.3992H501.946V25.475H499.646V23.5507H497.35V21.6223H495.054H492.758H490.462H488.166H485.87H483.574H481.278H478.982V23.5507H476.687V21.6223V19.6981H474.386V17.7738H472.09H469.794V15.8495H467.499V13.9212H465.203H462.907H460.611H458.315H456.019H453.723V15.8495H451.427H449.131V17.7738H446.831V19.6981H444.535V21.6223H442.239V23.5507H439.943V25.475V27.3992V29.3235H437.647H435.351H433.055H430.759H428.463H426.167H423.871V31.2519H421.571H419.275V33.1761H416.979V35.1004H414.683V37.0287V38.953V40.8773V42.8015V44.7299V46.6542H416.979V48.5784V50.5027H419.275V52.4311H421.571V54.3553H423.871H426.167H428.463H430.759H433.055H435.351V52.4311H437.647V50.5027H439.943H442.239V52.4311H444.535V54.3553H446.831V56.2796H449.131H451.427V58.2039H453.723H456.019H458.315H460.611H462.907H465.203H467.499H469.794V56.2796H472.09H474.386V54.3553H476.687V52.4311H478.982V50.5027H481.278V48.5784V46.6542H483.574V44.7299H485.87V46.6542H488.166V48.5784H490.462V50.5027H492.758H495.054H497.35H499.646H501.946H504.242V48.5784H506.538V46.6542H508.834V48.5784V50.5027V52.4311V54.3553V56.2796V58.2039V60.1281H511.13V62.0565V63.9807H513.426V65.905H515.722V67.8293H518.018V69.7576H520.314V67.8293V65.905H522.61V63.9807H524.906V62.0565V60.1281V58.2039V56.2796V54.3553V52.4311V50.5027H522.61Z" fill="#5E884E"/>
<path d="M604.952 67.8293V65.905H602.656V63.9807H600.36V62.0565V60.1281H598.064V58.2038V56.2796V54.3553V52.4311V50.5027V48.5784V46.6542H595.764V48.5784H593.468V50.5027H591.172H588.876H586.58H584.284H581.988H579.692V48.5784H577.397V46.6542H575.101V44.7299H572.805V46.6542H570.504V48.5784V50.5027H568.208V52.4311H565.913V54.3553H563.617V56.2796H561.321H559.025V58.2038H556.729H554.433H552.137H549.841H547.541H545.245H542.949H540.653V56.2796H538.357H536.061V54.3553H533.765V52.4311H531.469V50.5027H529.173H526.877V52.4311H524.581V54.3553H522.281H519.985H517.689H515.393H513.097H510.801V52.4311H508.505V50.5027H506.209V48.5784V46.6542H503.913V44.7299V42.8015V40.8773V38.953H501.617V40.8773V42.8015V44.7299H499.321V46.6542V48.5784V50.5027V52.4311V54.3553V56.2796H501.617V58.2038V60.1281V62.0565H503.913V63.9807V65.905H506.209V67.8293H508.505V69.7576H510.801H513.097V71.6819H515.393H517.689H519.985H522.281H524.581H526.877H529.173H531.469H533.765H536.061H538.357H540.653H542.949H545.245H547.541H549.841H552.137H554.433H556.729H559.025H561.321H563.617H565.913H568.208H570.504H572.805H575.101H577.397H579.692H581.988H584.284H586.58H588.876H591.172H593.468H595.764H598.064H600.36H602.656H604.952V69.7576H607.248V67.8293H604.952Z" fill="#416633"/>
<path d="M611.84 50.5027V48.5784V46.6542H609.544V44.7299H607.248V42.8015H604.952V40.8773H602.656H600.36H598.064V38.953V37.0287V35.1004H595.764V33.1761V31.2519V29.3235H593.468V27.3992H591.172V25.475H588.876V23.5507H586.58V21.6223H584.284H581.988H579.692H577.396H575.1H572.804H570.504H568.208V23.5507H565.912V21.6223V19.6981H563.616V17.7738H561.32H559.024V15.8495H556.728V13.9212H554.432H552.137H549.841H547.54H545.244H542.949V15.8495H540.653H538.357V17.7738H536.061V19.6981H533.765V21.6223H531.469V23.5507H529.173V25.475V27.3992V29.3235H526.877H524.581H522.281H519.985H517.689H515.393H513.097V31.2519H510.801H508.505V33.1761H506.209V35.1004H503.913V37.0287V38.953V40.8773V42.8015V44.7299V46.6542H506.209V48.5784V50.5027H508.505V52.4311H510.801V54.3553H513.097H515.393H517.689H519.985H522.281H524.581V52.4311H526.877V50.5027H529.173H531.469V52.4311H533.765V54.3553H536.061V56.2796H538.357H540.653V58.2039H542.949H545.244H547.54H549.841H552.137H554.432H556.728H559.024V56.2796H561.32H563.616V54.3553H565.912V52.4311H568.208V50.5027H570.504V48.5784V46.6542H572.804V44.7299H575.1V46.6542H577.396V48.5784H579.692V50.5027H581.988H584.284H586.58H588.876H591.172H593.468V48.5784H595.764V46.6542H598.064V48.5784V50.5027V52.4311V54.3553V56.2796V58.2039V60.1281H600.36V62.0565V63.9807H602.656V65.905H604.952V67.8293H607.248V69.7576H609.544V67.8293V65.905H611.84V63.9807H614.136V62.0565V60.1281V58.2039V56.2796V54.3553V52.4311V50.5027H611.84Z" fill="#5E884E"/>
<path d="M694.178 67.8293V65.905H691.882V63.9807H689.586V62.0565V60.1281H687.29V58.2038V56.2796V54.3553V52.4311V50.5027V48.5784V46.6542H684.995V48.5784H682.699V50.5027H680.403H678.107H675.811H673.511H671.215H668.919V48.5784H666.623V46.6542H664.327V44.7299H662.031V46.6542H659.735V48.5784V50.5027H657.439V52.4311H655.143V54.3553H652.847V56.2796H650.551H648.251V58.2038H645.955H643.659H641.363H639.067H636.771H634.475H632.179H629.883V56.2796H627.587H625.291V54.3553H622.995V52.4311H620.695V50.5027H618.399H616.103V52.4311H613.807V54.3553H611.511H609.215H606.919H604.623H602.327H600.031V52.4311H597.735V50.5027H595.439V48.5784V46.6542H593.139V44.7299V42.8015V40.8773V38.953H590.843V40.8773V42.8015V44.7299H588.547V46.6542V48.5784V50.5027V52.4311V54.3553V56.2796H590.843V58.2038V60.1281V62.0565H593.139V63.9807V65.905H595.439V67.8293H597.735V69.7576H600.031H602.327V71.6819H604.623H606.919H609.215H611.511H613.807H616.103H618.399H620.695H622.995H625.291H627.587H629.883H632.179H634.475H636.771H639.067H641.363H643.659H645.955H648.251H650.551H652.847H655.143H657.439H659.735H662.031H664.327H666.623H668.919H671.215H673.511H675.811H678.107H680.403H682.699H684.995H687.29H689.586H691.882H694.178V69.7576H696.479V67.8293H694.178Z" fill="#416633"/>
<path d="M701.071 50.5027V48.5784V46.6542H698.775V44.7299H696.479V42.8015H694.178V40.8773H691.883H689.587H687.291V38.953V37.0287V35.1004H684.995V33.1761V31.2519V29.3235H682.699V27.3992H680.403V25.475H678.107V23.5507H675.811V21.6223H673.511H671.215H668.919H666.623H664.327H662.031H659.735H657.439V23.5507H655.143V21.6223V19.6981H652.847V17.7738H650.551H648.251V15.8495H645.955V13.9212H643.659H641.363H639.067H636.771H634.475H632.179V15.8495H629.883H627.587V17.7738H625.291V19.6981H622.995V21.6223H620.695V23.5507H618.399V25.475V27.3992V29.3235H616.103H613.807H611.511H609.215H606.919H604.623H602.327V31.2519H600.031H597.735V33.1761H595.439V35.1004H593.139V37.0287V38.953V40.8773V42.8015V44.7299V46.6542H595.439V48.5784V50.5027H597.735V52.4311H600.031V54.3553H602.327H604.623H606.919H609.215H611.511H613.807V52.4311H616.103V50.5027H618.399H620.695V52.4311H622.995V54.3553H625.291V56.2796H627.587H629.883V58.2039H632.179H634.475H636.771H639.067H641.363H643.659H645.955H648.251V56.2796H650.551H652.847V54.3553H655.143V52.4311H657.439V50.5027H659.735V48.5784V46.6542H662.031V44.7299H664.327V46.6542H666.623V48.5784H668.919V50.5027H671.215H673.511H675.811H678.107H680.403H682.699V48.5784H684.995V46.6542H687.291V48.5784V50.5027V52.4311V54.3553V56.2796V58.2039V60.1281H689.587V62.0565V63.9807H691.883V65.905H694.178V67.8293H696.479V69.7576H698.775V67.8293V65.905H701.071V63.9807H703.367V62.0565V60.1281V58.2039V56.2796V54.3553V52.4311V50.5027H701.071Z" fill="#5E884E"/>
<path d="M783.409 67.8293V65.905H781.113V63.9807H778.817V62.0565V60.1281H776.521V58.2038V56.2796V54.3553V52.4311V50.5027V48.5784V46.6542H774.225V48.5784H771.925V50.5027H769.629H767.333H765.037H762.741H760.445H758.149V48.5784H755.853V46.6542H753.557V44.7299H751.261V46.6542H748.965V48.5784V50.5027H746.669V52.4311H744.369V54.3553H742.073V56.2796H739.777H737.481V58.2038H735.185H732.889H730.593H728.297H726.001H723.705H721.409H719.113V56.2796H716.813H714.517V54.3553H712.221V52.4311H709.925V50.5027H707.629H705.333V52.4311H703.037V54.3553H700.741H698.445H696.149H693.853H691.553H689.257V52.4311H686.961V50.5027H684.665V48.5784V46.6542H682.369V44.7299V42.8015V40.8773V38.953H680.073V40.8773V42.8015V44.7299H677.777V46.6542V48.5784V50.5027V52.4311V54.3553V56.2796H680.073V58.2038V60.1281V62.0565H682.369V63.9807V65.905H684.665V67.8293H686.961V69.7576H689.257H691.553V71.6819H693.853H696.149H698.445H700.741H703.037H705.333H707.629H709.925H712.221H714.517H716.813H719.113H721.409H723.705H726.001H728.297H730.593H732.889H735.185H737.481H739.777H742.073H744.369H746.669H748.965H751.261H753.557H755.853H758.149H760.445H762.741H765.037H767.333H769.629H771.925H774.225H776.521H778.817H781.113H783.409V69.7576H785.705V67.8293H783.409Z" fill="#416633"/>
<path d="M790.297 50.5027V48.5784V46.6542H788.001V44.7299H785.705V42.8015H783.409V40.8773H781.113H778.817H776.521V38.953V37.0287V35.1004H774.225V33.1761V31.2519V29.3235H771.925V27.3992H769.629V25.475H767.333V23.5507H765.037V21.6223H762.741H760.445H758.149H755.853H753.557H751.261H748.965H746.669V23.5507H744.369V21.6223V19.6981H742.073V17.7738H739.777H737.481V15.8495H735.185V13.9212H732.889H730.593H728.297H726.001H723.705H721.409V15.8495H719.113H716.813V17.7738H714.517V19.6981H712.221V21.6223H709.925V23.5507H707.629V25.475V27.3992V29.3235H705.333H703.037H700.741H698.445H696.149H693.853H691.553V31.2519H689.257H686.961V33.1761H684.665V35.1004H682.369V37.0287V38.953V40.8773V42.8015V44.7299V46.6542H684.665V48.5784V50.5027H686.961V52.4311H689.257V54.3553H691.553H693.853H696.149H698.445H700.741H703.037V52.4311H705.333V50.5027H707.629H709.925V52.4311H712.221V54.3553H714.517V56.2796H716.813H719.113V58.2039H721.409H723.705H726.001H728.297H730.593H732.889H735.185H737.481V56.2796H739.777H742.073V54.3553H744.369V52.4311H746.669V50.5027H748.965V48.5784V46.6542H751.261V44.7299H753.557V46.6542H755.853V48.5784H758.149V50.5027H760.445H762.741H765.037H767.333H769.629H771.925V48.5784H774.225V46.6542H776.521V48.5784V50.5027V52.4311V54.3553V56.2796V58.2039V60.1281H778.817V62.0565V63.9807H781.113V65.905H783.409V67.8293H785.705V69.7576H788.001V67.8293V65.905H790.297V63.9807H792.593V62.0565V60.1281V58.2039V56.2796V54.3553V52.4311V50.5027H790.297Z" fill="#5E884E"/>
<path d="M872.639 67.8293V65.905H870.343V63.9807H868.043V62.0565V60.1281H865.747V58.2038V56.2796V54.3553V52.4311V50.5027V48.5784V46.6542H863.451V48.5784H861.155V50.5027H858.859H856.563H854.267H851.971H849.675H847.379V48.5784H845.083V46.6542H842.787V44.7299H840.487V46.6542H838.191V48.5784V50.5027H835.895V52.4311H833.599V54.3553H831.303V56.2796H829.007H826.711V58.2038H824.415H822.119H819.823H817.527H815.232H812.931H810.635H808.339V56.2796H806.043H803.748V54.3553H801.452V52.4311H799.156V50.5027H796.86H794.564V52.4311H792.268V54.3553H789.968H787.672H785.376H783.08H780.784H778.488V52.4311H776.192V50.5027H773.896V48.5784V46.6542H771.6V44.7299V42.8015V40.8773V38.953H769.304V40.8773V42.8015V44.7299H767.008V46.6542V48.5784V50.5027V52.4311V54.3553V56.2796H769.304V58.2038V60.1281V62.0565H771.6V63.9807V65.905H773.896V67.8293H776.192V69.7576H778.488H780.784V71.6819H783.08H785.376H787.672H789.968H792.268H794.564H796.86H799.156H801.452H803.748H806.043H808.339H810.635H812.931H815.232H817.527H819.823H822.119H824.415H826.711H829.007H831.303H833.599H835.895H838.191H840.487H842.787H845.083H847.379H849.675H851.971H854.267H856.563H858.859H861.155H863.451H865.747H868.043H870.343H872.639V69.7576H874.935V67.8293H872.639Z" fill="#416633"/>
<path d="M879.527 50.5027V48.5784V46.6542H877.231V44.7299H874.935V42.8015H872.639V40.8773H870.343H868.043H865.747V38.953V37.0287V35.1004H863.451V33.1761V31.2519V29.3235H861.155V27.3992H858.859V25.475H856.563V23.5507H854.267V21.6223H851.971H849.675H847.379H845.083H842.787H840.487H838.191H835.895V23.5507H833.599V21.6223V19.6981H831.303V17.7738H829.007H826.711V15.8495H824.415V13.9212H822.119H819.823H817.527H815.231H812.931H810.635V15.8495H808.339H806.043V17.7738H803.747V19.6981H801.451V21.6223H799.155V23.5507H796.859V25.475V27.3992V29.3235H794.563H792.267H789.967H787.671H785.375H783.079H780.783V31.2519H778.488H776.192V33.1761H773.896V35.1004H771.6V37.0287V38.953V40.8773V42.8015V44.7299V46.6542H773.896V48.5784V50.5027H776.192V52.4311H778.488V54.3553H780.783H783.079H785.375H787.671H789.967H792.267V52.4311H794.563V50.5027H796.859H799.155V52.4311H801.451V54.3553H803.747V56.2796H806.043H808.339V58.2039H810.635H812.931H815.231H817.527H819.823H822.119H824.415H826.711V56.2796H829.007H831.303V54.3553H833.599V52.4311H835.895V50.5027H838.191V48.5784V46.6542H840.487V44.7299H842.787V46.6542H845.083V48.5784H847.379V50.5027H849.675H851.971H854.267H856.563H858.859H861.155V48.5784H863.451V46.6542H865.747V48.5784V50.5027V52.4311V54.3553V56.2796V58.2039V60.1281H868.043V62.0565V63.9807H870.343V65.905H872.639V67.8293H874.935V69.7576H877.231V67.8293V65.905H879.527V63.9807H881.823V62.0565V60.1281V58.2039V56.2796V54.3553V52.4311V50.5027H879.527Z" fill="#5E884E"/>
<path d="M961.865 67.8293V65.905H959.569V63.9807H957.273V62.0565V60.1281H954.977V58.2038V56.2796V54.3553V52.4311V50.5027V48.5784V46.6542H952.681V48.5784H950.385V50.5027H948.089H945.793H943.497H941.201H938.901H936.605V48.5784H934.309V46.6542H932.013V44.7299H929.717V46.6542H927.421V48.5784V50.5027H925.126V52.4311H922.83V54.3553H920.534V56.2796H918.238H915.942V58.2038H913.646H911.345H909.05H906.754H904.458H902.162H899.866H897.57V56.2796H895.274H892.978V54.3553H890.682V52.4311H888.382V50.5027H886.086H883.79V52.4311H881.494V54.3553H879.198H876.902H874.606H872.31H870.014H867.718V52.4311H865.422V50.5027H863.122V48.5784V46.6542H860.826V44.7299V42.8015V40.8773V38.953H858.53V40.8773V42.8015V44.7299H856.234V46.6542V48.5784V50.5027V52.4311V54.3553V56.2796H858.53V58.2038V60.1281V62.0565H860.826V63.9807V65.905H863.122V67.8293H865.422V69.7576H867.718H870.014V71.6819H872.31H874.606H876.902H879.198H881.494H883.79H886.086H888.382H890.682H892.978H895.274H897.57H899.866H902.162H904.458H906.754H909.05H911.345H913.646H915.942H918.238H920.534H922.83H925.126H927.421H929.717H932.013H934.309H936.605H938.901H941.201H943.497H945.793H948.089H950.385H952.681H954.977H957.273H959.569H961.865V69.7576H964.161V67.8293H961.865Z" fill="#416633"/>
<path d="M968.757 50.5027V48.5784V46.6542H966.461V44.7299H964.161V42.8015H961.865V40.8773H959.569H957.273H954.977V38.953V37.0287V35.1004H952.681V33.1761V31.2519V29.3235H950.385V27.3992H948.089V25.475H945.793V23.5507H943.497V21.6223H941.201H938.901H936.605H934.309H932.013H929.717H927.421H925.126V23.5507H922.83V21.6223V19.6981H920.534V17.7738H918.238H915.942V15.8495H913.646V13.9212H911.346H909.05H906.754H904.458H902.162H899.866V15.8495H897.57H895.274V17.7738H892.978V19.6981H890.682V21.6223H888.382V23.5507H886.086V25.475V27.3992V29.3235H883.79H881.494H879.198H876.902H874.606H872.31H870.014V31.2519H867.718H865.422V33.1761H863.122V35.1004H860.826V37.0287V38.953V40.8773V42.8015V44.7299V46.6542H863.122V48.5784V50.5027H865.422V52.4311H867.718V54.3553H870.014H872.31H874.606H876.902H879.198H881.494V52.4311H883.79V50.5027H886.086H888.382V52.4311H890.682V54.3553H892.978V56.2796H895.274H897.57V58.2039H899.866H902.162H904.458H906.754H909.05H911.346H913.646H915.942V56.2796H918.238H920.534V54.3553H922.83V52.4311H925.126V50.5027H927.421V48.5784V46.6542H929.717V44.7299H932.013V46.6542H934.309V48.5784H936.605V50.5027H938.901H941.201H943.497H945.793H948.089H950.385V48.5784H952.681V46.6542H954.977V48.5784V50.5027V52.4311V54.3553V56.2796V58.2039V60.1281H957.273V62.0565V63.9807H959.569V65.905H961.865V67.8293H964.161V69.7576H966.461V67.8293V65.905H968.757V63.9807H971.053V62.0565V60.1281V58.2039V56.2796V54.3553V52.4311V50.5027H968.757Z" fill="#5E884E"/>
<path d="M1051.1 67.8293V65.905H1048.8V63.9807H1046.5V62.0565V60.1281H1044.21V58.2038V56.2796V54.3553V52.4311V50.5027V48.5784V46.6542H1041.91V48.5784H1039.62V50.5027H1037.32H1035.02H1032.72H1030.43H1028.13H1025.84V48.5784H1023.54V46.6542H1021.24V44.7299H1018.95V46.6542H1016.65V48.5784V50.5027H1014.35V52.4311H1012.06V54.3553H1009.76V56.2796H1007.46H1005.17V58.2038H1002.87H1000.58H998.28H995.984H993.688H991.392H989.096H986.796V56.2796H984.5H982.204V54.3553H979.908V52.4311H977.612V50.5027H975.316H973.02V52.4311H970.724V54.3553H968.428H966.132H963.836H961.54H959.24H956.944V52.4311H954.648V50.5027H952.352V48.5784V46.6542H950.056V44.7299V42.8015V40.8773V38.953H947.76V40.8773V42.8015V44.7299H945.464V46.6542V48.5784V50.5027V52.4311V54.3553V56.2796H947.76V58.2038V60.1281V62.0565H950.056V63.9807V65.905H952.352V67.8293H954.648V69.7576H956.944H959.24V71.6819H961.54H963.836H966.132H968.428H970.724H973.02H975.316H977.612H979.908H982.204H984.5H986.796H989.096H991.392H993.688H995.984H998.28H1000.58H1002.87H1005.17H1007.46H1009.76H1012.06H1014.35H1016.65H1018.95H1021.24H1023.54H1025.84H1028.13H1030.43H1032.72H1035.02H1037.32H1039.62H1041.91H1044.21H1046.5H1048.8H1051.1V69.7576H1053.39V67.8293H1051.1Z" fill="#416633"/>
<path d="M1057.98 50.5027V48.5784V46.6542H1055.69V44.7299H1053.39V42.8015H1051.1V40.8773H1048.8H1046.5H1044.21V38.953V37.0287V35.1004H1041.91V33.1761V31.2519V29.3235H1039.62V27.3992H1037.32V25.475H1035.02V23.5507H1032.72V21.6223H1030.43H1028.13H1025.84H1023.54H1021.24H1018.95H1016.65H1014.35V23.5507H1012.06V21.6223V19.6981H1009.76V17.7738H1007.46H1005.17V15.8495H1002.87V13.9212H1000.58H998.28H995.984H993.688H991.392H989.096V15.8495H986.796H984.5V17.7738H982.204V19.6981H979.908V21.6223H977.612V23.5507H975.316V25.475V27.3992V29.3235H973.02H970.724H968.428H966.132H963.836H961.54H959.24V31.2519H956.944H954.648V33.1761H952.352V35.1004H950.056V37.0287V38.953V40.8773V42.8015V44.7299V46.6542H952.352V48.5784V50.5027H954.648V52.4311H956.944V54.3553H959.24H961.54H963.836H966.132H968.428H970.724V52.4311H973.02V50.5027H975.316H977.612V52.4311H979.908V54.3553H982.204V56.2796H984.5H986.796V58.2039H989.096H991.392H993.688H995.984H998.28H1000.58H1002.87H1005.17V56.2796H1007.46H1009.76V54.3553H1012.06V52.4311H1014.35V50.5027H1016.65V48.5784V46.6542H1018.95V44.7299H1021.24V46.6542H1023.54V48.5784H1025.84V50.5027H1028.13H1030.43H1032.72H1035.02H1037.32H1039.62V48.5784H1041.91V46.6542H1044.21V48.5784V50.5027V52.4311V54.3553V56.2796V58.2039V60.1281H1046.5V62.0565V63.9807H1048.8V65.905H1051.1V67.8293H1053.39V69.7576H1055.69V67.8293V65.905H1057.98V63.9807H1060.28V62.0565V60.1281V58.2039V56.2796V54.3553V52.4311V50.5027H1057.98Z" fill="#5E884E"/>
<path d="M1116 71.6819V50.5027H1115.07V48.5784H1112.77V46.6542H1110.47V44.7299H1108.17V46.6542H1105.88V50.5027H1103.58V52.4311H1101.29V54.3553H1098.99V56.2796H1094.4V58.2038H1076.03V56.2796H1071.43V54.3553H1069.14V52.4311H1066.84V50.5027H1062.25V52.4311H1059.95V54.3553H1046.17V52.4311H1043.88V50.5027H1041.58V46.6542H1039.29V38.953H1036.99V44.7299H1034.69V56.2796H1036.99V62.0565H1039.29V65.905H1041.58V67.8293H1043.88V69.7576H1048.47V71.6819H1116Z" fill="#416633"/>
<path d="M1116 50.5027V21.6223H1103.58V23.5507H1101.29V19.6981H1098.99V17.7738H1094.4V15.8495H1092.1V13.9212H1078.32V15.8495H1073.73V17.7738H1071.43V19.6981H1069.14V21.6223H1066.84V23.5507H1064.55V29.3235H1048.47V31.2519H1043.88V33.1761H1041.58V35.1004H1039.29V46.6542H1041.58V50.5027H1043.88V52.4311H1046.17V54.3553H1059.95V52.4311H1062.25V50.5027H1066.84V52.4311H1069.14V54.3553H1071.43V56.2796H1076.03V58.2038H1094.4V56.2796H1098.99V54.3553H1101.29V52.4311H1103.58V50.5027H1105.88V46.6542H1108.17V44.7299H1110.47V46.6542H1112.77V48.5784H1115.07V50.5027H1116Z" fill="#5E884E"/>
<path d="M1100.52 50.5027V48.5784V46.6542H1098.22V44.7299H1095.93V42.8015H1093.63V40.8773H1091.34H1089.04H1086.74V38.953V37.0287V35.1004H1084.44V33.1761V31.2519V29.3235H1082.15V27.3992H1079.85V25.475H1077.56V23.5507H1075.26V21.6223H1072.96H1070.67H1068.37H1066.08H1063.78H1061.48H1059.18H1056.89V23.5507H1054.59V21.6223V19.6981H1052.3V17.7738H1050H1047.71V15.8495H1045.41V13.9212H1043.11H1040.82H1038.52H1036.22H1033.93H1031.63V15.8495H1029.33H1027.04V17.7738H1024.74V19.6981H1022.45V21.6223H1020.15V23.5507H1017.85V25.475V27.3992V29.3235H1015.56H1013.26H1010.96H1008.67H1006.37H1004.07H1001.78V31.2519H999.481H997.185V33.1761H994.889V35.1004H992.594V37.0287V38.953V40.8773V42.8015V44.7299V46.6542H994.889V48.5784V50.5027H997.185V52.4311H999.481V54.3553H1001.78H1004.07H1006.37H1008.67H1010.96H1013.26V52.4311H1015.56V50.5027H1017.85H1020.15V52.4311H1022.45V54.3553H1024.74V56.2796H1027.04H1029.33V58.2039H1031.63H1033.93H1036.22H1038.52H1040.82H1043.11H1045.41H1047.71V56.2796H1050H1052.3V54.3553H1054.59V52.4311H1056.89V50.5027H1059.18V48.5784V46.6542H1061.48V44.7299H1063.78V46.6542H1066.08V48.5784H1068.37V50.5027H1070.67H1072.96H1075.26H1077.56H1079.85H1082.15V48.5784H1084.44V46.6542H1086.74V48.5784V50.5027V52.4311V54.3553V56.2796V58.2039V60.1281H1089.04V62.0565V63.9807H1091.34V65.905H1093.63V67.8293H1095.93V69.7576H1098.22V67.8293V65.905H1100.52V63.9807H1102.82V62.0565V60.1281V58.2039V56.2796V54.3553V52.4311V50.5027H1100.52Z" fill="#5E884E"/>
<path d="M918.633 45.1607V43.2365V41.3122H916.337V39.3838H914.041V37.4596H911.745V35.5353H909.449H907.153H904.857V33.611V31.6827V29.7584H902.561V27.8341V25.9099V23.9815H900.261V22.0572H897.965V20.133H895.669V18.2087H893.373V16.2804H891.077H888.781H886.485H884.189H881.893H879.597H877.301H875.001V18.2087H872.705V16.2804V14.3561H870.409V12.4318H868.113H865.817V10.5076H863.521V8.57919H861.225H858.929H856.633H854.337H852.041H849.741V10.5076H847.445H845.149V12.4318H842.853V14.3561H840.557V16.2804H838.261V18.2087H835.965V20.133V22.0572V23.9815H833.669H831.373H829.077H826.781H824.481H822.185H819.889V25.9099H817.593H815.297V27.8341H813.001V29.7584H810.705V31.6827V33.611V35.5353V37.4596V39.3838V41.3122H813.001V43.2365V45.1607H815.297V47.085H817.593V49.0133H819.889H822.185H824.481H826.781H829.077H831.373V47.085H833.669V45.1607H835.965H838.261V47.085H840.557V49.0133H842.853V50.9376H845.149H847.445V52.8619H849.741H852.041H854.337H856.633H858.929H861.225H863.521H865.817V50.9376H868.113H870.409V49.0133H872.705V47.085H875.001V45.1607H877.301V43.2365V41.3122H879.597V39.3838H881.893V41.3122H884.189V43.2365H886.485V45.1607H888.781H891.077H893.373H895.669H897.965H900.261V43.2365H902.561V41.3122H904.857V43.2365V45.1607V47.085V49.0133V50.9376V52.8619V54.7861H907.153V56.7104V58.6388H909.449V60.563H911.745V62.4873H914.041V64.4116H916.337V62.4873V60.563H918.633V58.6388H920.929V56.7104V54.7861V52.8619V50.9376V49.0133V47.085V45.1607H918.633Z" fill="#5E884E"/>
<path d="M564.641 43.6098V41.6855V39.7613H562.345V37.837H560.049V35.9086H557.753V33.9844H555.457H553.161H550.865V32.0601V30.1359V28.2075H548.569V26.2832V24.359V22.4347H546.273V20.5063H543.977V18.5821H541.681V16.6578H539.381V14.7335H537.085H534.789H532.493H530.197H527.901H525.605H523.309H521.014V16.6578H518.718V14.7335V12.8052H516.422V10.8809H514.126H511.826V8.95664H509.53V7.03238H507.234H504.938H502.642H500.346H498.05H495.754V8.95664H493.458H491.162V10.8809H488.866V12.8052H486.57V14.7335H484.27V16.6578H481.974V18.5821V20.5063V22.4347H479.678H477.382H475.086H472.79H470.494H468.198H465.902V24.359H463.602H461.306V26.2832H459.01V28.2075H456.714V30.1359V32.0601V33.9844V35.9086V37.837V39.7613H459.01V41.6855V43.6098H461.306V45.5382H463.602V47.4624H465.902H468.198H470.494H472.79H475.086H477.382V45.5382H479.678V43.6098H481.974H484.27V45.5382H486.57V47.4624H488.866V49.3867H491.162H493.458V51.311H495.754H498.05H500.346H502.642H504.938H507.234H509.53H511.826V49.3867H514.126H516.422V47.4624H518.718V45.5382H521.014V43.6098H523.309V41.6855V39.7613H525.605V37.837H527.901V39.7613H530.197V41.6855H532.493V43.6098H534.789H537.085H539.381H541.681H543.977H546.273V41.6855H548.569V39.7613H550.865V41.6855V43.6098V45.5382V47.4624V49.3867V51.311V53.2393H553.161V55.1636V57.0878H555.457V59.0121H557.753V60.9405H560.049V62.8647H562.345V60.9405V59.0121H564.641V57.0878H566.937V55.1636V53.2393V51.311V49.3867V47.4624V45.5382V43.6098H564.641Z" fill="#5E884E"/>
<path d="M380.951 36.5815V34.6573V32.7289H378.655V30.8046H376.359V28.8804H374.063V26.952H371.767H369.471H367.171V25.0277V23.1035V21.1792H364.875V19.2508V17.3266V15.4023H362.579V13.4781H360.283V11.5497H357.987V9.62542H355.691V7.70116H353.395H351.099H348.803H346.503H344.207H341.911H339.615H337.319V9.62542H335.023V7.70116V5.77689H332.727V3.84853H330.431H328.135V1.92426H325.839V0H323.543H321.247H318.947H316.651H314.355H312.059V1.92426H309.763H307.467V3.84853H305.171V5.77689H302.875V7.70116H300.579V9.62542H298.283V11.5497V13.4781V15.4023H295.987H293.691H291.391H289.095H286.799H284.503H282.207V17.3266H279.911H277.615V19.2508H275.319V21.1792H273.023V23.1035V25.0277V26.952V28.8804V30.8046V32.7289H275.319V34.6573V36.5815H277.615V38.5058H279.911V40.43H282.207H284.503H286.799H289.095H291.391H293.691V38.5058H295.987V36.5815H298.283H300.579V38.5058H302.875V40.43H305.171V42.3584H307.467H309.763V44.2827H312.059H314.355H316.651H318.947H321.247H323.543H325.839H328.135V42.3584H330.431H332.727V40.43H335.023V38.5058H337.319V36.5815H339.615V34.6573V32.7289H341.911V30.8046H344.207V32.7289H346.503V34.6573H348.803V36.5815H351.099H353.395H355.691H357.987H360.283H362.579V34.6573H364.875V32.7289H367.171V34.6573V36.5815V38.5058V40.43V42.3584V44.2827V46.2069H369.471V48.1312V50.0555H371.767V51.9838H374.063V53.9081H376.359V55.8324H378.655V53.9081V51.9838H380.951V50.0555H383.247V48.1312V46.2069V44.2827V42.3584V40.43V38.5058V36.5815H380.951Z" fill="#5E884E"/>
<path d="M127.879 40.0977V38.1693V36.2451H125.583V34.3208H123.287V32.3966H120.991V30.4682H118.696H116.4H114.104V28.5439V26.6197V24.6954H111.808V22.767V20.8428V18.9185H109.508V16.9942H107.212V15.0659H104.916V13.1416H102.62V11.2173H100.324H98.0276H95.7317H93.4357H91.1397H88.8437H86.5478H84.2477V13.1416H81.9517V11.2173V9.29308H79.6557V7.36472H77.3597H75.0638V5.44045H72.7678V3.51619H70.4718H68.1758H65.8799H63.5839H61.2879H58.9919V5.44045H56.6919H54.3959V7.36472H52.0999V9.29308H49.8039V11.2173H47.508V13.1416H45.212V15.0659V16.9942V18.9185H42.916H40.62H38.3241H36.0281H33.7321H31.432H29.136V20.8428H26.8401H24.5441V22.767H22.2481V24.6954H19.9521V26.6197V28.5439V30.4682V32.3966V34.3208V36.2451H22.2481V38.1693V40.0977H24.5441V42.022H26.8401V43.9462H29.136H31.432H33.7321H36.0281H38.3241H40.62V42.022H42.916V40.0977H45.212H47.508V42.022H49.8039V43.9462H52.0999V45.8705H54.3959H56.6919V47.7948H58.9919H61.2879H63.5839H65.8799H68.1758H70.4718H72.7678H75.0638V45.8705H77.3597H79.6557V43.9462H81.9517V42.022H84.2477V40.0977H86.5478V38.1693V36.2451H88.8437V34.3208H91.1397V36.2451H93.4357V38.1693H95.7317V40.0977H98.0276H100.324H102.62H104.916H107.212H109.508V38.1693H111.808V36.2451H114.104V38.1693V40.0977V42.022V43.9462V45.8705V47.7948V49.7231H116.4V51.6474V53.5717H118.696V55.5H120.991V57.4243H123.287V59.3486H125.583V57.4243V55.5H127.879V53.5717H130.175V51.6474V49.7231V47.7948V45.8705V43.9462V42.022V40.0977H127.879Z" fill="#5E884E"/>
</svg>
