<svg width="1728" height="223" viewBox="0 0 1728 223" fill="none" xmlns="http://www.w3.org/2000/svg">
<path d="M1116 60.6082H795.395V135.917H1116V60.6082Z" fill="#5E884E"/>
<path d="M1116 73.4913H1097.32V88.9387H1047.73V99.5611H975.748V126.595H943.761V88.9387H902.17V102.458H847.786V121.77H795.395V135.917H1116V73.4913Z" fill="#416633"/>
<path d="M1116 135.917H795.395V222.812H1116V135.917Z" fill="#262626"/>
<path d="M1116 202.876V161.355H1114.91V175.838H1074.92V159.427H1038.13V145.908H1023.74V156.53H1010.94V171.977H983.747V156.53H948.558V175.838H921.365V150.737H870.182V161.355H826.995V178.735H795.395V196.115H833.393V222.812H854.185V187.425H884.576V204.805H906.972V193.218H956.557V208.67H980.55V194.187H1026.93V211.566H1062.12V199.012H1092.51V202.876H1116Z" fill="#353535"/>
<path d="M1044.13 173.089H1022.93V185.64H1044.13V173.089Z" fill="#262626"/>
<path d="M1091.72 182.904H1070.52V195.454H1091.72V182.904Z" fill="#262626"/>
<path d="M1001.74 185.64H980.55V198.191H1001.74V185.64Z" fill="#262626"/>
<path d="M928.166 186.547H906.972V199.098H928.166V186.547Z" fill="#262626"/>
<path d="M890.842 160.534H869.647V173.085H890.842V160.534Z" fill="#262626"/>
<path d="M835.393 178.399H814.198V190.949H835.393V178.399Z" fill="#262626"/>
<path d="M1041.33 124.33H1015.74V136.885H1041.33V124.33Z" fill="#262626"/>
<path d="M918.167 129.64H892.574V142.19H918.167V129.64Z" fill="#262626"/>
<path d="M1015.74 130.604H990.145V143.155H1015.74V130.604Z" fill="#416633"/>
<path d="M1091.72 129.976H1066.12V142.527H1091.72V129.976Z" fill="#416633"/>
<path d="M962.153 133.262H936.56V145.817H962.153V133.262Z" fill="#416633"/>
<path d="M862.183 129.64H836.59V142.19H862.183V129.64Z" fill="#416633"/>
<path d="M815.487 60.6082H0V135.917H815.487V60.6082Z" fill="#5E884E"/>
<path d="M791.943 80.2488V91.8354H775.949V103.422H739.16V113.08H703.971V96.6645H687.974V91.8354H655.986V86.0421H627.192V100.525H612.799V121.77H596.801V100.525H571.208V81.217H553.614V108.251H496.033V82.1812H443.247V101.494H414.456V111.148H377.667V98.597H364.871V104.39H328.082V73.4913H294.494V88.9387H244.908V99.5611H172.926V126.595H140.939V88.9387H99.3523V102.458H44.9649V121.77H0V135.917H815.487V80.2488H791.943Z" fill="#416633"/>
<path d="M815.487 135.917H0V222.812H815.487V135.917Z" fill="#262626"/>
<path d="M798.341 171.977V144.943H753.553V160.391H703.971V135.917H686.377V156.53H663.981V164.252H635.191V156.53H592.003V168.117H550.417V135.917H542.418V154.598H492.832V174.874H432.051V159.427H392.064V150.737H379.268V180.667H334.48V161.355H312.088V175.838H272.098V159.427H235.309V145.908H220.916V156.53H208.119V171.977H180.925V156.53H145.737V175.838H118.547V150.737H67.3609V161.355H24.1736V178.735H0V196.115H30.5718V222.812H51.3673V187.425H81.754V204.805H104.15V193.218H153.736V208.67H177.728V194.186H224.113V211.566H259.301V199.012H289.696V202.876H334.48V193.218H412.856V187.425H510.426V208.67H524.824V197.083H603.199V222.812H633.59V180.667H665.582V200.944H689.574V186.461H745.558V215.427H783.948V202.876H788.745V180.667H815.487V171.977H798.341Z" fill="#353535"/>
<path d="M785.187 152.329H793.095V152.107C790.457 152.156 787.824 152.23 785.187 152.329Z" fill="white"/>
<path d="M737.559 124.33H711.966V136.885H737.559V124.33Z" fill="#262626"/>
<path d="M483.237 124.33H457.644V136.885H483.237V124.33Z" fill="#262626"/>
<path d="M348.877 124.33H323.284V136.885H348.877V124.33Z" fill="#262626"/>
<path d="M241.308 173.089H220.113V185.64H241.308V173.089Z" fill="#262626"/>
<path d="M288.894 182.904H267.699V195.454H288.894V182.904Z" fill="#262626"/>
<path d="M418.188 165.524H396.994V178.074H418.188V165.524Z" fill="#262626"/>
<path d="M397.261 184.032H376.066V196.583H397.261V184.032Z" fill="#262626"/>
<path d="M476.439 169.549H455.245V182.099H476.439V169.549Z" fill="#262626"/>
<path d="M540.418 173.089H519.224V185.64H540.418V173.089Z" fill="#262626"/>
<path d="M576.409 179.363H555.214V191.914H576.409V179.363Z" fill="#262626"/>
<path d="M626.394 163.271H605.199V175.822H626.394V163.271Z" fill="#262626"/>
<path d="M681.378 167.616H660.183V180.167H681.378V167.616Z" fill="#262626"/>
<path d="M766.687 163.271H745.492V175.822H766.687V163.271Z" fill="#262626"/>
<path d="M782.948 185.64H761.753V198.191H782.948V185.64Z" fill="#262626"/>
<path d="M733.16 179.363H711.966V191.914H733.16V179.363Z" fill="#262626"/>
<path d="M641.425 199.799H620.23V212.35H641.425V199.799Z" fill="#262626"/>
<path d="M198.923 185.64H177.728V198.191H198.923V185.64Z" fill="#262626"/>
<path d="M125.344 186.547H104.15V199.098H125.344V186.547Z" fill="#262626"/>
<path d="M88.0207 160.534H66.8262V173.085H88.0207V160.534Z" fill="#262626"/>
<path d="M32.5715 178.399H11.377V190.949H32.5715V178.399Z" fill="#262626"/>
<path d="M238.51 124.33H212.917V136.885H238.51V124.33Z" fill="#262626"/>
<path d="M560.012 129.976H534.419V142.527H560.012V129.976Z" fill="#262626"/>
<path d="M643.622 129.64H618.029V142.19H643.622V129.64Z" fill="#262626"/>
<path d="M115.346 129.64H89.7529V142.19H115.346V129.64Z" fill="#262626"/>
<path d="M212.917 130.604H187.324V143.155H212.917V130.604Z" fill="#416633"/>
<path d="M288.894 129.976H263.301V142.527H288.894V129.976Z" fill="#416633"/>
<path d="M388.863 133.262H363.27V145.817H388.863V133.262Z" fill="#416633"/>
<path d="M440.848 129.976H415.254V142.527H440.848V129.976Z" fill="#416633"/>
<path d="M534.423 133.262H508.83V145.817H534.423V133.262Z" fill="#416633"/>
<path d="M605.199 133.262H579.606V145.817H605.199V133.262Z" fill="#416633"/>
<path d="M683.575 133.262H657.982V145.817H683.575V133.262Z" fill="#416633"/>
<path d="M777.949 125.779H752.355V138.33H777.949V125.779Z" fill="#416633"/>
<path d="M159.331 133.262H133.738V145.817H159.331V133.262Z" fill="#416633"/>
<path d="M59.3622 129.64H33.769V142.19H59.3622V129.64Z" fill="#416633"/>
<path d="M69.5787 67.8292V65.905H67.2828V63.9807H64.9868V60.1281H62.6867V46.6541H60.3907V48.5784H58.0947V50.5026H44.3189V48.5784H42.0229V46.6541H39.7269V44.7299H37.4269V46.6541H35.1309V50.5026H32.8349V52.431H30.5389V54.3553H28.243V56.2795H23.651V58.2038H5.2791V56.2795H0.687146V54.3553H0V71.6819H69.5787V69.7576H71.8747V67.8292H69.5787Z" fill="#416633"/>
<path d="M76.4667 50.5027V46.6541H74.1707V44.7299H71.8747V42.8015H69.5787V40.8772H62.6867V35.1004H60.3907V29.3235H58.0947V27.3992H55.7988V25.4749H53.5028V23.5507H51.2068V21.6223H32.8349V23.5507H30.5389V19.698H28.243V17.7738H23.651V15.8495H21.355V13.9211H7.57507V15.8495H2.98312V17.7738H0.687146V19.698H0V54.3553H0.687146V56.2796H5.2791V58.2038H23.651V56.2796H28.243V54.3553H30.5389V52.431H32.8349V50.5027H35.1309V46.6541H37.4269V44.7299H39.7269V46.6541H42.0229V48.5784H44.3189V50.5027H58.0947V48.5784H60.3907V46.6541H62.6867V60.1281H64.9868V63.9807H67.2828V65.905H69.5787V67.8293H71.8747V69.7576H74.1707V65.905H76.4667V63.9807H78.7626V50.5027H76.4667Z" fill="#5E884E"/>
<path d="M158.805 67.8293V65.905H156.509V63.9807H154.213V62.0565V60.1281H151.917V58.2038V56.2796V54.3553V52.4311V50.5027V48.5784V46.6542H149.621V48.5784H147.325V50.5027H145.029H142.733H140.437H138.141H135.845H133.545V48.5784H131.249V46.6542H128.953V44.7299H126.657V46.6542H124.361V48.5784V50.5027H122.065V52.4311H119.769V54.3553H117.473V56.2796H115.177H112.882V58.2038H110.586H108.285H105.989H103.694H101.398H99.1016H96.8056H94.5096V56.2796H92.2136H89.9177V54.3553H87.6217V52.4311H85.3257V50.5027H83.0297H80.7296V52.4311H78.4337V54.3553H76.1377H73.8417H71.5457H69.2498H66.9538H64.6578V52.4311H62.3618V50.5027H60.0618V48.5784V46.6542H57.7658V44.7299V42.8015V40.8773V38.953H55.4698V40.8773V42.8015V44.7299H53.1738V46.6542V48.5784V50.5027V52.4311V54.3553V56.2796H55.4698V58.2038V60.1281V62.0565H57.7658V63.9807V65.905H60.0618V67.8293H62.3618V69.7576H64.6578H66.9538V71.6819H69.2498H71.5457H73.8417H76.1377H78.4337H80.7296H83.0297H85.3257H87.6217H89.9177H92.2136H94.5096H96.8056H99.1016H101.398H103.694H105.989H108.285H110.586H112.882H115.177H117.473H119.769H122.065H124.361H126.657H128.953H131.249H133.545H135.845H138.141H140.437H142.733H145.029H147.325H149.621H151.917H154.213H156.509H158.805V69.7576H161.101V67.8293H158.805Z" fill="#416633"/>
<path d="M165.697 50.5027V48.5784V46.6541H163.401V44.7299H161.101V42.8015H158.805V40.8772H156.509H154.213H151.917V38.953V37.0287V35.1004H149.621V33.1761V31.2518V29.3235H147.325V27.3992H145.029V25.4749H142.733V23.5507H140.437V21.6223H138.141H135.845H133.545H131.249H128.953H126.657H124.361H122.065V23.5507H119.769V21.6223V19.698H117.473V17.7738H115.177H112.881V15.8495H110.585V13.9211H108.285H105.989H103.693H101.397H99.1014H96.8054V15.8495H94.5094H92.2135V17.7738H89.9175V19.698H87.6215V21.6223H85.3255V23.5507H83.0296V25.4749V27.3992V29.3235H80.7295H78.4335H76.1375H73.8416H71.5456H69.2496H66.9536V31.2518H64.6577H62.3617V33.1761H60.0616V35.1004H57.7656V37.0287V38.953V40.8772V42.8015V44.7299V46.6541H60.0616V48.5784V50.5027H62.3617V52.431H64.6577V54.3553H66.9536H69.2496H71.5456H73.8416H76.1375H78.4335V52.431H80.7295V50.5027H83.0296H85.3255V52.431H87.6215V54.3553H89.9175V56.2796H92.2135H94.5094V58.2038H96.8054H99.1014H101.397H103.693H105.989H108.285H110.585H112.881V56.2796H115.177H117.473V54.3553H119.769V52.431H122.065V50.5027H124.361V48.5784V46.6541H126.657V44.7299H128.953V46.6541H131.249V48.5784H133.545V50.5027H135.845H138.141H140.437H142.733H145.029H147.325V48.5784H149.621V46.6541H151.917V48.5784V50.5027V52.431V54.3553V56.2796V58.2038V60.1281H154.213V62.0565V63.9807H156.509V65.905H158.805V67.8293H161.101V69.7576H163.401V67.8293V65.905H165.697V63.9807H167.993V62.0565V60.1281V58.2038V56.2796V54.3553V52.431V50.5027H165.697Z" fill="#5E884E"/>
<path d="M248.035 67.8293V65.905H245.739V63.9807H243.443V62.0565V60.1281H241.147V58.2038V56.2796V54.3553V52.4311V50.5027V48.5784V46.6542H238.851V48.5784H236.555V50.5027H234.259H231.963H229.663H227.367H225.071H222.775V48.5784H220.479V46.6542H218.183V44.7299H215.887V46.6542H213.591V48.5784V50.5027H211.295V52.4311H208.999V54.3553H206.703V56.2796H204.403H202.107V58.2038H199.811H197.515H195.219H192.923H190.628H188.332H186.036H183.735V56.2796H181.439H179.144V54.3553H176.848V52.4311H174.552V50.5027H172.256H169.96V52.4311H167.664V54.3553H165.368H163.072H160.776H158.48H156.18H153.884V52.4311H151.588V50.5027H149.292V48.5784V46.6542H146.996V44.7299V42.8015V40.8773V38.953H144.7V40.8773V42.8015V44.7299H142.404V46.6542V48.5784V50.5027V52.4311V54.3553V56.2796H144.7V58.2038V60.1281V62.0565H146.996V63.9807V65.905H149.292V67.8293H151.588V69.7576H153.884H156.18V71.6819H158.48H160.776H163.072H165.368H167.664H169.96H172.256H174.552H176.848H179.144H181.439H183.735H186.036H188.332H190.628H192.923H195.219H197.515H199.811H202.107H204.403H206.703H208.999H211.295H213.591H215.887H218.183H220.479H222.775H225.071H227.367H229.663H231.963H234.259H236.555H238.851H241.147H243.443H245.739H248.035V69.7576H250.331V67.8293H248.035Z" fill="#416633"/>
<path d="M254.923 50.5027V48.5784V46.6541H252.627V44.7299H250.331V42.8015H248.035V40.8772H245.739H243.443H241.147V38.953V37.0287V35.1004H238.851V33.1761V31.2518V29.3235H236.555V27.3992H234.259V25.4749H231.963V23.5507H229.663V21.6223H227.367H225.071H222.775H220.479H218.183H215.887H213.591H211.295V23.5507H208.999V21.6223V19.698H206.703V17.7738H204.403H202.107V15.8495H199.811V13.9211H197.515H195.219H192.923H190.627H188.331H186.035V15.8495H183.735H181.439V17.7738H179.143V19.698H176.847V21.6223H174.551V23.5507H172.255V25.4749V27.3992V29.3235H169.959H167.663H165.368H163.072H160.776H158.48H156.18V31.2518H153.884H151.588V33.1761H149.292V35.1004H146.996V37.0287V38.953V40.8772V42.8015V44.7299V46.6541H149.292V48.5784V50.5027H151.588V52.431H153.884V54.3553H156.18H158.48H160.776H163.072H165.368H167.663V52.431H169.959V50.5027H172.255H174.551V52.431H176.847V54.3553H179.143V56.2796H181.439H183.735V58.2038H186.035H188.331H190.627H192.923H195.219H197.515H199.811H202.107V56.2796H204.403H206.703V54.3553H208.999V52.431H211.295V50.5027H213.591V48.5784V46.6541H215.887V44.7299H218.183V46.6541H220.479V48.5784H222.775V50.5027H225.071H227.367H229.663H231.963H234.259H236.555V48.5784H238.851V46.6541H241.147V48.5784V50.5027V52.431V54.3553V56.2796V58.2038V60.1281H243.443V62.0565V63.9807H245.739V65.905H248.035V67.8293H250.331V69.7576H252.627V67.8293V65.905H254.923V63.9807H257.219V62.0565V60.1281V58.2038V56.2796V54.3553V52.431V50.5027H254.923Z" fill="#5E884E"/>
<path d="M337.266 67.8293V65.905H334.97V63.9807H332.674V62.0565V60.1281H330.374V58.2038V56.2796V54.3553V52.4311V50.5027V48.5784V46.6542H328.078V48.5784H325.782V50.5027H323.486H321.19H318.894H316.598H314.302H312.006V48.5784H309.71V46.6542H307.414V44.7299H305.114V46.6542H302.818V48.5784V50.5027H300.522V52.4311H298.226V54.3553H295.93V56.2796H293.634H291.338V58.2038H289.042H286.746H284.45H282.154H279.854H277.558H275.262H272.966V56.2796H270.67H268.374V54.3553H266.078V52.4311H263.782V50.5027H261.486H259.19V52.4311H256.894V54.3553H254.598H252.298H250.002H247.706H245.41H243.114V52.4311H240.818V50.5027H238.522V48.5784V46.6542H236.226V44.7299V42.8015V40.8773V38.953H233.93V40.8773V42.8015V44.7299H231.634V46.6542V48.5784V50.5027V52.4311V54.3553V56.2796H233.93V58.2038V60.1281V62.0565H236.226V63.9807V65.905H238.522V67.8293H240.818V69.7576H243.114H245.41V71.6819H247.706H250.002H252.298H254.598H256.894H259.19H261.486H263.782H266.078H268.374H270.67H272.966H275.262H277.558H279.854H282.154H284.45H286.746H289.042H291.338H293.634H295.93H298.226H300.522H302.818H305.114H307.414H309.71H312.006H314.302H316.598H318.894H321.19H323.486H325.782H328.078H330.374H332.674H334.97H337.266V69.7576H339.562V67.8293H337.266Z" fill="#416633"/>
<path d="M344.153 50.5027V48.5784V46.6541H341.857V44.7299H339.561V42.8015H337.265V40.8772H334.969H332.673H330.373V38.953V37.0287V35.1004H328.077V33.1761V31.2518V29.3235H325.781V27.3992H323.485V25.4749H321.189V23.5507H318.894V21.6223H316.598H314.302H312.006H309.71H307.414H305.114H302.818H300.522V23.5507H298.226V21.6223V19.698H295.93V17.7738H293.634H291.338V15.8495H289.042V13.9211H286.746H284.45H282.154H279.854H277.558H275.262V15.8495H272.966H270.67V17.7738H268.374V19.698H266.078V21.6223H263.782V23.5507H261.486V25.4749V27.3992V29.3235H259.19H256.894H254.598H252.298H250.002H247.706H245.41V31.2518H243.114H240.818V33.1761H238.522V35.1004H236.226V37.0287V38.953V40.8772V42.8015V44.7299V46.6541H238.522V48.5784V50.5027H240.818V52.431H243.114V54.3553H245.41H247.706H250.002H252.298H254.598H256.894V52.431H259.19V50.5027H261.486H263.782V52.431H266.078V54.3553H268.374V56.2796H270.67H272.966V58.2038H275.262H277.558H279.854H282.154H284.45H286.746H289.042H291.338V56.2796H293.634H295.93V54.3553H298.226V52.431H300.522V50.5027H302.818V48.5784V46.6541H305.114V44.7299H307.414V46.6541H309.71V48.5784H312.006V50.5027H314.302H316.598H318.894H321.189H323.485H325.781V48.5784H328.077V46.6541H330.373V48.5784V50.5027V52.431V54.3553V56.2796V58.2038V60.1281H332.673V62.0565V63.9807H334.969V65.905H337.265V67.8293H339.561V69.7576H341.857V67.8293V65.905H344.153V63.9807H346.449V62.0565V60.1281V58.2038V56.2796V54.3553V52.431V50.5027H344.153Z" fill="#5E884E"/>
<path d="M426.492 67.8293V65.905H424.196V63.9807H421.9V62.0565V60.1281H419.604V58.2038V56.2796V54.3553V52.4311V50.5027V48.5784V46.6542H417.308V48.5784H415.012V50.5027H412.716H410.42H408.124H405.828H403.528H401.232V48.5784H398.936V46.6542H396.64V44.7299H394.344V46.6542H392.048V48.5784V50.5027H389.752V52.4311H387.456V54.3553H385.16V56.2796H382.864H380.568V58.2038H378.268H375.972H373.676H371.38H369.084H366.788H364.492H362.196V56.2796H359.9H357.604V54.3553H355.308V52.4311H353.012V50.5027H350.712H348.416V52.4311H346.12V54.3553H343.824H341.528H339.232H336.936H334.64H332.344V52.4311H330.048V50.5027H327.752V48.5784V46.6542H325.456V44.7299V42.8015V40.8773V38.953H323.156V40.8773V42.8015V44.7299H320.86V46.6542V48.5784V50.5027V52.4311V54.3553V56.2796H323.156V58.2038V60.1281V62.0565H325.456V63.9807V65.905H327.752V67.8293H330.048V69.7576H332.344H334.64V71.6819H336.936H339.232H341.528H343.824H346.12H348.416H350.712H353.012H355.308H357.604H359.9H362.196H364.492H366.788H369.084H371.38H373.676H375.972H378.268H380.568H382.864H385.16H387.456H389.752H392.048H394.344H396.64H398.936H401.232H403.528H405.828H408.124H410.42H412.716H415.012H417.308H419.604H421.9H424.196H426.492V69.7576H428.788V67.8293H426.492Z" fill="#416633"/>
<path d="M433.384 50.5027V48.5784V46.6541H431.084V44.7299H428.788V42.8015H426.492V40.8772H424.196H421.9H419.604V38.953V37.0287V35.1004H417.308V33.1761V31.2518V29.3235H415.012V27.3992H412.716V25.4749H410.42V23.5507H408.124V21.6223H405.828H403.528H401.232H398.936H396.64H394.344H392.048H389.752V23.5507H387.456V21.6223V19.698H385.16V17.7738H382.864H380.568V15.8495H378.268V13.9211H375.972H373.676H371.38H369.084H366.788H364.492V15.8495H362.196H359.9V17.7738H357.604V19.698H355.308V21.6223H353.012V23.5507H350.712V25.4749V27.3992V29.3235H348.416H346.12H343.824H341.528H339.232H336.936H334.64V31.2518H332.344H330.049V33.1761H327.753V35.1004H325.457V37.0287V38.953V40.8772V42.8015V44.7299V46.6541H327.753V48.5784V50.5027H330.049V52.431H332.344V54.3553H334.64H336.936H339.232H341.528H343.824H346.12V52.431H348.416V50.5027H350.712H353.012V52.431H355.308V54.3553H357.604V56.2796H359.9H362.196V58.2038H364.492H366.788H369.084H371.38H373.676H375.972H378.268H380.568V56.2796H382.864H385.16V54.3553H387.456V52.431H389.752V50.5027H392.048V48.5784V46.6541H394.344V44.7299H396.64V46.6541H398.936V48.5784H401.232V50.5027H403.528H405.828H408.124H410.42H412.716H415.012V48.5784H417.308V46.6541H419.604V48.5784V50.5027V52.431V54.3553V56.2796V58.2038V60.1281H421.9V62.0565V63.9807H424.196V65.905H426.492V67.8293H428.788V69.7576H431.084V67.8293V65.905H433.384V63.9807H435.68V62.0565V60.1281V58.2038V56.2796V54.3553V52.431V50.5027H433.384Z" fill="#5E884E"/>
<path d="M515.722 67.8293V65.905H513.426V63.9807H511.13V62.0565V60.1281H508.834V58.2038V56.2796V54.3553V52.4311V50.5027V48.5784V46.6542H506.538V48.5784H504.242V50.5027H501.946H499.646H497.35H495.054H492.758H490.462V48.5784H488.166V46.6542H485.87V44.7299H483.574V46.6542H481.278V48.5784V50.5027H478.982V52.4311H476.686V54.3553H474.386V56.2796H472.09H469.794V58.2038H467.498H465.202H462.906H460.61H458.315H456.019H453.723H451.427V56.2796H449.131H446.831V54.3553H444.535V52.4311H442.239V50.5027H439.943H437.647V52.4311H435.351V54.3553H433.055H430.759H428.463H426.167H423.871H421.571V52.4311H419.275V50.5027H416.979V48.5784V46.6542H414.683V44.7299V42.8015V40.8773V38.953H412.387V40.8773V42.8015V44.7299H410.091V46.6542V48.5784V50.5027V52.4311V54.3553V56.2796H412.387V58.2038V60.1281V62.0565H414.683V63.9807V65.905H416.979V67.8293H419.275V69.7576H421.571H423.871V71.6819H426.167H428.463H430.759H433.055H435.351H437.647H439.943H442.239H444.535H446.831H449.131H451.427H453.723H456.019H458.315H460.61H462.906H465.202H467.498H469.794H472.09H474.386H476.686H478.982H481.278H483.574H485.87H488.166H490.462H492.758H495.054H497.35H499.646H501.946H504.242H506.538H508.834H511.13H513.426H515.722V69.7576H518.018V67.8293H515.722Z" fill="#416633"/>
<path d="M522.61 50.5027V48.5784V46.6541H520.314V44.7299H518.018V42.8015H515.722V40.8772H513.426H511.13H508.834V38.953V37.0287V35.1004H506.538V33.1761V31.2518V29.3235H504.242V27.3992H501.946V25.4749H499.646V23.5507H497.35V21.6223H495.054H492.758H490.462H488.166H485.87H483.574H481.278H478.982V23.5507H476.686V21.6223V19.698H474.386V17.7738H472.09H469.794V15.8495H467.498V13.9211H465.202H462.906H460.61H458.314H456.018H453.722V15.8495H451.426H449.13V17.7738H446.83V19.698H444.534V21.6223H442.238V23.5507H439.942V25.4749V27.3992V29.3235H437.646H435.351H433.055H430.759H428.463H426.167H423.871V31.2518H421.571H419.275V33.1761H416.979V35.1004H414.683V37.0287V38.953V40.8772V42.8015V44.7299V46.6541H416.979V48.5784V50.5027H419.275V52.431H421.571V54.3553H423.871H426.167H428.463H430.759H433.055H435.351V52.431H437.646V50.5027H439.942H442.238V52.431H444.534V54.3553H446.83V56.2796H449.13H451.426V58.2038H453.722H456.018H458.314H460.61H462.906H465.202H467.498H469.794V56.2796H472.09H474.386V54.3553H476.686V52.431H478.982V50.5027H481.278V48.5784V46.6541H483.574V44.7299H485.87V46.6541H488.166V48.5784H490.462V50.5027H492.758H495.054H497.35H499.646H501.946H504.242V48.5784H506.538V46.6541H508.834V48.5784V50.5027V52.431V54.3553V56.2796V58.2038V60.1281H511.13V62.0565V63.9807H513.426V65.905H515.722V67.8293H518.018V69.7576H520.314V67.8293V65.905H522.61V63.9807H524.906V62.0565V60.1281V58.2038V56.2796V54.3553V52.431V50.5027H522.61Z" fill="#5E884E"/>
<path d="M604.952 67.8293V65.905H602.656V63.9807H600.36V62.0565V60.1281H598.064V58.2038V56.2796V54.3553V52.4311V50.5027V48.5784V46.6542H595.764V48.5784H593.468V50.5027H591.172H588.876H586.58H584.284H581.988H579.692V48.5784H577.396V46.6542H575.1V44.7299H572.804V46.6542H570.504V48.5784V50.5027H568.208V52.4311H565.912V54.3553H563.616V56.2796H561.32H559.024V58.2038H556.728H554.432H552.136H549.84H547.54H545.244H542.948H540.652V56.2796H538.356H536.061V54.3553H533.765V52.4311H531.469V50.5027H529.173H526.877V52.4311H524.581V54.3553H522.281H519.985H517.689H515.393H513.097H510.801V52.4311H508.505V50.5027H506.209V48.5784V46.6542H503.913V44.7299V42.8015V40.8773V38.953H501.617V40.8773V42.8015V44.7299H499.321V46.6542V48.5784V50.5027V52.4311V54.3553V56.2796H501.617V58.2038V60.1281V62.0565H503.913V63.9807V65.905H506.209V67.8293H508.505V69.7576H510.801H513.097V71.6819H515.393H517.689H519.985H522.281H524.581H526.877H529.173H531.469H533.765H536.061H538.356H540.652H542.948H545.244H547.54H549.84H552.136H554.432H556.728H559.024H561.32H563.616H565.912H568.208H570.504H572.804H575.1H577.396H579.692H581.988H584.284H586.58H588.876H591.172H593.468H595.764H598.064H600.36H602.656H604.952V69.7576H607.248V67.8293H604.952Z" fill="#416633"/>
<path d="M611.84 50.5027V48.5784V46.6541H609.544V44.7299H607.248V42.8015H604.952V40.8772H602.656H600.36H598.064V38.953V37.0287V35.1004H595.764V33.1761V31.2518V29.3235H593.468V27.3992H591.172V25.4749H588.876V23.5507H586.58V21.6223H584.284H581.988H579.692H577.396H575.1H572.804H570.504H568.208V23.5507H565.912V21.6223V19.698H563.616V17.7738H561.32H559.024V15.8495H556.728V13.9211H554.432H552.136H549.84H547.54H545.244H542.948V15.8495H540.652H538.356V17.7738H536.06V19.698H533.764V21.6223H531.468V23.5507H529.172V25.4749V27.3992V29.3235H526.876H524.58H522.28H519.984H517.688H515.392H513.096V31.2518H510.801H508.505V33.1761H506.209V35.1004H503.913V37.0287V38.953V40.8772V42.8015V44.7299V46.6541H506.209V48.5784V50.5027H508.505V52.431H510.801V54.3553H513.096H515.392H517.688H519.984H522.28H524.58V52.431H526.876V50.5027H529.172H531.468V52.431H533.764V54.3553H536.06V56.2796H538.356H540.652V58.2038H542.948H545.244H547.54H549.84H552.136H554.432H556.728H559.024V56.2796H561.32H563.616V54.3553H565.912V52.431H568.208V50.5027H570.504V48.5784V46.6541H572.804V44.7299H575.1V46.6541H577.396V48.5784H579.692V50.5027H581.988H584.284H586.58H588.876H591.172H593.468V48.5784H595.764V46.6541H598.064V48.5784V50.5027V52.431V54.3553V56.2796V58.2038V60.1281H600.36V62.0565V63.9807H602.656V65.905H604.952V67.8293H607.248V69.7576H609.544V67.8293V65.905H611.84V63.9807H614.136V62.0565V60.1281V58.2038V56.2796V54.3553V52.431V50.5027H611.84Z" fill="#5E884E"/>
<path d="M694.179 67.8293V65.905H691.883V63.9807H689.587V62.0565V60.1281H687.291V58.2038V56.2796V54.3553V52.4311V50.5027V48.5784V46.6542H684.995V48.5784H682.699V50.5027H680.403H678.107H675.811H673.511H671.215H668.919V48.5784H666.623V46.6542H664.327V44.7299H662.031V46.6542H659.735V48.5784V50.5027H657.439V52.4311H655.143V54.3553H652.847V56.2796H650.551H648.251V58.2038H645.955H643.659H641.363H639.067H636.771H634.475H632.179H629.883V56.2796H627.587H625.291V54.3553H622.995V52.4311H620.695V50.5027H618.399H616.103V52.4311H613.807V54.3553H611.511H609.215H606.919H604.623H602.327H600.031V52.4311H597.735V50.5027H595.439V48.5784V46.6542H593.139V44.7299V42.8015V40.8773V38.953H590.843V40.8773V42.8015V44.7299H588.547V46.6542V48.5784V50.5027V52.4311V54.3553V56.2796H590.843V58.2038V60.1281V62.0565H593.139V63.9807V65.905H595.439V67.8293H597.735V69.7576H600.031H602.327V71.6819H604.623H606.919H609.215H611.511H613.807H616.103H618.399H620.695H622.995H625.291H627.587H629.883H632.179H634.475H636.771H639.067H641.363H643.659H645.955H648.251H650.551H652.847H655.143H657.439H659.735H662.031H664.327H666.623H668.919H671.215H673.511H675.811H678.107H680.403H682.699H684.995H687.291H689.587H691.883H694.179V69.7576H696.479V67.8293H694.179Z" fill="#416633"/>
<path d="M701.071 50.5027V48.5784V46.6541H698.775V44.7299H696.479V42.8015H694.178V40.8772H691.883H689.587H687.291V38.953V37.0287V35.1004H684.995V33.1761V31.2518V29.3235H682.699V27.3992H680.403V25.4749H678.107V23.5507H675.811V21.6223H673.511H671.215H668.919H666.623H664.327H662.031H659.735H657.439V23.5507H655.143V21.6223V19.698H652.847V17.7738H650.551H648.251V15.8495H645.955V13.9211H643.659H641.363H639.067H636.771H634.475H632.179V15.8495H629.883H627.587V17.7738H625.291V19.698H622.995V21.6223H620.695V23.5507H618.399V25.4749V27.3992V29.3235H616.103H613.807H611.511H609.215H606.919H604.623H602.327V31.2518H600.031H597.735V33.1761H595.439V35.1004H593.139V37.0287V38.953V40.8772V42.8015V44.7299V46.6541H595.439V48.5784V50.5027H597.735V52.431H600.031V54.3553H602.327H604.623H606.919H609.215H611.511H613.807V52.431H616.103V50.5027H618.399H620.695V52.431H622.995V54.3553H625.291V56.2796H627.587H629.883V58.2038H632.179H634.475H636.771H639.067H641.363H643.659H645.955H648.251V56.2796H650.551H652.847V54.3553H655.143V52.431H657.439V50.5027H659.735V48.5784V46.6541H662.031V44.7299H664.327V46.6541H666.623V48.5784H668.919V50.5027H671.215H673.511H675.811H678.107H680.403H682.699V48.5784H684.995V46.6541H687.291V48.5784V50.5027V52.431V54.3553V56.2796V58.2038V60.1281H689.587V62.0565V63.9807H691.883V65.905H694.178V67.8293H696.479V69.7576H698.775V67.8293V65.905H701.071V63.9807H703.367V62.0565V60.1281V58.2038V56.2796V54.3553V52.431V50.5027H701.071Z" fill="#5E884E"/>
<path d="M783.409 67.8293V65.905H781.113V63.9807H778.817V62.0565V60.1281H776.521V58.2038V56.2796V54.3553V52.4311V50.5027V48.5784V46.6542H774.225V48.5784H771.925V50.5027H769.629H767.333H765.037H762.741H760.445H758.149V48.5784H755.853V46.6542H753.557V44.7299H751.261V46.6542H748.965V48.5784V50.5027H746.669V52.4311H744.369V54.3553H742.073V56.2796H739.777H737.481V58.2038H735.185H732.889H730.593H728.297H726.001H723.705H721.409H719.113V56.2796H716.813H714.517V54.3553H712.221V52.4311H709.925V50.5027H707.629H705.333V52.4311H703.037V54.3553H700.741H698.445H696.149H693.853H691.553H689.257V52.4311H686.961V50.5027H684.665V48.5784V46.6542H682.369V44.7299V42.8015V40.8773V38.953H680.073V40.8773V42.8015V44.7299H677.777V46.6542V48.5784V50.5027V52.4311V54.3553V56.2796H680.073V58.2038V60.1281V62.0565H682.369V63.9807V65.905H684.665V67.8293H686.961V69.7576H689.257H691.553V71.6819H693.853H696.149H698.445H700.741H703.037H705.333H707.629H709.925H712.221H714.517H716.813H719.113H721.409H723.705H726.001H728.297H730.593H732.889H735.185H737.481H739.777H742.073H744.369H746.669H748.965H751.261H753.557H755.853H758.149H760.445H762.741H765.037H767.333H769.629H771.925H774.225H776.521H778.817H781.113H783.409V69.7576H785.705V67.8293H783.409Z" fill="#416633"/>
<path d="M790.297 50.5027V48.5784V46.6541H788.001V44.7299H785.705V42.8015H783.409V40.8772H781.113H778.817H776.521V38.953V37.0287V35.1004H774.225V33.1761V31.2518V29.3235H771.925V27.3992H769.629V25.4749H767.333V23.5507H765.037V21.6223H762.741H760.445H758.149H755.853H753.557H751.261H748.965H746.669V23.5507H744.369V21.6223V19.698H742.073V17.7738H739.777H737.481V15.8495H735.185V13.9211H732.889H730.593H728.297H726.001H723.705H721.409V15.8495H719.113H716.813V17.7738H714.517V19.698H712.221V21.6223H709.925V23.5507H707.629V25.4749V27.3992V29.3235H705.333H703.038H700.742H698.446H696.15H693.854H691.554V31.2518H689.258H686.962V33.1761H684.666V35.1004H682.37V37.0287V38.953V40.8772V42.8015V44.7299V46.6541H684.666V48.5784V50.5027H686.962V52.431H689.258V54.3553H691.554H693.854H696.15H698.446H700.742H703.038V52.431H705.333V50.5027H707.629H709.925V52.431H712.221V54.3553H714.517V56.2796H716.813H719.113V58.2038H721.409H723.705H726.001H728.297H730.593H732.889H735.185H737.481V56.2796H739.777H742.073V54.3553H744.369V52.431H746.669V50.5027H748.965V48.5784V46.6541H751.261V44.7299H753.557V46.6541H755.853V48.5784H758.149V50.5027H760.445H762.741H765.037H767.333H769.629H771.925V48.5784H774.225V46.6541H776.521V48.5784V50.5027V52.431V54.3553V56.2796V58.2038V60.1281H778.817V62.0565V63.9807H781.113V65.905H783.409V67.8293H785.705V69.7576H788.001V67.8293V65.905H790.297V63.9807H792.593V62.0565V60.1281V58.2038V56.2796V54.3553V52.431V50.5027H790.297Z" fill="#5E884E"/>
<path d="M872.639 67.8293V65.905H870.343V63.9807H868.043V62.0565V60.1281H865.747V58.2038V56.2796V54.3553V52.4311V50.5027V48.5784V46.6542H863.451V48.5784H861.155V50.5027H858.859H856.563H854.267H851.971H849.675H847.379V48.5784H845.083V46.6542H842.787V44.7299H840.487V46.6542H838.191V48.5784V50.5027H835.895V52.4311H833.599V54.3553H831.303V56.2796H829.007H826.711V58.2038H824.415H822.119H819.823H817.527H815.232H812.931H810.635H808.339V56.2796H806.043H803.748V54.3553H801.452V52.4311H799.156V50.5027H796.86H794.564V52.4311H792.268V54.3553H789.968H787.672H785.376H783.08H780.784H778.488V52.4311H776.192V50.5027H773.896V48.5784V46.6542H771.6V44.7299V42.8015V40.8773V38.953H769.304V40.8773V42.8015V44.7299H767.008V46.6542V48.5784V50.5027V52.4311V54.3553V56.2796H769.304V58.2038V60.1281V62.0565H771.6V63.9807V65.905H773.896V67.8293H776.192V69.7576H778.488H780.784V71.6819H783.08H785.376H787.672H789.968H792.268H794.564H796.86H799.156H801.452H803.748H806.043H808.339H810.635H812.931H815.232H817.527H819.823H822.119H824.415H826.711H829.007H831.303H833.599H835.895H838.191H840.487H842.787H845.083H847.379H849.675H851.971H854.267H856.563H858.859H861.155H863.451H865.747H868.043H870.343H872.639V69.7576H874.935V67.8293H872.639Z" fill="#416633"/>
<path d="M879.527 50.5027V48.5784V46.6541H877.231V44.7299H874.935V42.8015H872.639V40.8772H870.343H868.043H865.747V38.953V37.0287V35.1004H863.451V33.1761V31.2518V29.3235H861.155V27.3992H858.859V25.4749H856.563V23.5507H854.267V21.6223H851.971H849.675H847.379H845.083H842.787H840.487H838.191H835.895V23.5507H833.599V21.6223V19.698H831.303V17.7738H829.007H826.711V15.8495H824.415V13.9211H822.119H819.823H817.527H815.231H812.931H810.635V15.8495H808.339H806.043V17.7738H803.747V19.698H801.451V21.6223H799.155V23.5507H796.859V25.4749V27.3992V29.3235H794.563H792.267H789.967H787.671H785.375H783.079H780.783V31.2518H778.488H776.192V33.1761H773.896V35.1004H771.6V37.0287V38.953V40.8772V42.8015V44.7299V46.6541H773.896V48.5784V50.5027H776.192V52.431H778.488V54.3553H780.783H783.079H785.375H787.671H789.967H792.267V52.431H794.563V50.5027H796.859H799.155V52.431H801.451V54.3553H803.747V56.2796H806.043H808.339V58.2038H810.635H812.931H815.231H817.527H819.823H822.119H824.415H826.711V56.2796H829.007H831.303V54.3553H833.599V52.431H835.895V50.5027H838.191V48.5784V46.6541H840.487V44.7299H842.787V46.6541H845.083V48.5784H847.379V50.5027H849.675H851.971H854.267H856.563H858.859H861.155V48.5784H863.451V46.6541H865.747V48.5784V50.5027V52.431V54.3553V56.2796V58.2038V60.1281H868.043V62.0565V63.9807H870.343V65.905H872.639V67.8293H874.935V69.7576H877.231V67.8293V65.905H879.527V63.9807H881.823V62.0565V60.1281V58.2038V56.2796V54.3553V52.431V50.5027H879.527Z" fill="#5E884E"/>
<path d="M961.865 67.8293V65.905H959.569V63.9807H957.273V62.0565V60.1281H954.977V58.2038V56.2796V54.3553V52.4311V50.5027V48.5784V46.6542H952.681V48.5784H950.385V50.5027H948.089H945.793H943.497H941.201H938.901H936.605V48.5784H934.309V46.6542H932.013V44.7299H929.717V46.6542H927.421V48.5784V50.5027H925.126V52.4311H922.83V54.3553H920.534V56.2796H918.238H915.942V58.2038H913.646H911.345H909.05H906.754H904.458H902.162H899.866H897.57V56.2796H895.274H892.978V54.3553H890.682V52.4311H888.382V50.5027H886.086H883.79V52.4311H881.494V54.3553H879.198H876.902H874.606H872.31H870.014H867.718V52.4311H865.422V50.5027H863.122V48.5784V46.6542H860.826V44.7299V42.8015V40.8773V38.953H858.53V40.8773V42.8015V44.7299H856.234V46.6542V48.5784V50.5027V52.4311V54.3553V56.2796H858.53V58.2038V60.1281V62.0565H860.826V63.9807V65.905H863.122V67.8293H865.422V69.7576H867.718H870.014V71.6819H872.31H874.606H876.902H879.198H881.494H883.79H886.086H888.382H890.682H892.978H895.274H897.57H899.866H902.162H904.458H906.754H909.05H911.345H913.646H915.942H918.238H920.534H922.83H925.126H927.421H929.717H932.013H934.309H936.605H938.901H941.201H943.497H945.793H948.089H950.385H952.681H954.977H957.273H959.569H961.865V69.7576H964.161V67.8293H961.865Z" fill="#416633"/>
<path d="M968.757 50.5027V48.5784V46.6541H966.461V44.7299H964.161V42.8015H961.865V40.8772H959.569H957.273H954.977V38.953V37.0287V35.1004H952.681V33.1761V31.2518V29.3235H950.385V27.3992H948.089V25.4749H945.793V23.5507H943.497V21.6223H941.201H938.901H936.605H934.309H932.013H929.717H927.421H925.125V23.5507H922.829V21.6223V19.698H920.533V17.7738H918.237H915.941V15.8495H913.645V13.9211H911.345H909.049H906.753H904.457H902.161H899.865V15.8495H897.569H895.274V17.7738H892.978V19.698H890.682V21.6223H888.381V23.5507H886.085V25.4749V27.3992V29.3235H883.789H881.494H879.198H876.902H874.606H872.31H870.014V31.2518H867.718H865.422V33.1761H863.122V35.1004H860.826V37.0287V38.953V40.8772V42.8015V44.7299V46.6541H863.122V48.5784V50.5027H865.422V52.431H867.718V54.3553H870.014H872.31H874.606H876.902H879.198H881.494V52.431H883.789V50.5027H886.085H888.381V52.431H890.682V54.3553H892.978V56.2796H895.274H897.569V58.2038H899.865H902.161H904.457H906.753H909.049H911.345H913.645H915.941V56.2796H918.237H920.533V54.3553H922.829V52.431H925.125V50.5027H927.421V48.5784V46.6541H929.717V44.7299H932.013V46.6541H934.309V48.5784H936.605V50.5027H938.901H941.201H943.497H945.793H948.089H950.385V48.5784H952.681V46.6541H954.977V48.5784V50.5027V52.431V54.3553V56.2796V58.2038V60.1281H957.273V62.0565V63.9807H959.569V65.905H961.865V67.8293H964.161V69.7576H966.461V67.8293V65.905H968.757V63.9807H971.053V62.0565V60.1281V58.2038V56.2796V54.3553V52.431V50.5027H968.757Z" fill="#5E884E"/>
<path d="M1051.1 67.8293V65.905H1048.8V63.9807H1046.5V62.0565V60.1281H1044.21V58.2038V56.2796V54.3553V52.4311V50.5027V48.5784V46.6542H1041.91V48.5784H1039.62V50.5027H1037.32H1035.02H1032.72H1030.43H1028.13H1025.84V48.5784H1023.54V46.6542H1021.24V44.7299H1018.95V46.6542H1016.65V48.5784V50.5027H1014.35V52.4311H1012.06V54.3553H1009.76V56.2796H1007.46H1005.17V58.2038H1002.87H1000.58H998.28H995.984H993.688H991.392H989.096H986.796V56.2796H984.5H982.204V54.3553H979.908V52.4311H977.612V50.5027H975.316H973.02V52.4311H970.724V54.3553H968.428H966.132H963.836H961.54H959.24H956.944V52.4311H954.648V50.5027H952.352V48.5784V46.6542H950.056V44.7299V42.8015V40.8773V38.953H947.76V40.8773V42.8015V44.7299H945.464V46.6542V48.5784V50.5027V52.4311V54.3553V56.2796H947.76V58.2038V60.1281V62.0565H950.056V63.9807V65.905H952.352V67.8293H954.648V69.7576H956.944H959.24V71.6819H961.54H963.836H966.132H968.428H970.724H973.02H975.316H977.612H979.908H982.204H984.5H986.796H989.096H991.392H993.688H995.984H998.28H1000.58H1002.87H1005.17H1007.46H1009.76H1012.06H1014.35H1016.65H1018.95H1021.24H1023.54H1025.84H1028.13H1030.43H1032.72H1035.02H1037.32H1039.62H1041.91H1044.21H1046.5H1048.8H1051.1V69.7576H1053.39V67.8293H1051.1Z" fill="#416633"/>
<path d="M1057.98 50.5027V48.5784V46.6541H1055.69V44.7299H1053.39V42.8015H1051.1V40.8772H1048.8H1046.5H1044.21V38.953V37.0287V35.1004H1041.91V33.1761V31.2518V29.3235H1039.62V27.3992H1037.32V25.4749H1035.02V23.5507H1032.72V21.6223H1030.43H1028.13H1025.84H1023.54H1021.24H1018.95H1016.65H1014.35V23.5507H1012.06V21.6223V19.698H1009.76V17.7738H1007.46H1005.17V15.8495H1002.87V13.9211H1000.58H998.28H995.984H993.688H991.392H989.096V15.8495H986.796H984.5V17.7738H982.204V19.698H979.908V21.6223H977.612V23.5507H975.316V25.4749V27.3992V29.3235H973.02H970.724H968.428H966.132H963.836H961.54H959.24V31.2518H956.944H954.648V33.1761H952.352V35.1004H950.056V37.0287V38.953V40.8772V42.8015V44.7299V46.6541H952.352V48.5784V50.5027H954.648V52.431H956.944V54.3553H959.24H961.54H963.836H966.132H968.428H970.724V52.431H973.02V50.5027H975.316H977.612V52.431H979.908V54.3553H982.204V56.2796H984.5H986.796V58.2038H989.096H991.392H993.688H995.984H998.28H1000.58H1002.87H1005.17V56.2796H1007.46H1009.76V54.3553H1012.06V52.431H1014.35V50.5027H1016.65V48.5784V46.6541H1018.95V44.7299H1021.24V46.6541H1023.54V48.5784H1025.84V50.5027H1028.13H1030.43H1032.72H1035.02H1037.32H1039.62V48.5784H1041.91V46.6541H1044.21V48.5784V50.5027V52.431V54.3553V56.2796V58.2038V60.1281H1046.5V62.0565V63.9807H1048.8V65.905H1051.1V67.8293H1053.39V69.7576H1055.69V67.8293V65.905H1057.98V63.9807H1060.28V62.0565V60.1281V58.2038V56.2796V54.3553V52.431V50.5027H1057.98Z" fill="#5E884E"/>
<path d="M1116 71.6819V50.5027H1115.07V48.5784H1112.77V46.6542H1110.47V44.7299H1108.17V46.6542H1105.88V50.5027H1103.58V52.4311H1101.29V54.3553H1098.99V56.2796H1094.4V58.2038H1076.03V56.2796H1071.43V54.3553H1069.14V52.4311H1066.84V50.5027H1062.25V52.4311H1059.95V54.3553H1046.17V52.4311H1043.88V50.5027H1041.58V46.6542H1039.29V38.953H1036.99V44.7299H1034.69V56.2796H1036.99V62.0565H1039.29V65.905H1041.58V67.8293H1043.88V69.7576H1048.47V71.6819H1116Z" fill="#416633"/>
<path d="M1116 50.5027V21.6223H1103.58V23.5507H1101.29V19.698H1098.99V17.7738H1094.4V15.8495H1092.1V13.9211H1078.32V15.8495H1073.73V17.7738H1071.43V19.698H1069.14V21.6223H1066.84V23.5507H1064.55V29.3235H1048.47V31.2518H1043.88V33.1761H1041.58V35.1004H1039.29V46.6541H1041.58V50.5027H1043.88V52.431H1046.17V54.3553H1059.95V52.431H1062.25V50.5027H1066.84V52.431H1069.14V54.3553H1071.43V56.2796H1076.03V58.2038H1094.4V56.2796H1098.99V54.3553H1101.29V52.431H1103.58V50.5027H1105.88V46.6541H1108.17V44.7299H1110.47V46.6541H1112.77V48.5784H1115.07V50.5027H1116Z" fill="#5E884E"/>
<path d="M1100.52 50.5027V48.5784V46.6541H1098.23V44.7299H1095.93V42.8015H1093.63V40.8772H1091.34H1089.04H1086.74V38.953V37.0287V35.1004H1084.45V33.1761V31.2518V29.3235H1082.15V27.3992H1079.85V25.4749H1077.56V23.5507H1075.26V21.6223H1072.97H1070.67H1068.37H1066.08H1063.78H1061.48H1059.19H1056.89V23.5507H1054.59V21.6223V19.698H1052.3V17.7738H1050H1047.71V15.8495H1045.41V13.9211H1043.11H1040.82H1038.52H1036.22H1033.93H1031.63V15.8495H1029.33H1027.04V17.7738H1024.74V19.698H1022.45V21.6223H1020.15V23.5507H1017.85V25.4749V27.3992V29.3235H1015.56H1013.26H1010.96H1008.67H1006.37H1004.07H1001.78V31.2518H999.482H997.186V33.1761H994.89V35.1004H992.594V37.0287V38.953V40.8772V42.8015V44.7299V46.6541H994.89V48.5784V50.5027H997.186V52.431H999.482V54.3553H1001.78H1004.07H1006.37H1008.67H1010.96H1013.26V52.431H1015.56V50.5027H1017.85H1020.15V52.431H1022.45V54.3553H1024.74V56.2796H1027.04H1029.33V58.2038H1031.63H1033.93H1036.22H1038.52H1040.82H1043.11H1045.41H1047.71V56.2796H1050H1052.3V54.3553H1054.59V52.431H1056.89V50.5027H1059.19V48.5784V46.6541H1061.48V44.7299H1063.78V46.6541H1066.08V48.5784H1068.37V50.5027H1070.67H1072.97H1075.26H1077.56H1079.85H1082.15V48.5784H1084.45V46.6541H1086.74V48.5784V50.5027V52.431V54.3553V56.2796V58.2038V60.1281H1089.04V62.0565V63.9807H1091.34V65.905H1093.63V67.8293H1095.93V69.7576H1098.23V67.8293V65.905H1100.52V63.9807H1102.82V62.0565V60.1281V58.2038V56.2796V54.3553V52.431V50.5027H1100.52Z" fill="#5E884E"/>
<path d="M918.632 45.1607V43.2364V41.3122H916.336V39.3838H914.04V37.4595H911.744V35.5353H909.448H907.152H904.857V33.611V31.6826V29.7584H902.561V27.8341V25.9098V23.9815H900.26V22.0572H897.964V20.1329H895.668V18.2087H893.372V16.2803H891.077H888.781H886.485H884.189H881.893H879.597H877.301H875.001V18.2087H872.705V16.2803V14.3561H870.409V12.4318H868.113H865.817V10.5075H863.521V8.57916H861.225H858.929H856.633H854.337H852.041H849.741V10.5075H847.445H845.149V12.4318H842.853V14.3561H840.557V16.2803H838.261V18.2087H835.965V20.1329V22.0572V23.9815H833.669H831.373H829.077H826.781H824.481H822.185H819.889V25.9098H817.593H815.297V27.8341H813.001V29.7584H810.705V31.6826V33.611V35.5353V37.4595V39.3838V41.3122H813.001V43.2364V45.1607H815.297V47.085H817.593V49.0133H819.889H822.185H824.481H826.781H829.077H831.373V47.085H833.669V45.1607H835.965H838.261V47.085H840.557V49.0133H842.853V50.9376H845.149H847.445V52.8618H849.741H852.041H854.337H856.633H858.929H861.225H863.521H865.817V50.9376H868.113H870.409V49.0133H872.705V47.085H875.001V45.1607H877.301V43.2364V41.3122H879.597V39.3838H881.893V41.3122H884.189V43.2364H886.485V45.1607H888.781H891.077H893.372H895.668H897.964H900.26V43.2364H902.561V41.3122H904.857V43.2364V45.1607V47.085V49.0133V50.9376V52.8618V54.7861H907.152V56.7104V58.6387H909.448V60.563H911.744V62.4873H914.04V64.4115H916.336V62.4873V60.563H918.632V58.6387H920.928V56.7104V54.7861V52.8618V50.9376V49.0133V47.085V45.1607H918.632Z" fill="#5E884E"/>
<path d="M564.641 43.6098V41.6856V39.7613H562.345V37.837H560.049V35.9087H557.753V33.9844H555.457H553.161H550.865V32.0601V30.1359V28.2075H548.569V26.2833V24.359V22.4347H546.273V20.5064H543.977V18.5821H541.681V16.6578H539.381V14.7336H537.085H534.789H532.493H530.197H527.901H525.605H523.309H521.014V16.6578H518.718V14.7336V12.8052H516.422V10.8809H514.126H511.826V8.95667H509.53V7.03241H507.234H504.938H502.642H500.346H498.05H495.754V8.95667H493.458H491.162V10.8809H488.866V12.8052H486.57V14.7336H484.27V16.6578H481.974V18.5821V20.5064V22.4347H479.678H477.382H475.086H472.79H470.494H468.198H465.902V24.359H463.602H461.306V26.2833H459.01V28.2075H456.714V30.1359V32.0601V33.9844V35.9087V37.837V39.7613H459.01V41.6856V43.6098H461.306V45.5382H463.602V47.4625H465.902H468.198H470.494H472.79H475.086H477.382V45.5382H479.678V43.6098H481.974H484.27V45.5382H486.57V47.4625H488.866V49.3867H491.162H493.458V51.311H495.754H498.05H500.346H502.642H504.938H507.234H509.53H511.826V49.3867H514.126H516.422V47.4625H518.718V45.5382H521.014V43.6098H523.309V41.6856V39.7613H525.605V37.837H527.901V39.7613H530.197V41.6856H532.493V43.6098H534.789H537.085H539.381H541.681H543.977H546.273V41.6856H548.569V39.7613H550.865V41.6856V43.6098V45.5382V47.4625V49.3867V51.311V53.2394H553.161V55.1636V57.0879H555.457V59.0121H557.753V60.9405H560.049V62.8648H562.345V60.9405V59.0121H564.641V57.0879H566.937V55.1636V53.2394V51.311V49.3867V47.4625V45.5382V43.6098H564.641Z" fill="#5E884E"/>
<path d="M380.951 36.5815V34.6573V32.7289H378.655V30.8046H376.359V28.8804H374.063V26.952H371.767H369.471H367.171V25.0277V23.1035V21.1792H364.875V19.2508V17.3266V15.4023H362.579V13.4781H360.283V11.5497H357.987V9.62542H355.691V7.70116H353.395H351.099H348.803H346.503H344.207H341.911H339.615H337.319V9.62542H335.023V7.70116V5.77689H332.727V3.84853H330.431H328.135V1.92426H325.839V0H323.543H321.247H318.947H316.651H314.355H312.059V1.92426H309.763H307.467V3.84853H305.171V5.77689H302.875V7.70116H300.579V9.62542H298.283V11.5497V13.4781V15.4023H295.987H293.691H291.391H289.095H286.799H284.503H282.207V17.3266H279.911H277.615V19.2508H275.319V21.1792H273.023V23.1035V25.0277V26.952V28.8804V30.8046V32.7289H275.319V34.6573V36.5815H277.615V38.5058H279.911V40.43H282.207H284.503H286.799H289.095H291.391H293.691V38.5058H295.987V36.5815H298.283H300.579V38.5058H302.875V40.43H305.171V42.3584H307.467H309.763V44.2827H312.059H314.355H316.651H318.947H321.247H323.543H325.839H328.135V42.3584H330.431H332.727V40.43H335.023V38.5058H337.319V36.5815H339.615V34.6573V32.7289H341.911V30.8046H344.207V32.7289H346.503V34.6573H348.803V36.5815H351.099H353.395H355.691H357.987H360.283H362.579V34.6573H364.875V32.7289H367.171V34.6573V36.5815V38.5058V40.43V42.3584V44.2827V46.2069H369.471V48.1312V50.0555H371.767V51.9838H374.063V53.9081H376.359V55.8324H378.655V53.9081V51.9838H380.951V50.0555H383.247V48.1312V46.2069V44.2827V42.3584V40.43V38.5058V36.5815H380.951Z" fill="#5E884E"/>
<path d="M127.879 40.0977V38.1693V36.2451H125.583V34.3208H123.287V32.3965H120.991V30.4682H118.696H116.4H114.104V28.5439V26.6196V24.6954H111.808V22.767V20.8428V18.9185H109.508V16.9942H107.212V15.0659H104.916V13.1416H102.62V11.2173H100.324H98.0276H95.7317H93.4357H91.1397H88.8437H86.5478H84.2477V13.1416H81.9517V11.2173V9.29307H79.6557V7.3647H77.3597H75.0638V5.44044H72.7678V3.51617H70.4718H68.1758H65.8799H63.5839H61.2879H58.9919V5.44044H56.6919H54.3959V7.3647H52.0999V9.29307H49.8039V11.2173H47.508V13.1416H45.212V15.0659V16.9942V18.9185H42.916H40.62H38.3241H36.0281H33.7321H31.432H29.136V20.8428H26.8401H24.5441V22.767H22.2481V24.6954H19.9521V26.6196V28.5439V30.4682V32.3965V34.3208V36.2451H22.2481V38.1693V40.0977H24.5441V42.022H26.8401V43.9462H29.136H31.432H33.7321H36.0281H38.3241H40.62V42.022H42.916V40.0977H45.212H47.508V42.022H49.8039V43.9462H52.0999V45.8705H54.3959H56.6919V47.7948H58.9919H61.2879H63.5839H65.8799H68.1758H70.4718H72.7678H75.0638V45.8705H77.3597H79.6557V43.9462H81.9517V42.022H84.2477V40.0977H86.5478V38.1693V36.2451H88.8437V34.3208H91.1397V36.2451H93.4357V38.1693H95.7317V40.0977H98.0276H100.324H102.62H104.916H107.212H109.508V38.1693H111.808V36.2451H114.104V38.1693V40.0977V42.022V43.9462V45.8705V47.7948V49.7231H116.4V51.6474V53.5717H118.696V55.5H120.991V57.4243H123.287V59.3485H125.583V57.4243V55.5H127.879V53.5717H130.175V51.6474V49.7231V47.7948V45.8705V43.9462V42.022V40.0977H127.879Z" fill="#5E884E"/>
<path d="M1931.49 60.6082H1116V135.917H1931.49V60.6082Z" fill="#5E884E"/>
<path d="M1907.94 80.2488V91.8354H1891.95V103.422H1855.16V113.08H1819.97V96.6645H1803.97V91.8354H1771.99V86.0421H1743.19V100.525H1728.8V121.77H1712.8V100.525H1687.21V81.217H1669.61V108.251H1612.03V82.1812H1559.25V101.494H1530.46V111.148H1493.67V98.597H1480.87V104.39H1444.08V73.4913H1410.49V88.9387H1360.91V99.5611H1288.93V126.595H1256.94V88.9387H1215.35V102.458H1160.96V121.77H1116V135.917H1931.49V80.2488H1907.94Z" fill="#416633"/>
<path d="M1931.49 135.917H1116V222.812H1931.49V135.917Z" fill="#262626"/>
<path d="M1914.34 171.977V144.943H1869.55V160.391H1819.97V135.917H1802.38V156.53H1779.98V164.252H1751.19V156.53H1708V168.117H1666.42V135.917H1658.42V154.598H1608.83V174.874H1548.05V159.427H1508.06V150.737H1495.27V180.667H1450.48V161.355H1428.09V175.838H1388.1V159.427H1351.31V145.908H1336.92V156.53H1324.12V171.977H1296.93V156.53H1261.74V175.838H1234.55V150.737H1183.36V161.355H1140.17V178.735H1116V196.115H1146.57V222.812H1167.37V187.425H1197.75V204.805H1220.15V193.218H1269.74V208.67H1293.73V194.186H1340.11V211.566H1375.3V199.012H1405.7V202.876H1450.48V193.218H1528.86V187.425H1626.43V208.67H1640.82V197.083H1719.2V222.812H1749.59V180.667H1781.58V200.944H1805.57V186.461H1861.56V215.427H1899.95V202.876H1904.75V180.667H1931.49V171.977H1914.34Z" fill="#353535"/>
<path d="M1599.24 124.33H1573.64V136.885H1599.24V124.33Z" fill="#262626"/>
<path d="M1464.88 124.33H1439.28V136.885H1464.88V124.33Z" fill="#262626"/>
<path d="M1357.31 173.089H1336.11V185.64H1357.31V173.089Z" fill="#262626"/>
<path d="M1404.89 182.904H1383.7V195.454H1404.89V182.904Z" fill="#262626"/>
<path d="M1534.19 165.524H1512.99V178.074H1534.19V165.524Z" fill="#262626"/>
<path d="M1513.26 184.032H1492.07V196.583H1513.26V184.032Z" fill="#262626"/>
<path d="M1592.44 169.549H1571.24V182.099H1592.44V169.549Z" fill="#262626"/>
<path d="M1656.42 173.089H1635.22V185.64H1656.42V173.089Z" fill="#262626"/>
<path d="M1692.41 179.363H1671.21V191.914H1692.41V179.363Z" fill="#262626"/>
<path d="M1742.39 163.271H1721.2V175.822H1742.39V163.271Z" fill="#262626"/>
<path d="M1314.92 185.64H1293.73V198.191H1314.92V185.64Z" fill="#262626"/>
<path d="M1241.34 186.547H1220.15V199.098H1241.34V186.547Z" fill="#262626"/>
<path d="M1204.02 160.534H1182.83V173.085H1204.02V160.534Z" fill="#262626"/>
<path d="M1148.57 178.399H1127.38V190.949H1148.57V178.399Z" fill="#262626"/>
<path d="M1354.51 124.33H1328.92V136.885H1354.51V124.33Z" fill="#262626"/>
<path d="M1676.01 129.976H1650.42V142.527H1676.01V129.976Z" fill="#262626"/>
<path d="M1231.35 129.64H1205.75V142.19H1231.35V129.64Z" fill="#262626"/>
<path d="M1328.92 130.604H1303.32V143.155H1328.92V130.604Z" fill="#416633"/>
<path d="M1404.89 129.976H1379.3V142.527H1404.89V129.976Z" fill="#416633"/>
<path d="M1504.86 133.262H1479.27V145.817H1504.86V133.262Z" fill="#416633"/>
<path d="M1556.85 129.976H1531.25V142.527H1556.85V129.976Z" fill="#416633"/>
<path d="M1650.42 133.262H1624.83V145.817H1650.42V133.262Z" fill="#416633"/>
<path d="M1721.2 133.262H1695.61V145.817H1721.2V133.262Z" fill="#416633"/>
<path d="M1275.33 133.262H1249.74V145.817H1275.33V133.262Z" fill="#416633"/>
<path d="M1175.36 129.64H1149.77V142.19H1175.36V129.64Z" fill="#416633"/>
<path d="M1185.58 67.8292V65.905H1183.28V63.9807H1180.99V60.1281H1178.69V46.6541H1176.39V48.5784H1174.09V50.5026H1160.32V48.5784H1158.02V46.6541H1155.73V44.7299H1153.43V46.6541H1151.13V50.5026H1148.83V52.431H1146.54V54.3553H1144.24V56.2795H1139.65V58.2038H1121.28V56.2795H1116.69V54.3553H1116V71.6819H1185.58V69.7576H1187.87V67.8292H1185.58Z" fill="#416633"/>
<path d="M1192.47 50.5027V46.6541H1190.17V44.7299H1187.87V42.8015H1185.58V40.8772H1178.69V35.1004H1176.39V29.3235H1174.09V27.3992H1171.8V25.4749H1169.5V23.5507H1167.21V21.6223H1148.83V23.5507H1146.54V19.698H1144.24V17.7738H1139.65V15.8495H1137.36V13.9211H1123.58V15.8495H1118.98V17.7738H1116.69V19.698H1116V54.3553H1116.69V56.2796H1121.28V58.2038H1139.65V56.2796H1144.24V54.3553H1146.54V52.431H1148.83V50.5027H1151.13V46.6541H1153.43V44.7299H1155.73V46.6541H1158.02V48.5784H1160.32V50.5027H1174.09V48.5784H1176.39V46.6541H1178.69V60.1281H1180.99V63.9807H1183.28V65.905H1185.58V67.8293H1187.87V69.7576H1190.17V65.905H1192.47V63.9807H1194.76V50.5027H1192.47Z" fill="#5E884E"/>
<path d="M1274.81 67.8293V65.905H1272.51V63.9807H1270.21V62.0565V60.1281H1267.92V58.2038V56.2796V54.3553V52.4311V50.5027V48.5784V46.6542H1265.62V48.5784H1263.33V50.5027H1261.03H1258.73H1256.44H1254.14H1251.85H1249.55V48.5784H1247.25V46.6542H1244.95V44.7299H1242.66V46.6542H1240.36V48.5784V50.5027H1238.07V52.4311H1235.77V54.3553H1233.47V56.2796H1231.18H1228.88V58.2038H1226.59H1224.29H1221.99H1219.69H1217.4H1215.1H1212.81H1210.51V56.2796H1208.21H1205.92V54.3553H1203.62V52.4311H1201.33V50.5027H1199.03H1196.73V52.4311H1194.43V54.3553H1192.14H1189.84H1187.55H1185.25H1182.95H1180.66V52.4311H1178.36V50.5027H1176.06V48.5784V46.6542H1173.77V44.7299V42.8015V40.8773V38.953H1171.47V40.8773V42.8015V44.7299H1169.17V46.6542V48.5784V50.5027V52.4311V54.3553V56.2796H1171.47V58.2038V60.1281V62.0565H1173.77V63.9807V65.905H1176.06V67.8293H1178.36V69.7576H1180.66H1182.95V71.6819H1185.25H1187.55H1189.84H1192.14H1194.43H1196.73H1199.03H1201.33H1203.62H1205.92H1208.21H1210.51H1212.81H1215.1H1217.4H1219.69H1221.99H1224.29H1226.59H1228.88H1231.18H1233.47H1235.77H1238.07H1240.36H1242.66H1244.95H1247.25H1249.55H1251.85H1254.14H1256.44H1258.73H1261.03H1263.33H1265.62H1267.92H1270.21H1272.51H1274.81V69.7576H1277.1V67.8293H1274.81Z" fill="#416633"/>
<path d="M1281.7 50.5027V48.5784V46.6541H1279.4V44.7299H1277.1V42.8015H1274.8V40.8772H1272.51H1270.21H1267.92V38.953V37.0287V35.1004H1265.62V33.1761V31.2518V29.3235H1263.33V27.3992H1261.03V25.4749H1258.73V23.5507H1256.44V21.6223H1254.14H1251.85H1249.55H1247.25H1244.95H1242.66H1240.36H1238.07V23.5507H1235.77V21.6223V19.698H1233.47V17.7738H1231.18H1228.88V15.8495H1226.59V13.9211H1224.29H1221.99H1219.69H1217.4H1215.1H1212.81V15.8495H1210.51H1208.21V17.7738H1205.92V19.698H1203.62V21.6223H1201.33V23.5507H1199.03V25.4749V27.3992V29.3235H1196.73H1194.43H1192.14H1189.84H1187.55H1185.25H1182.95V31.2518H1180.66H1178.36V33.1761H1176.06V35.1004H1173.77V37.0287V38.953V40.8772V42.8015V44.7299V46.6541H1176.06V48.5784V50.5027H1178.36V52.431H1180.66V54.3553H1182.95H1185.25H1187.55H1189.84H1192.14H1194.43V52.431H1196.73V50.5027H1199.03H1201.33V52.431H1203.62V54.3553H1205.92V56.2796H1208.21H1210.51V58.2038H1212.81H1215.1H1217.4H1219.69H1221.99H1224.29H1226.59H1228.88V56.2796H1231.18H1233.47V54.3553H1235.77V52.431H1238.07V50.5027H1240.36V48.5784V46.6541H1242.66V44.7299H1244.95V46.6541H1247.25V48.5784H1249.55V50.5027H1251.85H1254.14H1256.44H1258.73H1261.03H1263.33V48.5784H1265.62V46.6541H1267.92V48.5784V50.5027V52.431V54.3553V56.2796V58.2038V60.1281H1270.21V62.0565V63.9807H1272.51V65.905H1274.8V67.8293H1277.1V69.7576H1279.4V67.8293V65.905H1281.7V63.9807H1283.99V62.0565V60.1281V58.2038V56.2796V54.3553V52.431V50.5027H1281.7Z" fill="#5E884E"/>
<path d="M1364.04 67.8293V65.905H1361.74V63.9807H1359.44V62.0565V60.1281H1357.15V58.2038V56.2796V54.3553V52.4311V50.5027V48.5784V46.6542H1354.85V48.5784H1352.56V50.5027H1350.26H1347.96H1345.66H1343.37H1341.07H1338.78V48.5784H1336.48V46.6542H1334.18V44.7299H1331.89V46.6542H1329.59V48.5784V50.5027H1327.3V52.4311H1325V54.3553H1322.7V56.2796H1320.4H1318.11V58.2038H1315.81H1313.52H1311.22H1308.92H1306.63H1304.33H1302.04H1299.74V56.2796H1297.44H1295.14V54.3553H1292.85V52.4311H1290.55V50.5027H1288.26H1285.96V52.4311H1283.66V54.3553H1281.37H1279.07H1276.78H1274.48H1272.18H1269.88V52.4311H1267.59V50.5027H1265.29V48.5784V46.6542H1263V44.7299V42.8015V40.8773V38.953H1260.7V40.8773V42.8015V44.7299H1258.4V46.6542V48.5784V50.5027V52.4311V54.3553V56.2796H1260.7V58.2038V60.1281V62.0565H1263V63.9807V65.905H1265.29V67.8293H1267.59V69.7576H1269.88H1272.18V71.6819H1274.48H1276.78H1279.07H1281.37H1283.66H1285.96H1288.26H1290.55H1292.85H1295.14H1297.44H1299.74H1302.04H1304.33H1306.63H1308.92H1311.22H1313.52H1315.81H1318.11H1320.4H1322.7H1325H1327.3H1329.59H1331.89H1334.18H1336.48H1338.78H1341.07H1343.37H1345.66H1347.96H1350.26H1352.56H1354.85H1357.15H1359.44H1361.74H1364.04V69.7576H1366.33V67.8293H1364.04Z" fill="#416633"/>
<path d="M1370.92 50.5027V48.5784V46.6541H1368.63V44.7299H1366.33V42.8015H1364.03V40.8772H1361.74H1359.44H1357.15V38.953V37.0287V35.1004H1354.85V33.1761V31.2518V29.3235H1352.56V27.3992H1350.26V25.4749H1347.96V23.5507H1345.66V21.6223H1343.37H1341.07H1338.78H1336.48H1334.18H1331.89H1329.59H1327.3V23.5507H1325V21.6223V19.698H1322.7V17.7738H1320.4H1318.11V15.8495H1315.81V13.9211H1313.52H1311.22H1308.92H1306.63H1304.33H1302.04V15.8495H1299.74H1297.44V17.7738H1295.14V19.698H1292.85V21.6223H1290.55V23.5507H1288.26V25.4749V27.3992V29.3235H1285.96H1283.66H1281.37H1279.07H1276.78H1274.48H1272.18V31.2518H1269.88H1267.59V33.1761H1265.29V35.1004H1263V37.0287V38.953V40.8772V42.8015V44.7299V46.6541H1265.29V48.5784V50.5027H1267.59V52.431H1269.88V54.3553H1272.18H1274.48H1276.78H1279.07H1281.37H1283.66V52.431H1285.96V50.5027H1288.26H1290.55V52.431H1292.85V54.3553H1295.14V56.2796H1297.44H1299.74V58.2038H1302.04H1304.33H1306.63H1308.92H1311.22H1313.52H1315.81H1318.11V56.2796H1320.4H1322.7V54.3553H1325V52.431H1327.3V50.5027H1329.59V48.5784V46.6541H1331.89V44.7299H1334.18V46.6541H1336.48V48.5784H1338.78V50.5027H1341.07H1343.37H1345.66H1347.96H1350.26H1352.56V48.5784H1354.85V46.6541H1357.15V48.5784V50.5027V52.431V54.3553V56.2796V58.2038V60.1281H1359.44V62.0565V63.9807H1361.74V65.905H1364.03V67.8293H1366.33V69.7576H1368.63V67.8293V65.905H1370.92V63.9807H1373.22V62.0565V60.1281V58.2038V56.2796V54.3553V52.431V50.5027H1370.92Z" fill="#5E884E"/>
<path d="M1453.27 67.8293V65.905H1450.97V63.9807H1448.67V62.0565V60.1281H1446.37V58.2038V56.2796V54.3553V52.4311V50.5027V48.5784V46.6542H1444.08V48.5784H1441.78V50.5027H1439.49H1437.19H1434.89H1432.6H1430.3H1428.01V48.5784H1425.71V46.6542H1423.41V44.7299H1421.11V46.6542H1418.82V48.5784V50.5027H1416.52V52.4311H1414.23V54.3553H1411.93V56.2796H1409.63H1407.34V58.2038H1405.04H1402.75H1400.45H1398.15H1395.85H1393.56H1391.26H1388.97V56.2796H1386.67H1384.37V54.3553H1382.08V52.4311H1379.78V50.5027H1377.49H1375.19V52.4311H1372.89V54.3553H1370.6H1368.3H1366H1363.71H1361.41H1359.11V52.4311H1356.82V50.5027H1354.52V48.5784V46.6542H1352.23V44.7299V42.8015V40.8773V38.953H1349.93V40.8773V42.8015V44.7299H1347.63V46.6542V48.5784V50.5027V52.4311V54.3553V56.2796H1349.93V58.2038V60.1281V62.0565H1352.23V63.9807V65.905H1354.52V67.8293H1356.82V69.7576H1359.11H1361.41V71.6819H1363.71H1366H1368.3H1370.6H1372.89H1375.19H1377.49H1379.78H1382.08H1384.37H1386.67H1388.97H1391.26H1393.56H1395.85H1398.15H1400.45H1402.75H1405.04H1407.34H1409.63H1411.93H1414.23H1416.52H1418.82H1421.11H1423.41H1425.71H1428.01H1430.3H1432.6H1434.89H1437.19H1439.49H1441.78H1444.08H1446.37H1448.67H1450.97H1453.27V69.7576H1455.56V67.8293H1453.27Z" fill="#416633"/>
<path d="M1460.15 50.5027V48.5784V46.6541H1457.86V44.7299H1455.56V42.8015H1453.27V40.8772H1450.97H1448.67H1446.37V38.953V37.0287V35.1004H1444.08V33.1761V31.2518V29.3235H1441.78V27.3992H1439.49V25.4749H1437.19V23.5507H1434.89V21.6223H1432.6H1430.3H1428.01H1425.71H1423.41H1421.11H1418.82H1416.52V23.5507H1414.23V21.6223V19.698H1411.93V17.7738H1409.63H1407.34V15.8495H1405.04V13.9211H1402.75H1400.45H1398.15H1395.85H1393.56H1391.26V15.8495H1388.97H1386.67V17.7738H1384.37V19.698H1382.08V21.6223H1379.78V23.5507H1377.49V25.4749V27.3992V29.3235H1375.19H1372.89H1370.6H1368.3H1366H1363.71H1361.41V31.2518H1359.11H1356.82V33.1761H1354.52V35.1004H1352.23V37.0287V38.953V40.8772V42.8015V44.7299V46.6541H1354.52V48.5784V50.5027H1356.82V52.431H1359.11V54.3553H1361.41H1363.71H1366H1368.3H1370.6H1372.89V52.431H1375.19V50.5027H1377.49H1379.78V52.431H1382.08V54.3553H1384.37V56.2796H1386.67H1388.97V58.2038H1391.26H1393.56H1395.85H1398.15H1400.45H1402.75H1405.04H1407.34V56.2796H1409.63H1411.93V54.3553H1414.23V52.431H1416.52V50.5027H1418.82V48.5784V46.6541H1421.11V44.7299H1423.41V46.6541H1425.71V48.5784H1428.01V50.5027H1430.3H1432.6H1434.89H1437.19H1439.49H1441.78V48.5784H1444.08V46.6541H1446.37V48.5784V50.5027V52.431V54.3553V56.2796V58.2038V60.1281H1448.67V62.0565V63.9807H1450.97V65.905H1453.27V67.8293H1455.56V69.7576H1457.86V67.8293V65.905H1460.15V63.9807H1462.45V62.0565V60.1281V58.2038V56.2796V54.3553V52.431V50.5027H1460.15Z" fill="#5E884E"/>
<path d="M1542.49 67.8293V65.905H1540.2V63.9807H1537.9V62.0565V60.1281H1535.6V58.2038V56.2796V54.3553V52.4311V50.5027V48.5784V46.6542H1533.31V48.5784H1531.01V50.5027H1528.72H1526.42H1524.12H1521.83H1519.53H1517.23V48.5784H1514.94V46.6542H1512.64V44.7299H1510.34V46.6542H1508.05V48.5784V50.5027H1505.75V52.4311H1503.46V54.3553H1501.16V56.2796H1498.86H1496.57V58.2038H1494.27H1491.97H1489.68H1487.38H1485.08H1482.79H1480.49H1478.2V56.2796H1475.9H1473.6V54.3553H1471.31V52.4311H1469.01V50.5027H1466.71H1464.42V52.4311H1462.12V54.3553H1459.82H1457.53H1455.23H1452.94H1450.64H1448.34V52.4311H1446.05V50.5027H1443.75V48.5784V46.6542H1441.46V44.7299V42.8015V40.8773V38.953H1439.16V40.8773V42.8015V44.7299H1436.86V46.6542V48.5784V50.5027V52.4311V54.3553V56.2796H1439.16V58.2038V60.1281V62.0565H1441.46V63.9807V65.905H1443.75V67.8293H1446.05V69.7576H1448.34H1450.64V71.6819H1452.94H1455.23H1457.53H1459.82H1462.12H1464.42H1466.71H1469.01H1471.31H1473.6H1475.9H1478.2H1480.49H1482.79H1485.08H1487.38H1489.68H1491.97H1494.27H1496.57H1498.86H1501.16H1503.46H1505.75H1508.05H1510.34H1512.64H1514.94H1517.23H1519.53H1521.83H1524.12H1526.42H1528.72H1531.01H1533.31H1535.6H1537.9H1540.2H1542.49V69.7576H1544.79V67.8293H1542.49Z" fill="#416633"/>
<path d="M1549.38 50.5027V48.5784V46.6541H1547.08V44.7299H1544.79V42.8015H1542.49V40.8772H1540.2H1537.9H1535.6V38.953V37.0287V35.1004H1533.31V33.1761V31.2518V29.3235H1531.01V27.3992H1528.72V25.4749H1526.42V23.5507H1524.12V21.6223H1521.83H1519.53H1517.23H1514.94H1512.64H1510.34H1508.05H1505.75V23.5507H1503.46V21.6223V19.698H1501.16V17.7738H1498.86H1496.57V15.8495H1494.27V13.9211H1491.97H1489.68H1487.38H1485.08H1482.79H1480.49V15.8495H1478.2H1475.9V17.7738H1473.6V19.698H1471.31V21.6223H1469.01V23.5507H1466.71V25.4749V27.3992V29.3235H1464.42H1462.12H1459.82H1457.53H1455.23H1452.94H1450.64V31.2518H1448.34H1446.05V33.1761H1443.75V35.1004H1441.46V37.0287V38.953V40.8772V42.8015V44.7299V46.6541H1443.75V48.5784V50.5027H1446.05V52.431H1448.34V54.3553H1450.64H1452.94H1455.23H1457.53H1459.82H1462.12V52.431H1464.42V50.5027H1466.71H1469.01V52.431H1471.31V54.3553H1473.6V56.2796H1475.9H1478.2V58.2038H1480.49H1482.79H1485.08H1487.38H1489.68H1491.97H1494.27H1496.57V56.2796H1498.86H1501.16V54.3553H1503.46V52.431H1505.75V50.5027H1508.05V48.5784V46.6541H1510.34V44.7299H1512.64V46.6541H1514.94V48.5784H1517.23V50.5027H1519.53H1521.83H1524.12H1526.42H1528.72H1531.01V48.5784H1533.31V46.6541H1535.6V48.5784V50.5027V52.431V54.3553V56.2796V58.2038V60.1281H1537.9V62.0565V63.9807H1540.2V65.905H1542.49V67.8293H1544.79V69.7576H1547.08V67.8293V65.905H1549.38V63.9807H1551.68V62.0565V60.1281V58.2038V56.2796V54.3553V52.431V50.5027H1549.38Z" fill="#5E884E"/>
<path d="M1631.72 67.8293V65.905H1629.43V63.9807H1627.13V62.0565V60.1281H1624.83V58.2038V56.2796V54.3553V52.4311V50.5027V48.5784V46.6542H1622.54V48.5784H1620.24V50.5027H1617.95H1615.65H1613.35H1611.05H1608.76H1606.46V48.5784H1604.17V46.6542H1601.87V44.7299H1599.57V46.6542H1597.28V48.5784V50.5027H1594.98V52.4311H1592.69V54.3553H1590.39V56.2796H1588.09H1585.79V58.2038H1583.5H1581.2H1578.91H1576.61H1574.31H1572.02H1569.72H1567.43V56.2796H1565.13H1562.83V54.3553H1560.53V52.4311H1558.24V50.5027H1555.94H1553.65V52.4311H1551.35V54.3553H1549.05H1546.76H1544.46H1542.17H1539.87H1537.57V52.4311H1535.27V50.5027H1532.98V48.5784V46.6542H1530.68V44.7299V42.8015V40.8773V38.953H1528.39V40.8773V42.8015V44.7299H1526.09V46.6542V48.5784V50.5027V52.4311V54.3553V56.2796H1528.39V58.2038V60.1281V62.0565H1530.68V63.9807V65.905H1532.98V67.8293H1535.27V69.7576H1537.57H1539.87V71.6819H1542.17H1544.46H1546.76H1549.05H1551.35H1553.65H1555.94H1558.24H1560.53H1562.83H1565.13H1567.43H1569.72H1572.02H1574.31H1576.61H1578.91H1581.2H1583.5H1585.79H1588.09H1590.39H1592.69H1594.98H1597.28H1599.57H1601.87H1604.17H1606.46H1608.76H1611.05H1613.35H1615.65H1617.95H1620.24H1622.54H1624.83H1627.13H1629.43H1631.72V69.7576H1634.02V67.8293H1631.72Z" fill="#416633"/>
<path d="M1638.61 50.5027V48.5784V46.6541H1636.31V44.7299H1634.02V42.8015H1631.72V40.8772H1629.43H1627.13H1624.83V38.953V37.0287V35.1004H1622.54V33.1761V31.2518V29.3235H1620.24V27.3992H1617.95V25.4749H1615.65V23.5507H1613.35V21.6223H1611.05H1608.76H1606.46H1604.17H1601.87H1599.57H1597.28H1594.98V23.5507H1592.69V21.6223V19.698H1590.39V17.7738H1588.09H1585.79V15.8495H1583.5V13.9211H1581.2H1578.91H1576.61H1574.31H1572.02H1569.72V15.8495H1567.43H1565.13V17.7738H1562.83V19.698H1560.53V21.6223H1558.24V23.5507H1555.94V25.4749V27.3992V29.3235H1553.65H1551.35H1549.05H1546.76H1544.46H1542.17H1539.87V31.2518H1537.57H1535.27V33.1761H1532.98V35.1004H1530.68V37.0287V38.953V40.8772V42.8015V44.7299V46.6541H1532.98V48.5784V50.5027H1535.27V52.431H1537.57V54.3553H1539.87H1542.17H1544.46H1546.76H1549.05H1551.35V52.431H1553.65V50.5027H1555.94H1558.24V52.431H1560.53V54.3553H1562.83V56.2796H1565.13H1567.43V58.2038H1569.72H1572.02H1574.31H1576.61H1578.91H1581.2H1583.5H1585.79V56.2796H1588.09H1590.39V54.3553H1592.69V52.431H1594.98V50.5027H1597.28V48.5784V46.6541H1599.57V44.7299H1601.87V46.6541H1604.17V48.5784H1606.46V50.5027H1608.76H1611.05H1613.35H1615.65H1617.95H1620.24V48.5784H1622.54V46.6541H1624.83V48.5784V50.5027V52.431V54.3553V56.2796V58.2038V60.1281H1627.13V62.0565V63.9807H1629.43V65.905H1631.72V67.8293H1634.02V69.7576H1636.31V67.8293V65.905H1638.61V63.9807H1640.91V62.0565V60.1281V58.2038V56.2796V54.3553V52.431V50.5027H1638.61Z" fill="#5E884E"/>
<path d="M1720.95 67.8293V65.905H1718.66V63.9807H1716.36V62.0565V60.1281H1714.06V58.2038V56.2796V54.3553V52.4311V50.5027V48.5784V46.6542H1711.76V48.5784H1709.47V50.5027H1707.17H1704.88H1702.58H1700.28H1697.99H1695.69V48.5784H1693.4V46.6542H1691.1V44.7299H1688.8V46.6542H1686.5V48.5784V50.5027H1684.21V52.4311H1681.91V54.3553H1679.62V56.2796H1677.32H1675.02V58.2038H1672.73H1670.43H1668.14H1665.84H1663.54H1661.24H1658.95H1656.65V56.2796H1654.36H1652.06V54.3553H1649.76V52.4311H1647.47V50.5027H1645.17H1642.88V52.4311H1640.58V54.3553H1638.28H1635.98H1633.69H1631.39H1629.1H1626.8V52.4311H1624.5V50.5027H1622.21V48.5784V46.6542H1619.91V44.7299V42.8015V40.8773V38.953H1617.62V40.8773V42.8015V44.7299H1615.32V46.6542V48.5784V50.5027V52.4311V54.3553V56.2796H1617.62V58.2038V60.1281V62.0565H1619.91V63.9807V65.905H1622.21V67.8293H1624.5V69.7576H1626.8H1629.1V71.6819H1631.39H1633.69H1635.98H1638.28H1640.58H1642.88H1645.17H1647.47H1649.76H1652.06H1654.36H1656.65H1658.95H1661.24H1663.54H1665.84H1668.14H1670.43H1672.73H1675.02H1677.32H1679.62H1681.91H1684.21H1686.5H1688.8H1691.1H1693.4H1695.69H1697.99H1700.28H1702.58H1704.88H1707.17H1709.47H1711.76H1714.06H1716.36H1718.66H1720.95V69.7576H1723.25V67.8293H1720.95Z" fill="#416633"/>
<path d="M1727.84 50.5027V48.5784V46.6541H1725.54V44.7299H1723.25V42.8015H1720.95V40.8772H1718.66H1716.36H1714.06V38.953V37.0287V35.1004H1711.76V33.1761V31.2518V29.3235H1709.47V27.3992H1707.17V25.4749H1704.88V23.5507H1702.58V21.6223H1700.28H1697.99H1695.69H1693.4H1691.1H1688.8H1686.5H1684.21V23.5507H1681.91V21.6223V19.698H1679.62V17.7738H1677.32H1675.02V15.8495H1672.73V13.9211H1670.43H1668.14H1665.84H1663.54H1661.24H1658.95V15.8495H1656.65H1654.36V17.7738H1652.06V19.698H1649.76V21.6223H1647.47V23.5507H1645.17V25.4749V27.3992V29.3235H1642.88H1640.58H1638.28H1635.98H1633.69H1631.39H1629.1V31.2518H1626.8H1624.5V33.1761H1622.21V35.1004H1619.91V37.0287V38.953V40.8772V42.8015V44.7299V46.6541H1622.21V48.5784V50.5027H1624.5V52.431H1626.8V54.3553H1629.1H1631.39H1633.69H1635.98H1638.28H1640.58V52.431H1642.88V50.5027H1645.17H1647.47V52.431H1649.76V54.3553H1652.06V56.2796H1654.36H1656.65V58.2038H1658.95H1661.24H1663.54H1665.84H1668.14H1670.43H1672.73H1675.02V56.2796H1677.32H1679.62V54.3553H1681.91V52.431H1684.21V50.5027H1686.5V48.5784V46.6541H1688.8V44.7299H1691.1V46.6541H1693.4V48.5784H1695.69V50.5027H1697.99H1700.28H1702.58H1704.88H1707.17H1709.47V48.5784H1711.76V46.6541H1714.06V48.5784V50.5027V52.431V54.3553V56.2796V58.2038V60.1281H1716.36V62.0565V63.9807H1718.66V65.905H1720.95V67.8293H1723.25V69.7576H1725.54V67.8293V65.905H1727.84V63.9807H1730.14V62.0565V60.1281V58.2038V56.2796V54.3553V52.431V50.5027H1727.84Z" fill="#5E884E"/>
<path d="M1810.18 67.8293V65.905H1807.88V63.9807H1805.59V62.0565V60.1281H1803.29V58.2038V56.2796V54.3553V52.4311V50.5027V48.5784V46.6542H1800.99V48.5784H1798.7V50.5027H1796.4H1794.11H1791.81H1789.51H1787.21H1784.92V48.5784H1782.62V46.6542H1780.33V44.7299H1778.03V46.6542H1775.73V48.5784V50.5027H1773.44V52.4311H1771.14V54.3553H1768.85V56.2796H1766.55H1764.25V58.2038H1761.95H1759.66H1757.36H1755.07H1752.77H1750.47H1748.18H1745.88V56.2796H1743.59H1741.29V54.3553H1738.99V52.4311H1736.69V50.5027H1734.4H1732.1V52.4311H1729.81V54.3553H1727.51H1725.21H1722.92H1720.62H1718.33H1716.03V52.4311H1713.73V50.5027H1711.44V48.5784V46.6542H1709.14V44.7299V42.8015V40.8773V38.953H1706.84V40.8773V42.8015V44.7299H1704.55V46.6542V48.5784V50.5027V52.4311V54.3553V56.2796H1706.84V58.2038V60.1281V62.0565H1709.14V63.9807V65.905H1711.44V67.8293H1713.73V69.7576H1716.03H1718.33V71.6819H1720.62H1722.92H1725.21H1727.51H1729.81H1732.1H1734.4H1736.69H1738.99H1741.29H1743.59H1745.88H1748.18H1750.47H1752.77H1755.07H1757.36H1759.66H1761.95H1764.25H1766.55H1768.85H1771.14H1773.44H1775.73H1778.03H1780.33H1782.62H1784.92H1787.21H1789.51H1791.81H1794.11H1796.4H1798.7H1800.99H1803.29H1805.59H1807.88H1810.18V69.7576H1812.48V67.8293H1810.18Z" fill="#416633"/>
<path d="M1817.07 50.5027V48.5784V46.6541H1814.77V44.7299H1812.48V42.8015H1810.18V40.8772H1807.88H1805.59H1803.29V38.953V37.0287V35.1004H1800.99V33.1761V31.2518V29.3235H1798.7V27.3992H1796.4V25.4749H1794.11V23.5507H1791.81V21.6223H1789.51H1787.21H1784.92H1782.62H1780.33H1778.03H1775.73H1773.44V23.5507H1771.14V21.6223V19.698H1768.85V17.7738H1766.55H1764.25V15.8495H1761.95V13.9211H1759.66H1757.36H1755.07H1752.77H1750.47H1748.18V15.8495H1745.88H1743.59V17.7738H1741.29V19.698H1738.99V21.6223H1736.69V23.5507H1734.4V25.4749V27.3992V29.3235H1732.1H1729.81H1727.51H1725.21H1722.92H1720.62H1718.33V31.2518H1716.03H1713.73V33.1761H1711.44V35.1004H1709.14V37.0287V38.953V40.8772V42.8015V44.7299V46.6541H1711.44V48.5784V50.5027H1713.73V52.431H1716.03V54.3553H1718.33H1720.62H1722.92H1725.21H1727.51H1729.81V52.431H1732.1V50.5027H1734.4H1736.69V52.431H1738.99V54.3553H1741.29V56.2796H1743.59H1745.88V58.2038H1748.18H1750.47H1752.77H1755.07H1757.36H1759.66H1761.95H1764.25V56.2796H1766.55H1768.85V54.3553H1771.14V52.431H1773.44V50.5027H1775.73V48.5784V46.6541H1778.03V44.7299H1780.33V46.6541H1782.62V48.5784H1784.92V50.5027H1787.21H1789.51H1791.81H1794.11H1796.4H1798.7V48.5784H1800.99V46.6541H1803.29V48.5784V50.5027V52.431V54.3553V56.2796V58.2038V60.1281H1805.59V62.0565V63.9807H1807.88V65.905H1810.18V67.8293H1812.48V69.7576H1814.77V67.8293V65.905H1817.07V63.9807H1819.37V62.0565V60.1281V58.2038V56.2796V54.3553V52.431V50.5027H1817.07Z" fill="#5E884E"/>
<path d="M1680.64 43.6098V41.6856V39.7613H1678.35V37.837H1676.05V35.9087H1673.75V33.9844H1671.46H1669.16H1666.87V32.0601V30.1359V28.2075H1664.57V26.2833V24.359V22.4347H1662.27V20.5064H1659.98V18.5821H1657.68V16.6578H1655.38V14.7336H1653.09H1650.79H1648.49H1646.2H1643.9H1641.61H1639.31H1637.01V16.6578H1634.72V14.7336V12.8052H1632.42V10.8809H1630.13H1627.83V8.95667H1625.53V7.03241H1623.23H1620.94H1618.64H1616.35H1614.05H1611.75V8.95667H1609.46H1607.16V10.8809H1604.87V12.8052H1602.57V14.7336H1600.27V16.6578H1597.97V18.5821V20.5064V22.4347H1595.68H1593.38H1591.09H1588.79H1586.49H1584.2H1581.9V24.359H1579.6H1577.31V26.2833H1575.01V28.2075H1572.71V30.1359V32.0601V33.9844V35.9087V37.837V39.7613H1575.01V41.6856V43.6098H1577.31V45.5382H1579.6V47.4625H1581.9H1584.2H1586.49H1588.79H1591.09H1593.38V45.5382H1595.68V43.6098H1597.97H1600.27V45.5382H1602.57V47.4625H1604.87V49.3867H1607.16H1609.46V51.311H1611.75H1614.05H1616.35H1618.64H1620.94H1623.23H1625.53H1627.83V49.3867H1630.13H1632.42V47.4625H1634.72V45.5382H1637.01V43.6098H1639.31V41.6856V39.7613H1641.61V37.837H1643.9V39.7613H1646.2V41.6856H1648.49V43.6098H1650.79H1653.09H1655.38H1657.68H1659.98H1662.27V41.6856H1664.57V39.7613H1666.87V41.6856V43.6098V45.5382V47.4625V49.3867V51.311V53.2394H1669.16V55.1636V57.0879H1671.46V59.0121H1673.75V60.9405H1676.05V62.8648H1678.35V60.9405V59.0121H1680.64V57.0879H1682.94V55.1636V53.2394V51.311V49.3867V47.4625V45.5382V43.6098H1680.64Z" fill="#5E884E"/>
<path d="M1496.95 36.5815V34.6573V32.7289H1494.65V30.8046H1492.36V28.8804H1490.06V26.952H1487.77H1485.47H1483.17V25.0277V23.1035V21.1792H1480.87V19.2508V17.3266V15.4023H1478.58V13.4781H1476.28V11.5497H1473.99V9.62542H1471.69V7.70116H1469.39H1467.1H1464.8H1462.5H1460.21H1457.91H1455.61H1453.32V9.62542H1451.02V7.70116V5.77689H1448.73V3.84853H1446.43H1444.14V1.92426H1441.84V0H1439.54H1437.25H1434.95H1432.65H1430.36H1428.06V1.92426H1425.76H1423.47V3.84853H1421.17V5.77689H1418.88V7.70116H1416.58V9.62542H1414.28V11.5497V13.4781V15.4023H1411.99H1409.69H1407.39H1405.1H1402.8H1400.5H1398.21V17.3266H1395.91H1393.62V19.2508H1391.32V21.1792H1389.02V23.1035V25.0277V26.952V28.8804V30.8046V32.7289H1391.32V34.6573V36.5815H1393.62V38.5058H1395.91V40.43H1398.21H1400.5H1402.8H1405.1H1407.39H1409.69V38.5058H1411.99V36.5815H1414.28H1416.58V38.5058H1418.88V40.43H1421.17V42.3584H1423.47H1425.76V44.2827H1428.06H1430.36H1432.65H1434.95H1437.25H1439.54H1441.84H1444.14V42.3584H1446.43H1448.73V40.43H1451.02V38.5058H1453.32V36.5815H1455.61V34.6573V32.7289H1457.91V30.8046H1460.21V32.7289H1462.5V34.6573H1464.8V36.5815H1467.1H1469.39H1471.69H1473.99H1476.28H1478.58V34.6573H1480.87V32.7289H1483.17V34.6573V36.5815V38.5058V40.43V42.3584V44.2827V46.2069H1485.47V48.1312V50.0555H1487.77V51.9838H1490.06V53.9081H1492.36V55.8324H1494.65V53.9081V51.9838H1496.95V50.0555H1499.25V48.1312V46.2069V44.2827V42.3584V40.43V38.5058V36.5815H1496.95Z" fill="#5E884E"/>
<path d="M1243.88 40.0977V38.1693V36.2451H1241.58V34.3208H1239.29V32.3965H1236.99V30.4682H1234.7H1232.4H1230.1V28.5439V26.6196V24.6954H1227.81V22.767V20.8428V18.9185H1225.51V16.9942H1223.21V15.0659H1220.92V13.1416H1218.62V11.2173H1216.32H1214.03H1211.73H1209.44H1207.14H1204.84H1202.55H1200.25V13.1416H1197.95V11.2173V9.29307H1195.66V7.3647H1193.36H1191.06V5.44044H1188.77V3.51617H1186.47H1184.18H1181.88H1179.58H1177.29H1174.99V5.44044H1172.69H1170.4V7.3647H1168.1V9.29307H1165.8V11.2173H1163.51V13.1416H1161.21V15.0659V16.9942V18.9185H1158.92H1156.62H1154.32H1152.03H1149.73H1147.43H1145.14V20.8428H1142.84H1140.54V22.767H1138.25V24.6954H1135.95V26.6196V28.5439V30.4682V32.3965V34.3208V36.2451H1138.25V38.1693V40.0977H1140.54V42.022H1142.84V43.9462H1145.14H1147.43H1149.73H1152.03H1154.32H1156.62V42.022H1158.92V40.0977H1161.21H1163.51V42.022H1165.8V43.9462H1168.1V45.8705H1170.4H1172.69V47.7948H1174.99H1177.29H1179.58H1181.88H1184.18H1186.47H1188.77H1191.06V45.8705H1193.36H1195.66V43.9462H1197.95V42.022H1200.25V40.0977H1202.55V38.1693V36.2451H1204.84V34.3208H1207.14V36.2451H1209.44V38.1693H1211.73V40.0977H1214.03H1216.32H1218.62H1220.92H1223.21H1225.51V38.1693H1227.81V36.2451H1230.1V38.1693V40.0977V42.022V43.9462V45.8705V47.7948V49.7231H1232.4V51.6474V53.5717H1234.7V55.5H1236.99V57.4243H1239.29V59.3485H1241.58V57.4243V55.5H1243.88V53.5717H1246.18V51.6474V49.7231V47.7948V45.8705V43.9462V42.022V40.0977H1243.88Z" fill="#5E884E"/>
</svg>
