<svg width="405" height="404" viewBox="0 0 405 404" fill="none" xmlns="http://www.w3.org/2000/svg">
<path d="M377.437 101C403.115 145.476 410.889 198.062 399.178 248.065C387.466 298.067 357.149 341.732 314.392 370.179C271.634 398.626 219.647 409.72 169.002 401.203C118.357 392.687 72.8577 365.2 41.7561 324.333C10.6544 283.466 -3.7138 232.287 1.57332 181.204C6.86043 130.121 31.4059 82.9697 70.2181 49.3387C109.03 15.7077 159.195 -1.87756 210.511 0.159014C261.826 2.19559 310.439 23.7011 346.464 60.3022L202.5 202L377.437 101Z" fill="#FCFC03"/>
<path d="M346.464 60.3022C352.462 66.3955 358.066 72.8634 363.244 79.667L202.5 202L346.464 60.3022Z" fill="#FF00C7"/>
<path d="M363.244 79.667C368.422 86.4705 373.162 93.5959 377.437 101L202.5 202L363.244 79.667Z" fill="#22A2FF"/>
<rect x="57.5" y="55" width="296" height="296" rx="148" fill="#9BA885"/>
<rect x="57.5" y="55" width="296" height="296" rx="148" stroke="#58604B" stroke-width="18"/>
<g clip-path="url(#clip0_19_600)">
<path d="M174.902 189.281H112.707V202.146H174.902V189.281Z" fill="white"/>
<path d="M162.696 177H112.707V189.281H162.696V177Z" fill="white"/>
<path d="M162.696 202.146H125.495V214.427H162.696V202.146Z" fill="white"/>
<path d="M125.495 202.146H112.707V214.427H125.495V202.146Z" fill="#E4E5CF"/>
<path d="M162.696 214.427H125.495V226.708H162.696V214.427Z" fill="#E4E5CF"/>
<path d="M174.902 202.146H162.696V214.427H174.902V202.146Z" fill="#E4E5CF"/>
<path d="M162.696 239.573H137.701V251.854H162.696V239.573Z" fill="#BFBB11"/>
<path d="M224.31 251.854H162.696V264.134H224.31V251.854Z" fill="#BFBB11"/>
<path d="M212.103 226.708H162.696V251.854H212.103V226.708Z" fill="#FCFC03"/>
<path d="M212.103 214.427H174.902V226.707H212.103V214.427Z" fill="#FCFC03"/>
<path d="M224.31 202.731H187.109V214.427H224.31V202.731Z" fill="#FCFC03"/>
<path d="M212.103 189.281H187.109V202.731H212.103V189.281Z" fill="#FCFC03"/>
<path d="M174.902 164.719H162.696V177H174.902V164.719Z" fill="#FCFC03"/>
<path d="M199.897 151.854H174.902V189.281H199.897V151.854Z" fill="#FCFC03"/>
<path d="M174.902 151.854H149.908V164.719H174.902V151.854Z" fill="#FFFC80"/>
<path d="M212.103 139.573H174.902V151.854H212.103V139.573Z" fill="#FFFC80"/>
<path d="M224.31 164.719H212.103V189.281H224.31V164.719Z" fill="#E4E5CF"/>
<path d="M237.098 189.281H224.31V202.146H237.098V189.281Z" fill="#E4E5CF"/>
<path d="M249.304 139.573H224.31V189.281H249.304V139.573Z" fill="white"/>
<path d="M224.31 151.854H212.103V164.719H224.31V151.854Z" fill="white"/>
<path d="M261.511 151.854H249.304V164.719H261.511V151.854Z" fill="white"/>
<path d="M261.511 164.719H249.304V189.281H261.511V164.719Z" fill="black"/>
<path d="M274.299 189.281H237.098V202.146H274.299V189.281Z" fill="white"/>
<path d="M274.299 164.719H261.511V189.281H274.299V164.719Z" fill="white"/>
<path d="M298.712 214.427H224.31V226.708H298.712V214.427Z" fill="#FC3800"/>
<path d="M224.31 226.708H212.103V239.573H224.31V226.708Z" fill="#FC3800"/>
<path d="M286.506 239.573H224.31V251.854H286.506V239.573Z" fill="#FC3800"/>
<path d="M249.304 127H174.902V139.573H249.304V127Z" fill="black"/>
<path d="M174.902 139.573H149.908V151.854H174.902V139.573Z" fill="black"/>
<path d="M149.908 151.854H137.701V164.719H149.908V151.854Z" fill="black"/>
<path d="M162.696 164.719H112.707V177H162.696V164.719Z" fill="black"/>
<path d="M112.707 177H100.5V214.427H112.707V177Z" fill="black"/>
<path d="M125.495 214.427H112.707V226.708H125.495V214.427Z" fill="black"/>
<path d="M162.696 226.708H125.495V239.573H162.696V226.708Z" fill="black"/>
<path d="M174.902 177H162.696V189.281H174.902V177Z" fill="black"/>
<path d="M187.109 189.281H174.902V214.427H187.109V189.281Z" fill="black"/>
<path d="M174.902 214.427H162.696V226.708H174.902V214.427Z" fill="black"/>
<path d="M137.701 239.573H125.495V251.854H137.701V239.573Z" fill="black"/>
<path d="M162.696 251.854H137.701V264.134H162.696V251.854Z" fill="black"/>
<path d="M224.31 264.135H162.696V277H224.31V264.135Z" fill="black"/>
<path d="M286.506 251.854H224.31V264.134H286.506V251.854Z" fill="black"/>
<path d="M224.31 239.573H212.103V251.854H224.31V239.573Z" fill="black"/>
<path d="M212.103 226.708H199.897V239.573H212.103V226.708Z" fill="black"/>
<path d="M224.31 214.427H212.103V226.708H224.31V214.427Z" fill="black"/>
<path d="M298.712 239.573H286.505V251.854H298.712V239.573Z" fill="black"/>
<path d="M311.5 226.708H224.31V239.573H311.5V226.708Z" fill="black"/>
<path d="M311.5 214.427H298.712V226.708H311.5V214.427Z" fill="black"/>
<path d="M298.712 202.146H224.31V214.427H298.712V202.146Z" fill="black"/>
<path d="M261.511 138.988H249.304V151.854H261.511V138.988Z" fill="black"/>
<path d="M274.299 151.854H261.511V164.719H274.299V151.854Z" fill="black"/>
<path d="M286.506 164.719H274.299V202.146H286.506V164.719Z" fill="black"/>
<path d="M212.103 151.854H199.897V189.281H212.103V151.854Z" fill="black"/>
<path d="M224.31 189.281H212.103V202.731H224.31V189.281Z" fill="black"/>
<path d="M224.31 139.573H212.103V151.854H224.31V139.573Z" fill="black"/>
</g>
<defs>
<clipPath id="clip0_19_600">
<rect width="211" height="150" fill="white" transform="translate(100.5 127)"/>
</clipPath>
</defs>
</svg>
